<svg fill="none" height="24" viewBox="0 0 24 24" width="24" xmlns="http://www.w3.org/2000/svg">
    <g clip-path="url(#clip0_1519_6679)">
        <path
            d="M18.8375 4.3125H18.0875V2H15.5875V4.3125H8.4375V2H5.9375V4.3125H5.15C3.4125 4.3125 2 5.725 2 7.4625V7.875H22V7.4625C22 5.725 20.5875 4.3 18.8375 4.3V4.3125Z"
            fill="#011120" />
        <path
            d="M2 19.2624C2 20.7749 3.225 21.9999 4.7375 21.9999H19.2625C20.775 21.9999 22 20.7749 22 19.2624V9.1499H2V19.2624ZM15.0375 11.8124H17.7375V14.5124H15.0375V11.8124ZM15.0375 16.6374H17.7375V19.3374H15.0375V16.6374ZM10.65 11.8124H13.35V14.5124H10.65V11.8124ZM10.65 16.6374H13.35V19.3374H10.65V16.6374ZM6.2625 11.8124H8.9625V14.5124H6.2625V11.8124ZM6.2625 16.6374H8.9625V19.3374H6.2625V16.6374Z"
            fill="#011120" />
    </g>
    <defs>
        <clipPath id="clip0_1519_6679">
            <rect fill="white" height="20" transform="translate(2 2)" width="20" />
        </clipPath>
    </defs>
</svg>
