<svg width="24" height="24" viewBox="0 0 24 24" fill="none" xmlns="http://www.w3.org/2000/svg">
<g clip-path="url(#clip0_1301_5262)">
<path d="M12.1429 10.6857C14.5414 10.6857 16.4858 8.74135 16.4858 6.34286C16.4858 3.94436 14.5414 2 12.1429 2C9.74441 2 7.80005 3.94436 7.80005 6.34286C7.80005 8.74135 9.74441 10.6857 12.1429 10.6857Z" fill="#00B2FF"/>
<path d="M17.1714 10.5714C16.0286 12.0571 14.2 12.9714 12.1429 12.9714C10.0857 12.9714 8.25714 12.0571 7.11429 10.5714C4.6 12.1714 3 15.0286 3 18.1143C3 23.1428 21.2857 23.1428 21.2857 18.1143C21.2857 15.0286 19.6857 12.1714 17.1714 10.5714Z" fill="#00B2FF"/>
</g>
<defs>
<clipPath id="clip0_1301_5262">
<rect width="18.2857" height="20" fill="white" transform="translate(3 2)"/>
</clipPath>
</defs>
</svg>
