<svg width="20" height="20" viewBox="0 0 20 20" fill="none" xmlns="http://www.w3.org/2000/svg">
<g clip-path="url(#clip0_1301_5818)">
<path d="M18.1863 7.8431C18.1863 6.56859 17.2059 5.58819 15.9314 5.58819H15.8333V4.01957L13.4804 1.66663H4.85294V5.49016C3.48039 5.49016 2.5 6.56859 2.5 7.8431V12.4509H4.85294V15.8823C4.85294 17.2549 5.93137 18.3333 7.30392 18.3333H13.2843C14.6569 18.3333 15.7353 17.2549 15.7353 15.8823V12.4509H18.1863V7.8431ZM5.83333 2.64702H13.0882L14.7549 4.41172V5.49016H5.83333V2.64702ZM14.7549 15.8823C14.7549 16.6666 14.0686 17.3529 13.2843 17.3529H7.30392C6.51961 17.3529 5.83333 16.6666 5.83333 15.8823V12.4509H14.8529V15.8823H14.7549ZM16.0294 7.74506H13.6765C13.4804 7.74506 13.2843 7.54898 13.2843 7.3529C13.2843 7.15682 13.4804 6.8627 13.7745 6.8627H16.1275C16.4216 6.8627 16.6176 7.05878 16.6176 7.3529C16.6176 7.64702 16.3235 7.74506 16.0294 7.74506Z" fill="white"/>
<path d="M13.578 12.8431H7.10742V13.8235H13.578V12.8431Z" fill="white"/>
<path d="M13.578 15.2941H7.10742V16.2745H13.578V15.2941Z" fill="white"/>
</g>
<defs>
<clipPath id="clip0_1301_5818">
<rect width="15.6863" height="16.6667" fill="white" transform="translate(2.5 1.66663)"/>
</clipPath>
</defs>
</svg>
