<svg width="36" height="36" viewBox="0 0 36 36" fill="none" xmlns="http://www.w3.org/2000/svg">
<g clip-path="url(#clip0_1301_4053)">
<path d="M25.3125 5.4375C27 6.9375 27.9375 9.1875 27.9375 11.8125C27.9375 14.625 27 16.875 25.3125 18.1875C23.4375 19.6875 21.1875 20.25 18.1875 20.25L17.8125 23.625H13.6875L13.5 17.0625H14.8125C17.625 17.0625 19.6875 16.6875 21 15.9375C22.5 15.1875 23.25 13.875 23.25 11.8125C23.25 10.3125 22.875 9.1875 21.9375 8.25C21.1875 7.5 19.875 7.125 18.375 7.125C16.875 7.125 15.75 7.5 14.8125 8.4375C13.875 9.1875 13.5 10.3125 13.5 11.8125H9C9 10.125 9.375 8.625 10.125 7.3125C10.875 5.8125 12 4.875 13.3125 4.125C14.625 3.375 16.5 3 18.375 3C21.1875 3 23.4375 3.75 25.3125 5.4375ZM13.5 32.0625C12.9375 31.5 12.5625 30.75 12.5625 29.8125C12.5625 28.875 12.9375 28.125 13.5 27.5625C14.0625 27 14.8125 26.625 15.75 26.625C16.5 26.625 17.25 27 17.8125 27.5625C18.375 28.125 18.75 28.875 18.75 29.8125C18.75 30.75 18.375 31.5 17.8125 32.0625C17.25 32.625 16.5 33 15.75 33C14.8125 33 14.0625 32.625 13.5 32.0625Z" fill="white"/>
</g>
<defs>
<clipPath id="clip0_1301_4053">
<rect width="18.75" height="30" fill="white" transform="translate(9 3)"/>
</clipPath>
</defs>
</svg>
