<svg width="32" height="30" viewBox="0 0 32 30" fill="none" xmlns="http://www.w3.org/2000/svg">
<g clip-path="url(#clip0_1301_6630)">
<path d="M28.4499 25.5226L23.0434 20.2966C24.5046 18.4605 25.3813 16.0593 25.3813 13.5169C25.3813 7.4435 20.267 2.5 13.9838 2.5C7.70057 2.5 2.5863 7.4435 2.5863 13.5169C2.5863 19.5904 7.70057 24.5339 13.9838 24.5339C16.614 24.5339 19.0981 23.6864 20.9977 22.274L26.4042 27.5L28.4499 25.5226ZM13.9838 21.8503C9.30791 21.8503 5.50874 18.178 5.50874 13.5169C5.50874 8.85593 9.30791 5.32486 13.9838 5.32486C18.6597 5.32486 22.4589 8.99718 22.4589 13.5169C22.4589 18.0367 18.8058 21.8503 13.9838 21.8503Z" fill="#BFC6DA"/>
</g>
<defs>
<clipPath id="clip0_1301_6630">
<rect width="25.8636" height="25" fill="white" transform="translate(2.5863 2.5)"/>
</clipPath>
</defs>
</svg>
