<svg width="24" height="24" viewBox="0 0 24 24" fill="none" xmlns="http://www.w3.org/2000/svg">
<g clip-path="url(#clip0_1301_5305)">
<path d="M20.157 2H14.2777C13.7846 2 13.3173 2.19468 12.9669 2.5451L2.5451 12.9669C1.8183 13.6937 1.8183 14.8618 2.5451 15.5756L8.4244 21.4549C9.1512 22.1817 10.3193 22.1817 11.0331 21.4549L21.4549 11.0331C21.8053 10.6827 22 10.2154 22 9.72226V3.84296C22 2.81765 21.1694 2 20.157 2ZM18.6515 6.95782C17.769 6.95782 17.0422 6.244 17.0422 5.34847C17.0422 4.45295 17.756 3.73913 18.6515 3.73913C19.547 3.73913 20.2609 4.45295 20.2609 5.34847C20.2609 6.244 19.547 6.95782 18.6515 6.95782Z" fill="#00B2FF"/>
</g>
<defs>
<clipPath id="clip0_1301_5305">
<rect width="20" height="20" fill="white" transform="translate(2 2)"/>
</clipPath>
</defs>
</svg>
