<svg width="32" height="32" viewBox="0 0 32 32" fill="none" xmlns="http://www.w3.org/2000/svg">
<g id="mail">
<path id="Vector" d="M4 9.33329C4 8.62605 4.28095 7.94777 4.78105 7.44767C5.28115 6.94758 5.95942 6.66663 6.66667 6.66663H25.3333C26.0406 6.66663 26.7189 6.94758 27.219 7.44767C27.719 7.94777 28 8.62605 28 9.33329M4 9.33329V22.6666C4 23.3739 4.28095 24.0521 4.78105 24.5522C5.28115 25.0523 5.95942 25.3333 6.66667 25.3333H25.3333C26.0406 25.3333 26.7189 25.0523 27.219 24.5522C27.719 24.0521 28 23.3739 28 22.6666V9.33329M4 9.33329L16 17.3333L28 9.33329" stroke="#BFC6DA" stroke-width="2" stroke-linecap="round" stroke-linejoin="round"/>
</g>
</svg>
