<svg width="24" height="24" viewBox="0 0 24 24" fill="none" xmlns="http://www.w3.org/2000/svg">
<g clip-path="url(#clip0_1422_5140)">
<path d="M9.89809 2L3.78344 3.01911C3.52866 3.01911 3.40127 3.1465 3.27389 3.27389C3.1465 3.40127 3.01911 3.52866 3.01911 3.78344L2 9.89809C2 10.2803 2 10.535 2.25478 10.7898C2.50955 10.9172 2.63694 10.9172 3.01911 10.9172H10.0255C10.2803 10.9172 10.535 10.9172 10.6624 10.6624C10.9172 10.535 10.9172 10.2803 10.9172 10.0255V3.01911C10.9172 2.76433 10.7898 2.50955 10.535 2.25478C10.4076 2 10.1529 2 9.89809 2Z" fill="#011120"/>
<path d="M10.0255 13.0828H3.01911C2.63694 13.0828 2.38217 13.2102 2.12739 13.465C2 13.5924 2 13.9745 2 14.2293L3.01911 20.344C3.01911 20.5987 3.1465 20.8535 3.40127 20.9809C3.52866 21.1083 3.65605 21.1083 3.78344 21.1083L9.89809 22.1274C10.1529 22.1274 10.535 22.1274 10.6624 21.8726C10.9172 21.6178 10.9172 21.3631 10.9172 21.1083V13.9745C10.9172 13.8471 10.9172 13.7198 10.9172 13.5924C10.6624 13.3376 10.4076 13.0828 10.0255 13.0828Z" fill="#011120"/>
<path d="M13.9745 10.9172H21.1082C21.4904 10.9172 21.7452 10.7898 21.8726 10.4076C22 10.2803 22 10.0255 22 9.7707L21.1082 3.78344C21.1082 3.52866 20.9809 3.40127 20.8535 3.27389C20.7261 3.1465 20.4713 3.01911 20.3439 3.01911L14.2293 2C13.9745 2 13.5923 2 13.4649 2.25478C13.2102 2.38217 13.0828 2.63694 13.0828 3.01911V10.0255C13.0828 10.2803 13.2102 10.535 13.3375 10.6624C13.4649 10.7898 13.7197 10.9172 13.9745 10.9172Z" fill="#011120"/>
<path d="M21.1082 13.0828H13.9745C13.7197 13.0828 13.4649 13.2102 13.3375 13.3376C13.2102 13.465 13.0828 13.7198 13.0828 13.9745V21.1083C13.0828 21.4905 13.2102 21.7452 13.4649 21.8726C13.7197 22 13.8471 22.1274 14.2293 22L20.3439 20.9809C20.5987 20.9809 20.7261 20.8535 20.8535 20.7261C20.9809 20.5987 21.1082 20.344 21.1082 20.2166L22.1273 14.1019C22.1273 13.8471 22.1273 13.5924 21.8726 13.3376C21.6178 13.0828 21.363 13.0828 21.1082 13.0828Z" fill="#011120"/>
</g>
<defs>
<clipPath id="clip0_1422_5140">
<rect width="20" height="20" fill="white" transform="translate(2 2)"/>
</clipPath>
</defs>
</svg>
