<svg width="12" height="13" viewBox="0 0 12 13" fill="none" xmlns="http://www.w3.org/2000/svg">
<g id="packages">
<path id="Vector" d="M1 7.25L3.5 8.75V11.5M1 7.25L3.5 5.75L6 7.25M1 7.25V10L3.5 11.5M6 7.25V10M6 7.25L8.5 8.75M6 7.25L8.5 5.75M6 7.25V4.5M6 10L3.5 11.5M6 10L8.5 11.5M3.5 8.77251L6 7.25751M8.5 8.75V11.5M8.5 8.75L11 7.25M8.5 5.75L11 7.25M8.5 5.75V3M11 7.25V10L8.5 11.5M6 4.5L3.5 3L6 1.5L8.5 3M6 4.5L8.5 3M3.5 3.015V5.7425" stroke="#2A547B" stroke-linecap="round" stroke-linejoin="round"/>
</g>
</svg>
