<svg width="36" height="36" viewBox="0 0 36 36" fill="none" xmlns="http://www.w3.org/2000/svg">
<g clip-path="url(#clip0_1301_4070)">
<path d="M18 22.875C20.6924 22.875 22.875 20.6924 22.875 18C22.875 15.3076 20.6924 13.125 18 13.125C15.3076 13.125 13.125 15.3076 13.125 18C13.125 20.6924 15.3076 22.875 18 22.875Z" fill="white"/>
<path d="M31.6875 15.375H30.5625C30 15.375 29.4375 15 29.25 14.4375C29.0625 13.875 28.875 13.3125 28.5 12.75C28.3125 12.1875 28.3125 11.625 28.6875 11.25L29.625 10.3125C30.1875 9.75 30.1875 9 29.625 8.4375L27.5625 6.375C27 5.8125 26.25 5.8125 25.6875 6.375L24.75 7.3125C24.375 7.6875 23.8125 7.6875 23.25 7.5C22.875 7.125 22.3125 6.9375 21.5625 6.75C21.1875 6.5625 20.625 6 20.625 5.4375V4.3125C20.625 3.5625 20.0625 3 19.5 3H16.5C15.9375 3 15.375 3.5625 15.375 4.3125V5.4375C15.375 6 15 6.5625 14.4375 6.75C13.6875 6.9375 13.125 7.125 12.5625 7.5C12 7.6875 11.4375 7.6875 11.0625 7.3125L10.125 6.375C9.5625 5.8125 8.8125 5.8125 8.25 6.375L6.375 8.4375C5.8125 9 5.8125 9.75 6.375 10.3125L7.3125 11.25C7.6875 11.625 7.6875 12.1875 7.5 12.75C7.125 13.125 6.9375 13.6875 6.75 14.4375C6.5625 14.8125 6 15.375 5.4375 15.375H4.3125C3.5625 15.375 3 15.9375 3 16.5V19.3125C3 20.0625 3.5625 20.625 4.3125 20.625H5.4375C6 20.625 6.5625 21 6.75 21.5625C6.9375 22.125 7.125 22.6875 7.5 23.25C7.6875 23.8125 7.6875 24.375 7.3125 24.75L6.375 25.6875C5.8125 26.25 5.8125 27 6.375 27.5625L8.4375 29.625C9 30.1875 9.75 30.1875 10.3125 29.625L11.25 28.6875C11.625 28.3125 12.1875 28.3125 12.75 28.5C13.3125 28.875 13.875 29.0625 14.4375 29.25C15 29.4375 15.375 30 15.375 30.5625V31.6875C15.375 32.4375 15.9375 33 16.6875 33H19.5C20.25 33 20.8125 32.4375 20.8125 31.6875V30.5625C20.8125 30 21.1875 29.4375 21.75 29.25C22.3125 29.0625 22.875 28.875 23.4375 28.5C24 28.3125 24.5625 28.3125 24.9375 28.6875L25.875 29.625C26.4375 30.1875 27.1875 30.1875 27.75 29.625L29.8125 27.5625C30.375 27 30.375 26.25 29.8125 25.6875L28.875 24.75C28.5 24.375 28.5 23.8125 28.6875 23.25C29.0625 22.6875 29.25 22.125 29.4375 21.5625C29.625 21 30.1875 20.625 30.75 20.625H31.875C32.625 20.625 33.1875 20.0625 33.1875 19.3125V16.5C33 15.9375 32.4375 15.375 31.6875 15.375ZM18 26.625C13.125 26.625 9.375 22.6875 9.375 18C9.375 13.125 13.3125 9.375 18 9.375C22.6875 9.375 26.625 13.3125 26.625 18C26.625 22.875 22.875 26.625 18 26.625Z" fill="white"/>
</g>
<defs>
<clipPath id="clip0_1301_4070">
<rect width="30" height="30" fill="white" transform="translate(3 3)"/>
</clipPath>
</defs>
</svg>
