<svg width="36" height="36" viewBox="0 0 36 36" fill="none" xmlns="http://www.w3.org/2000/svg">
<g clip-path="url(#clip0_1301_4045)">
<path d="M29.0625 3H6.9375C4.6875 3 3 4.6875 3 6.9375V29.0625C3 31.3125 4.6875 33 6.9375 33H29.0625C31.3125 33 33 31.3125 33 29.0625V6.9375C33 4.6875 31.3125 3 29.0625 3ZM26.8125 20.625L22.125 24.5625C21.9375 24.75 21.75 24.75 21.5625 24.75C21.375 24.75 21 24.5625 20.8125 24.375C20.4375 24 20.625 23.4375 21 23.0625L23.625 21H9.75C9.1875 21 8.8125 20.625 8.8125 20.0625C8.8125 19.5 9.1875 19.125 9.75 19.125H26.25C26.625 19.125 27 19.3125 27.1875 19.6875C27.375 20.0625 27.1875 20.4375 26.8125 20.625ZM26.25 16.875H9.75C9.375 16.875 9 16.6875 8.8125 16.3125C8.625 15.9375 8.8125 15.5625 9.1875 15.375L13.875 11.4375C14.25 11.0625 14.8125 11.0625 15.1875 11.4375C15.5625 11.8125 15.375 12.375 15 12.75L12.375 15H26.25C26.8125 15 27.1875 15.375 27.1875 15.9375C27.1875 16.5 26.8125 16.875 26.25 16.875Z" fill="white"/>
</g>
<defs>
<clipPath id="clip0_1301_4045">
<rect width="30" height="30" fill="white" transform="translate(3 3)"/>
</clipPath>
</defs>
</svg>
