<svg width="24" height="24" viewBox="0 0 24 24" fill="none" xmlns="http://www.w3.org/2000/svg">
<g clip-path="url(#clip0_1301_1621)">
<path d="M14.75 2H4.5C3.75 2 3.125 2.25 2.75 2.75C2.25 3.125 2 3.75 2 4.5V19.5C2 20.25 2.25 20.875 2.75 21.25C3.125 21.75 3.75 22 4.5 22H19.5C20.375 22 21 21.625 21.5 21C21.75 20.625 22 20.125 22 19.5V9.25C22 8.875 21.875 8.5 21.75 8.125C21.625 7.875 21.5 7.75 21.25 7.5L16.5 2.75C16.25 2.5 16 2.375 15.75 2.25C15.375 2.125 15 2 14.75 2ZM17.125 13.5L13 9.25V18.375H11V9.25L6.875 13.5L5.5 12.125L12 5.625L18.5 12.125L17.125 13.5Z" fill="white"/>
</g>
<defs>
<clipPath id="clip0_1301_1621">
<rect width="20" height="20" fill="white" transform="translate(2 2)"/>
</clipPath>
</defs>
</svg>
