<svg width="24" height="24" viewBox="0 0 24 24" fill="none" xmlns="http://www.w3.org/2000/svg">
<g clip-path="url(#clip0_1301_1432)">
<path d="M12 2C6.44444 2 2 6.44444 2 12C2 17.5556 6.44444 22 12 22C17.5556 22 22 17.5556 22 12C22 6.44444 17.5556 2 12 2ZM12 19.7778C7.66667 19.7778 4.22222 16.3333 4.22222 12C4.22222 7.66667 7.66667 4.22222 12 4.22222C16.3333 4.22222 19.7778 7.66667 19.7778 12C19.7778 16.3333 16.3333 19.7778 12 19.7778Z" fill="#00B2FF"/>
<path d="M13.1111 6.55554H10.8889V10.8889H6.55554V13.1111H10.8889V17.4444H13.1111V13.1111H17.4444V10.8889H13.1111V6.55554Z" fill="#00B2FF"/>
</g>
<defs>
<clipPath id="clip0_1301_1432">
<rect width="20" height="20" fill="white" transform="translate(2 2)"/>
</clipPath>
</defs>
</svg>
