<svg width="24" height="24" viewBox="0 0 24 24" fill="none" xmlns="http://www.w3.org/2000/svg">
<g clip-path="url(#clip0_1301_5406)">
<path d="M17 2H6.5C4.5 2 3 3.5 3 5.5V22L7.25 17.875L11.75 22L16.25 17.875L20.5 22V5.5C20.5 3.5 18.875 2 17 2ZM17.125 13.75H6.375C6.125 13.75 5.875 13.5 5.875 13.25C5.875 13 6.125 12.75 6.375 12.75H17.125C17.375 12.75 17.625 13 17.625 13.25C17.625 13.5 17.375 13.75 17.125 13.75ZM17.125 10.125H6.375C6.125 10.125 5.875 9.875 5.875 9.625C5.875 9.375 6.125 9.125 6.375 9.125H17.125C17.375 9.125 17.625 9.375 17.625 9.625C17.625 9.875 17.375 10.125 17.125 10.125ZM17.125 6.5H6.375C6.125 6.5 5.875 6.25 5.875 6C5.875 5.75 6.125 5.5 6.375 5.5H17.125C17.375 5.5 17.625 5.75 17.625 6C17.625 6.25 17.375 6.5 17.125 6.5Z" fill="#00B2FF"/>
</g>
<defs>
<clipPath id="clip0_1301_5406">
<rect width="17.5" height="20" fill="white" transform="translate(3 2)"/>
</clipPath>
</defs>
</svg>
