<svg width="20" height="20" viewBox="0 0 20 20" fill="none" xmlns="http://www.w3.org/2000/svg">
<g clip-path="url(#clip0_1101_2165)">
<path d="M16.9792 4.16666H3.02091C2.29175 4.16666 1.66675 4.79166 1.66675 5.52082V15.1042C1.66675 15.8333 2.29175 16.4583 3.02091 16.4583H16.9792C17.7084 16.4583 18.3334 15.8333 18.3334 15.1042V5.52082C18.3334 4.79166 17.7084 4.16666 16.9792 4.16666ZM16.8751 6.97916L10.4167 10.9375C10.3126 11.0417 10.1042 11.0417 10.0001 11.0417C9.89592 11.0417 9.68758 11.0417 9.58342 10.9375L3.12508 6.97916C2.81258 6.66666 2.70841 6.24999 2.91675 5.83332C3.12508 5.41666 3.64591 5.31249 3.95841 5.62499L10.0001 9.37499L16.0417 5.62499C16.4584 5.41666 16.8751 5.52082 17.0834 5.83332C17.2917 6.24999 17.1876 6.66666 16.8751 6.97916Z" fill="white"/>
</g>
<defs>
<clipPath id="clip0_1101_2165">
<rect width="16.6667" height="12.1875" fill="white" transform="translate(1.66675 4.16666)"/>
</clipPath>
</defs>
</svg>
