<svg width="100" height="101" viewBox="0 0 100 101" fill="none" xmlns="http://www.w3.org/2000/svg">
<g id="Calque_2" clip-path="url(#clip0_1927_4410)">
<path id="Vector" d="M88.6753 0.916626H11.3253C5.31335 0.916626 0.416992 5.81298 0.416992 11.825V89.175C0.416992 95.1869 5.31335 100.083 11.3253 100.083H88.6753C94.6873 100.083 99.5837 95.1869 99.5837 89.175V11.825C99.5837 5.81298 94.6873 0.916626 88.6753 0.916626ZM80.866 66.4906H72.0649V63.2057C72.0649 58.3713 68.0983 54.4047 63.2639 54.4047H54.4008V66.4286H45.5998V45.5416L27.9977 49.5703V66.4906H19.1967V42.5666L54.4628 34.5713V45.6656H63.3258C73.0566 45.6656 80.9279 53.5369 80.9279 63.2677V66.5526L80.866 66.4906Z" fill="#BFC6DA"/>
</g>
<defs>
<clipPath id="clip0_1927_4410">
<rect width="99.1667" height="99.1667" fill="white" transform="translate(0.416992 0.916626)"/>
</clipPath>
</defs>
</svg>
