<svg width="32" height="32" viewBox="0 0 32 32" fill="none" xmlns="http://www.w3.org/2000/svg">
<g id="printer">
<path id="Vector" d="M22.6667 22.6667H25.3333C26.0406 22.6667 26.7189 22.3857 27.219 21.8856C27.719 21.3855 28 20.7072 28 20V14.6667C28 13.9594 27.719 13.2811 27.219 12.781C26.7189 12.281 26.0406 12 25.3333 12H6.66667C5.95942 12 5.28115 12.281 4.78105 12.781C4.28095 13.2811 4 13.9594 4 14.6667V20C4 20.7072 4.28095 21.3855 4.78105 21.8856C5.28115 22.3857 5.95942 22.6667 6.66667 22.6667H9.33333M22.6667 12V6.66667C22.6667 5.95942 22.3857 5.28115 21.8856 4.78105C21.3855 4.28095 20.7072 4 20 4H12C11.2928 4 10.6145 4.28095 10.1144 4.78105C9.61428 5.28115 9.33333 5.95942 9.33333 6.66667V12M9.33333 20C9.33333 19.2928 9.61428 18.6145 10.1144 18.1144C10.6145 17.6143 11.2928 17.3333 12 17.3333H20C20.7072 17.3333 21.3855 17.6143 21.8856 18.1144C22.3857 18.6145 22.6667 19.2928 22.6667 20V25.3333C22.6667 26.0406 22.3857 26.7189 21.8856 27.219C21.3855 27.719 20.7072 28 20 28H12C11.2928 28 10.6145 27.719 10.1144 27.219C9.61428 26.7189 9.33333 26.0406 9.33333 25.3333V20Z" stroke="#BFC6DA" stroke-width="2" stroke-linecap="round" stroke-linejoin="round"/>
</g>
</svg>
