<svg width="24" height="24" viewBox="0 0 24 24" fill="none" xmlns="http://www.w3.org/2000/svg">
<g clip-path="url(#clip0_1301_4643)">
<path d="M21.8235 9.41177C21.8235 7.88235 20.6471 6.70588 19.1176 6.70588H19V4.82353L16.1765 2H5.82353V6.58824C4.17647 6.58824 3 7.88235 3 9.41177V14.9412H5.82353V19.0588C5.82353 20.7059 7.11765 22 8.76471 22H15.9412C17.5882 22 18.8824 20.7059 18.8824 19.0588V14.9412H21.8235V9.41177ZM7 3.17647H15.7059L17.7059 5.29412V6.58824H7V3.17647ZM17.7059 19.0588C17.7059 20 16.8824 20.8235 15.9412 20.8235H8.76471C7.82353 20.8235 7 20 7 19.0588V14.9412H17.8235V19.0588H17.7059ZM19.2353 9.29412H16.4118C16.1765 9.29412 15.9412 9.05882 15.9412 8.82353C15.9412 8.58824 16.1765 8.23529 16.5294 8.23529H19.3529C19.7059 8.23529 19.9412 8.47059 19.9412 8.82353C19.9412 9.17647 19.5882 9.29412 19.2353 9.29412Z" fill="#011120"/>
<path d="M16.294 15.4117H8.5293V16.5882H16.294V15.4117Z" fill="#011120"/>
<path d="M16.294 18.353H8.5293V19.5294H16.294V18.353Z" fill="#011120"/>
</g>
<defs>
<clipPath id="clip0_1301_4643">
<rect width="18.8235" height="20" fill="white" transform="translate(3 2)"/>
</clipPath>
</defs>
</svg>
