<svg width="36" height="36" viewBox="0 0 36 36" fill="none" xmlns="http://www.w3.org/2000/svg">
<g clip-path="url(#clip0_1301_4062)">
<path d="M30 3H6C4.3125 3 3 4.3125 3 6V30.1875C3 31.6875 4.3125 33 6 33H30.1875C31.875 33 33.1875 31.6875 33.1875 30V6C33 4.3125 31.6875 3 30 3ZM12 25.6875C12 26.8125 11.25 27.5625 10.125 27.5625C9 27.5625 8.25 26.8125 8.25 25.6875V21.75C8.25 20.625 9 19.875 10.125 19.875C11.25 19.875 12 20.625 12 21.75V25.6875ZM19.875 25.6875C19.875 26.8125 19.125 27.5625 18 27.5625C16.875 27.5625 16.125 26.8125 16.125 25.6875V10.3125C16.125 9.1875 16.875 8.4375 18 8.4375C19.125 8.4375 19.875 9.1875 19.875 10.3125V25.6875ZM27.75 25.6875C27.75 26.8125 27 27.5625 25.875 27.5625C24.75 27.5625 24 26.8125 24 25.6875V14.8125C24 13.6875 24.75 12.9375 25.875 12.9375C27 12.9375 27.75 13.6875 27.75 14.8125V25.6875Z" fill="white"/>
</g>
<defs>
<clipPath id="clip0_1301_4062">
<rect width="30" height="30" fill="white" transform="translate(3 3)"/>
</clipPath>
</defs>
</svg>
