<svg width="83" height="110" viewBox="0 0 83 110" fill="none" xmlns="http://www.w3.org/2000/svg">
<g clip-path="url(#clip0_2621_21201)">
<path d="M67.2117 108.391H15.7881C10.2591 108.391 5.94448 103.531 6.55172 97.9956L12.4324 44.1864C12.9437 39.4555 16.9387 35.8511 21.6688 35.8511H61.2672C65.9972 35.8511 69.9922 39.4555 70.5036 44.1864L76.4162 97.9634C77.0234 103.499 72.7088 108.358 67.1798 108.358L67.2117 108.391Z" fill="#011120"/>
<path d="M67.2117 110H15.7881C12.688 110 9.71571 108.68 7.67027 106.331C5.59287 104.014 4.60212 100.892 4.95367 97.8028L10.8663 44.0257C11.4735 38.4581 16.1397 34.2422 21.7007 34.2422H61.2991C66.8601 34.2422 71.5263 38.4581 72.1335 44.0257L78.0461 97.8028C78.3977 100.892 77.4069 104.014 75.3295 106.331C73.2521 108.648 70.3118 110 67.2117 110ZM21.7007 37.4604C17.7696 37.4604 14.4777 40.4212 14.0303 44.3797L8.11771 98.1568C7.86203 100.345 8.56515 102.534 10.0353 104.175C11.5055 105.816 13.5829 106.75 15.7881 106.75H67.2117C69.3849 106.75 71.4943 105.816 72.9645 104.175C74.4346 102.534 75.1058 100.345 74.8821 98.1568L68.9695 44.3797C68.554 40.4534 65.2301 37.4604 61.2991 37.4604H21.7007Z" fill="#011120"/>
<path d="M67.2117 105.559H15.7881C10.2591 105.559 5.94448 100.699 6.55172 95.1636L12.4324 41.3866C12.9437 36.6557 16.9387 33.0513 21.6688 33.0513H61.2672C65.9972 33.0513 69.9922 36.6557 70.5036 41.3866L76.4162 95.1636C77.0234 100.699 72.7088 105.559 67.1798 105.559H67.2117Z" fill="#00B2FF"/>
<path d="M67.2117 107.168H15.7881C12.688 107.168 9.71571 105.848 7.67027 103.499C5.59287 101.182 4.60212 98.0602 4.95367 94.9707L10.8663 41.1937C11.4735 35.6261 16.1397 31.4102 21.7007 31.4102H61.2991C66.8601 31.4102 71.5263 35.6261 72.1335 41.1937L78.0461 94.9707C78.3977 98.0602 77.4069 101.182 75.3295 103.499C73.2521 105.816 70.3118 107.168 67.2117 107.168ZM21.7007 34.6284C17.7696 34.6284 14.4777 37.5892 14.0303 41.5477L8.11771 95.3247C7.86203 97.5131 8.56515 99.7016 10.0353 101.343C11.5055 102.984 13.5829 103.917 15.7881 103.917H67.2117C69.3849 103.917 71.4943 102.984 72.9645 101.343C74.4346 99.7016 75.1058 97.5131 74.8821 95.3247L68.9695 41.5477C68.554 37.6214 65.2301 34.6284 61.2991 34.6284H21.7007Z" fill="#011120"/>
<path d="M69.0973 98.1573H13.9025C7.95794 98.1573 3.32374 92.9437 3.9949 86.9899L10.323 29.2866C10.8983 24.2018 15.1489 20.3398 20.2306 20.3398H62.7373C67.8189 20.3398 72.1016 24.2018 72.6449 29.2866L78.973 86.9899C79.6122 92.9437 75.0099 98.1573 69.0654 98.1573H69.0973Z" fill="#011120"/>
<path d="M69.0974 99.7662H13.9025C10.6107 99.7662 7.47859 98.3502 5.27335 95.8721C3.06812 93.3941 2.0454 90.1114 2.39696 86.8288L8.72503 29.1255C9.36423 23.2039 14.318 18.7627 20.2306 18.7627H62.7374C68.6499 18.7627 73.6037 23.2361 74.2429 29.1255L80.571 86.8288C80.9226 90.1114 79.8998 93.4262 77.6946 95.8721C75.4894 98.3502 72.3573 99.7662 69.0654 99.7662H69.0974ZM20.2626 21.9488C15.9799 21.9488 12.4004 25.167 11.921 29.4473L5.56099 87.1828C5.30531 89.5643 6.07235 91.9458 7.63839 93.7481C9.23639 95.5181 11.5055 96.548 13.8706 96.548H69.0974C71.4944 96.548 73.7635 95.5181 75.3296 93.7481C76.9276 91.978 77.6627 89.5643 77.407 87.1828L71.0789 29.4795C70.5995 25.1992 67.02 21.981 62.7374 21.981H20.2626V21.9488Z" fill="#011120"/>
<path d="M69.0973 95.1319H13.9025C7.95794 95.1319 3.32374 89.9183 3.9949 83.9645L10.323 26.2612C10.8983 21.1764 15.1489 17.3145 20.2306 17.3145H62.7373C67.8189 17.3145 72.1016 21.1764 72.6449 26.2612L78.973 83.9645C79.6122 89.9183 75.0099 95.1319 69.0654 95.1319H69.0973Z" fill="#00B2FF"/>
<path d="M69.0974 96.7408H13.9026C10.6107 96.7408 7.47861 95.3248 5.27338 92.8467C3.06814 90.3687 2.01346 87.0861 2.39698 83.7712L8.72505 26.1001C9.36425 20.1785 14.318 15.7373 20.2306 15.7373H62.7374C68.65 15.7373 73.6038 20.2107 74.243 26.1323L80.571 83.8356C80.9226 87.1182 79.8679 90.433 77.6946 92.9111C75.4894 95.3892 72.3573 96.8052 69.0654 96.8052L69.0974 96.7408ZM20.2626 18.9234C15.98 18.9234 12.4004 22.1416 11.921 26.4219L5.56102 84.1574C5.30534 86.5389 6.07237 88.9205 7.63841 90.7227C9.23641 92.4927 11.5056 93.5226 13.8706 93.5226H69.0974C71.4944 93.5226 73.7636 92.4927 75.3296 90.7227C76.9276 88.9526 77.6627 86.5389 77.407 84.1574L71.0789 26.4541C70.5995 22.1738 67.02 18.9556 62.7374 18.9556H20.2626V18.9234Z" fill="#011120"/>
<path d="M70.7912 87.472H12.2086C5.8805 87.472 0.990628 81.9366 1.66179 75.6288L8.40534 14.321C9.01258 8.91433 13.5509 4.82715 18.9521 4.82715H64.0796C69.4808 4.82715 74.0191 8.91433 74.6264 14.321L81.3699 75.5966C82.073 81.9044 77.1512 87.4398 70.8231 87.4398L70.7912 87.472Z" fill="#011120"/>
<path d="M70.7913 89.0813H12.2087C8.757 89.0813 5.43316 87.6009 3.13204 84.9942C0.830926 82.3874 -0.287672 78.9117 0.0958472 75.4359L6.80744 14.1603C7.4786 7.91692 12.6881 3.21826 18.9203 3.21826H64.0477C70.2799 3.21826 75.4894 7.91692 76.1605 14.1603L82.9041 75.4359C83.2876 78.9117 82.169 82.3874 79.8679 84.9942C77.5668 87.6009 74.2429 89.0813 70.7913 89.0813ZM18.9203 6.43652C14.318 6.43652 10.4828 9.91224 9.97147 14.5143L3.25988 75.7899C2.97224 78.3324 3.8032 80.907 5.49708 82.8379C7.19096 84.7689 9.65187 85.8631 12.2087 85.8631H70.7913C73.3481 85.8631 75.777 84.7689 77.5029 82.8379C79.1967 80.907 80.0277 78.3645 79.7401 75.7899L72.9965 14.5143C72.4851 9.91224 68.65 6.43652 64.0477 6.43652H18.9203Z" fill="#011120"/>
<path d="M70.7912 84.2537H12.2086C5.8805 84.2537 0.990628 78.7183 1.66179 72.4105L8.40534 11.1027C9.01258 5.69607 13.5509 1.60889 18.9521 1.60889H64.0796C69.4808 1.60889 74.0191 5.69607 74.6264 11.1027L81.3699 72.3783C82.073 78.6861 77.1512 84.2215 70.8231 84.2215L70.7912 84.2537Z" fill="#00B2FF"/>
<path d="M70.7913 85.8631H12.2087C8.757 85.8631 5.43316 84.3827 3.13204 81.7759C0.830926 79.1691 -0.287672 75.6934 0.0958472 72.2177L6.80744 10.9421C7.4786 4.69865 12.6881 0 18.9203 0H64.0477C70.2799 0 75.4894 4.69865 76.1605 10.9421L82.9041 72.2177C83.2876 75.6934 82.169 79.1691 79.8679 81.7759C77.5668 84.3827 74.2429 85.8631 70.7913 85.8631ZM18.9203 3.21826C14.318 3.21826 10.4828 6.69397 9.97147 11.2961L3.25988 72.5717C2.97224 75.1141 3.8032 77.6887 5.49708 79.6197C7.19096 81.5506 9.65187 82.6448 12.2087 82.6448H70.7913C73.3481 82.6448 75.777 81.5506 77.5029 79.6197C79.1967 77.6887 80.0277 75.1463 79.7401 72.5717L72.9965 11.2961C72.4851 6.69397 68.65 3.21826 64.0477 3.21826H18.9203Z" fill="#011120"/>
<path d="M40.8448 29.2216C40.6211 29.2216 40.3973 29.1572 40.1736 29.0607L23.7782 21.3368C23.2029 21.0794 22.8513 20.5001 22.8513 19.8886C22.8513 19.2772 23.2029 18.6979 23.7782 18.4404L40.1736 10.7166C40.5891 10.5235 41.1005 10.5235 41.5159 10.7166L57.9114 18.4404C58.4867 18.6979 58.8382 19.2772 58.8382 19.8886C58.8382 20.5001 58.4867 21.0794 57.9114 21.3368L41.5159 29.0607C41.2922 29.1572 41.0685 29.2216 40.8448 29.2216ZM28.2206 19.8886L40.8448 25.8424L53.469 19.8886L40.8448 13.9349L28.2206 19.8886Z" fill="white"/>
<path d="M40.8448 47.7586C40.6211 47.7586 40.3973 47.6943 40.1736 47.5977L23.7782 39.8739C23.2029 39.6164 22.8513 39.0372 22.8513 38.4257V19.8885C22.8513 19.3414 23.139 18.8265 23.5864 18.5369C24.0658 18.2472 24.6411 18.215 25.1205 18.4403L41.5159 26.1641C42.0912 26.4216 42.4428 27.0009 42.4428 27.6123V46.1495C42.4428 46.6966 42.1551 47.2115 41.7077 47.5012C41.452 47.6621 41.1644 47.7586 40.8448 47.7586ZM26.0473 37.3958L39.2468 43.6071V28.6422L26.0473 22.431V37.3958Z" fill="white"/>
<path d="M40.8448 47.7586C40.5572 47.7586 40.2376 47.6621 39.9819 47.5012C39.5345 47.2115 39.2468 46.6966 39.2468 46.1495V27.6123C39.2468 27.0009 39.5984 26.4216 40.1737 26.1641L56.5691 18.4403C57.0805 18.215 57.6238 18.2472 58.1032 18.5369C58.5506 18.8265 58.8383 19.3414 58.8383 19.8885V38.4257C58.8383 39.0372 58.4867 39.6164 57.9114 39.8739L41.516 47.5977C41.2923 47.6943 41.0685 47.7586 40.8448 47.7586ZM42.4428 28.6422V43.6071L55.6423 37.3958V22.431L42.4428 28.6422Z" fill="white"/>
</g>
<defs>
<clipPath id="clip0_2621_21201">
<rect width="83" height="110" fill="white"/>
</clipPath>
</defs>
</svg>
