<svg width="113" height="109" viewBox="0 0 113 109" fill="none" xmlns="http://www.w3.org/2000/svg">
<g clip-path="url(#clip0_2523_33282)">
<path d="M74.6392 82.9971H13.7085V21.7051H87.515C92.2288 21.7051 95.6602 26.1182 94.4275 30.597L81.5518 77.7636C80.7023 80.8479 77.8707 82.9807 74.6392 82.9807V82.9971Z" fill="#BFC6DA"/>
<path d="M74.6393 84.6376H12.0596V20.0645H87.5151C90.2801 20.0645 92.8453 21.3113 94.5276 23.4769C96.2099 25.6424 96.7596 28.3986 96.0434 31.0235L83.1676 78.1901C82.1349 81.9799 78.6203 84.6212 74.6393 84.6212V84.6376ZM15.3909 81.3564H74.6393C77.1212 81.3564 79.3032 79.7159 79.9529 77.3534L92.8286 30.1868C93.2783 28.5462 92.9285 26.84 91.8792 25.4784C90.8298 24.1331 89.2474 23.362 87.5151 23.362H15.3909V81.3564Z" fill="#011120"/>
<path d="M91.2962 82.9971H33.9634V21.7051H104.172C108.886 21.7051 112.317 26.1182 111.085 30.597L98.2088 77.7636C97.3593 80.8479 94.5277 82.9807 91.2962 82.9807V82.9971Z" fill="#F1F3F8"/>
<path d="M91.2964 84.6376H32.2979V20.0645H104.172C106.937 20.0645 109.502 21.3113 111.185 23.4769C112.867 25.6424 113.417 28.3986 112.7 31.0235L99.8247 78.1901C98.792 81.9799 95.2774 84.6212 91.2964 84.6212V84.6376ZM35.6292 81.3564H91.2964C93.7783 81.3564 95.9603 79.7159 96.6099 77.3534L109.486 30.1868C109.935 28.5462 109.586 26.84 108.536 25.4784C107.487 24.1331 105.904 23.362 104.172 23.362H35.6292V81.3564Z" fill="#011120"/>
<path d="M13.7252 23.3454C12.8091 23.3454 12.0596 22.6072 12.0596 21.7048V13.502C12.0596 7.85837 7.39564 3.26475 1.66568 3.26475C0.749558 3.26475 0 2.52649 0 1.62417C0 0.721854 0.749558 0 1.66568 0C9.22789 0 15.3909 6.05373 15.3909 13.5184V21.7213C15.3909 22.6236 14.6414 23.3618 13.7252 23.3618V23.3454Z" fill="#011120"/>
<path d="M33.9635 23.3452C33.0473 23.3452 32.2978 22.607 32.2978 21.7046V13.5018C32.2978 7.85817 27.6339 3.26455 21.9206 3.26455C21.0044 3.26455 20.2549 2.52629 20.2549 1.62398C20.2549 0.721658 21.0044 -0.0166016 21.9206 -0.0166016C29.4828 -0.0166016 35.6291 6.03713 35.6291 13.5018V21.7046C35.6291 22.607 34.8796 23.3452 33.9635 23.3452Z" fill="#011120"/>
<path d="M90.6631 109C94.398 109 97.4257 106.018 97.4257 102.339C97.4257 98.6608 94.398 95.6787 90.6631 95.6787C86.9281 95.6787 83.9004 98.6608 83.9004 102.339C83.9004 106.018 86.9281 109 90.6631 109Z" fill="#011120"/>
<path d="M48.2549 109C51.9898 109 55.0175 106.018 55.0175 102.339C55.0175 98.6608 51.9898 95.6787 48.2549 95.6787C44.5199 95.6787 41.4922 98.6608 41.4922 102.339C41.4922 106.018 44.5199 109 48.2549 109Z" fill="#011120"/>
<path d="M72.6406 109C75.8052 109 78.3706 106.473 78.3706 103.356C78.3706 100.24 75.8052 97.7129 72.6406 97.7129C69.476 97.7129 66.9106 100.24 66.9106 103.356C66.9106 106.473 69.476 109 72.6406 109Z" fill="#011120"/>
<path d="M28.6997 109C31.8642 109 34.4296 106.473 34.4296 103.356C34.4296 100.24 31.8642 97.7129 28.6997 97.7129C25.5351 97.7129 22.9697 100.24 22.9697 103.356C22.9697 106.473 25.5351 109 28.6997 109Z" fill="#011120"/>
<path d="M70.4252 103.98H27.3839C18.9222 103.98 12.043 97.204 12.043 88.8699V73.268C12.043 72.3657 12.7925 71.6274 13.7087 71.6274C14.6248 71.6274 15.3743 72.3657 15.3743 73.268V88.8699C15.3743 95.383 20.7545 100.698 27.3839 100.698H70.4252C71.3413 100.698 72.0909 101.437 72.0909 102.339C72.0909 103.241 71.3413 103.98 70.4252 103.98Z" fill="#011120"/>
<path d="M90.663 103.98H47.6217C39.16 103.98 32.2808 97.204 32.2808 88.8699V73.268C32.2808 72.3657 33.0303 71.6274 33.9464 71.6274C34.8626 71.6274 35.6121 72.3657 35.6121 73.268V88.8699C35.6121 95.383 40.9923 100.698 47.6217 100.698H90.663C91.5791 100.698 92.3287 101.437 92.3287 102.339C92.3287 103.241 91.5791 103.98 90.663 103.98Z" fill="#011120"/>
</g>
<defs>
<clipPath id="clip0_2523_33282">
<rect width="113" height="109" fill="white"/>
</clipPath>
</defs>
</svg>
