<svg width="683" height="255" viewBox="0 0 683 255" fill="none" xmlns="http://www.w3.org/2000/svg">
<g clip-path="url(#clip0_3900_16052)">
<path d="M419.81 223.547C396.316 229.528 371.684 229.528 348.19 223.547C338.039 220.971 330.908 211.846 330.908 201.368V181.809H437.048V201.368C437.048 211.846 429.917 220.971 419.767 223.547H419.81Z" fill="#011120"/>
<path d="M478.962 207.262H289.038C277.532 207.262 269.656 197.526 271.45 185.826L286.326 87.4634C287.638 78.9063 296.345 72.1393 305.795 72.1393H462.205C471.699 72.1393 480.406 78.9063 481.675 87.4634L496.594 185.826C498.344 197.526 490.512 207.262 479.006 207.262H478.962Z" fill="#2A547B"/>
<path d="M478.962 209.445H289.038C283 209.445 277.619 207.044 273.9 202.722C270.006 198.181 268.3 191.938 269.306 185.52L284.182 87.1578C285.626 77.5529 295.12 70 305.839 70H462.205C472.881 70 482.375 77.5529 483.862 87.1578L498.781 185.52C499.744 191.938 498.081 198.181 494.187 202.722C490.425 207.088 485.043 209.445 479.05 209.445H478.962ZM305.839 74.3658C297.395 74.3658 289.651 80.3907 288.513 87.8127L273.594 186.175C272.806 191.371 274.075 196.26 277.225 199.884C280.113 203.246 284.313 205.123 289.038 205.123H478.962C483.687 205.123 487.887 203.289 490.775 199.884C493.881 196.26 495.194 191.414 494.406 186.175L479.487 87.8127C478.35 80.3907 470.606 74.3658 462.162 74.3658H305.839Z" fill="#2A547B"/>
<path d="M478.962 199.84H289.038C277.532 199.84 269.656 190.628 271.45 179.583L286.326 86.6339C287.638 78.5571 296.345 72.1829 305.839 72.1829H462.205C471.699 72.1829 480.406 78.5571 481.675 86.6339L496.594 179.583C498.344 190.628 490.512 199.84 479.006 199.84H478.962Z" fill="#00B2FF"/>
<path d="M478.962 202.023H289.038C282.782 202.023 277.269 199.622 273.55 195.212C269.875 190.89 268.344 185.215 269.306 179.277L284.182 86.2846C285.626 77.16 295.163 70 305.839 70H462.205C472.881 70 482.375 77.16 483.862 86.2846L498.781 179.233C499.744 185.171 498.213 190.847 494.537 195.169C490.775 199.578 485.262 201.98 479.05 201.98L478.962 202.023ZM305.839 74.3658C297.395 74.3658 289.651 80.0414 288.513 86.9831L273.594 179.932C272.85 184.603 273.988 189.013 276.875 192.375C279.807 195.78 284.138 197.657 289.038 197.657H478.962C483.906 197.657 488.237 195.78 491.125 192.375C493.969 189.013 495.15 184.603 494.406 179.932L479.487 86.9831C478.393 80.0414 470.606 74.3658 462.162 74.3658H305.839Z" fill="#0C2F50"/>
<path d="M419.023 183.992C417.842 183.992 416.879 183.075 416.835 181.897L411.979 84.2763C411.935 83.0539 412.854 82.0497 414.035 82.0061C415.26 81.9188 416.267 82.8792 416.31 84.058L421.167 181.678C421.211 182.901 420.292 183.905 419.11 183.949H419.023V183.992Z" fill="white"/>
<path d="M482.025 179.583H437.88C436.655 179.583 435.692 178.622 435.692 177.4C435.692 176.177 436.655 175.217 437.88 175.217H482.025C483.25 175.217 484.212 176.177 484.212 177.4C484.212 178.622 483.25 179.583 482.025 179.583Z" fill="white"/>
<path d="M396.229 132.956H298.138C296.913 132.956 295.951 131.995 295.951 130.773C295.951 129.55 296.913 128.59 298.138 128.59H396.229C397.454 128.59 398.416 129.55 398.416 130.773C398.416 131.995 397.454 132.956 396.229 132.956Z" fill="white"/>
<path d="M395.879 114.575H300.545C299.32 114.575 298.357 113.615 298.357 112.392C298.357 111.17 299.32 110.209 300.545 110.209H395.879C397.104 110.209 398.066 111.17 398.066 112.392C398.066 113.615 397.104 114.575 395.879 114.575Z" fill="white"/>
<path d="M395.572 97.1556H302.82C301.595 97.1556 300.632 96.1951 300.632 94.9727C300.632 93.7502 301.595 92.7897 302.82 92.7897H395.572C396.797 92.7897 397.76 93.7502 397.76 94.9727C397.76 96.1951 396.797 97.1556 395.572 97.1556Z" fill="white"/>
</g>
<g opacity="0.25" filter="url(#filter0_dd_3900_16052)">
<path d="M516 184.2C516 180.224 519.21 177 523.171 177H674.829C678.79 177 682 180.224 682 184.2V205.8C682 209.776 678.79 213 674.829 213H523.171C519.21 213 516 209.776 516 205.8V184.2Z" fill="white"/>
<path d="M520.661 185.64C520.661 183.254 522.587 181.32 524.963 181.32H543.607C545.983 181.32 547.909 183.254 547.909 185.64V204.36C547.909 206.746 545.983 208.68 543.607 208.68H524.963C522.587 208.68 520.661 206.746 520.661 204.36V185.64Z" fill="#F61D51"/>
<path d="M538.517 189.73C538.452 189.636 538.377 189.549 538.293 189.472C538.159 189.35 538.051 189.206 537.97 189.048C537.863 188.837 537.804 188.602 537.804 188.36V187.415H530.775V188.36C530.775 188.528 530.748 188.692 530.695 188.847C530.614 189.084 530.474 189.3 530.286 189.473C530.228 189.527 530.174 189.585 530.124 189.647C529.914 189.912 529.798 190.242 529.798 190.586V199.456C529.798 200.545 531.809 201.429 534.289 201.429C536.769 201.429 538.78 200.545 538.78 199.456V190.585C538.78 190.277 538.687 189.979 538.516 189.731L538.517 189.73Z" fill="#FFE6B5"/>
<path d="M534.29 192.861C531.81 192.861 529.799 191.978 529.799 190.889V199.456C529.799 200.545 531.81 201.429 534.29 201.429C536.77 201.429 538.781 200.545 538.781 199.456V190.889C538.781 191.978 536.77 192.861 534.29 192.861Z" fill="#FFC24B"/>
<path d="M534.29 194.834C531.81 194.834 529.799 193.95 529.799 192.861V196.805C529.799 197.894 531.81 198.777 534.29 198.777C536.77 198.777 538.781 197.894 538.781 196.805V192.861C538.781 193.95 536.77 194.834 534.29 194.834Z" fill="#FFFAF0"/>
<path d="M534.29 192.861C536.77 192.861 538.781 191.978 538.781 190.889C538.781 189.799 536.771 188.916 534.29 188.916C531.81 188.916 529.799 189.799 529.799 190.889C529.799 191.978 531.81 192.861 534.29 192.861Z" fill="#FFB931"/>
<path d="M534.285 189.004C536.229 189.004 537.806 188.312 537.806 187.459C537.806 186.605 536.229 185.913 534.285 185.913C532.341 185.913 530.764 186.605 530.764 187.459C530.764 188.312 532.341 189.004 534.285 189.004Z" fill="#2A547B"/>
<path d="M537.806 186.465H530.766V187.459H537.806V186.465Z" fill="#2A547B"/>
<path d="M534.285 188.01C536.229 188.01 537.806 187.319 537.806 186.465C537.806 185.612 536.229 184.92 534.285 184.92C532.341 184.92 530.764 185.612 530.764 186.465C530.764 187.319 532.341 188.01 534.285 188.01Z" fill="#C1CBEA"/>
<path d="M534.285 188.86C532.396 188.86 530.855 188.207 530.77 187.387C530.767 187.41 530.766 187.435 530.766 187.459C530.766 188.312 532.341 189.004 534.286 189.004C536.231 189.004 537.807 188.312 537.807 187.459C537.807 187.434 537.806 187.41 537.803 187.387C537.718 188.207 536.176 188.86 534.288 188.86H534.285Z" fill="#011120"/>
<path d="M543.344 193.381C543.279 193.287 543.204 193.201 543.12 193.123C542.986 193.001 542.877 192.857 542.797 192.7C542.69 192.489 542.631 192.253 542.631 192.012V191.067H535.602V192.012C535.602 192.18 535.574 192.343 535.521 192.498C535.441 192.735 535.301 192.951 535.113 193.124C535.055 193.178 535 193.236 534.951 193.299C534.741 193.564 534.625 193.894 534.625 194.237V203.109C534.625 204.198 536.636 205.081 539.116 205.081C541.596 205.081 543.607 204.198 543.607 203.109V194.236C543.607 193.928 543.514 193.63 543.343 193.383L543.344 193.381Z" fill="#FFE6B5"/>
<path d="M539.116 196.512C536.636 196.512 534.625 195.629 534.625 194.54V203.108C534.625 204.197 536.636 205.08 539.116 205.08C541.596 205.08 543.607 204.197 543.607 203.108V194.54C543.607 195.629 541.596 196.512 539.116 196.512Z" fill="#FFC24B"/>
<path d="M539.116 198.485C536.636 198.485 534.625 197.602 534.625 196.512V200.456C534.625 201.545 536.636 202.429 539.116 202.429C541.596 202.429 543.607 201.545 543.607 200.456V196.512C543.607 197.602 541.596 198.485 539.116 198.485Z" fill="#FFFAF0"/>
<path d="M539.116 196.512C541.596 196.512 543.607 195.629 543.607 194.54C543.607 193.451 541.596 192.567 539.116 192.567C536.635 192.567 534.625 193.451 534.625 194.54C534.625 195.629 536.636 196.512 539.116 196.512Z" fill="#FFB931"/>
<path d="M539.111 192.657C541.055 192.657 542.631 191.965 542.631 191.111C542.631 190.258 541.055 189.566 539.111 189.566C537.166 189.566 535.59 190.258 535.59 191.111C535.59 191.965 537.166 192.657 539.111 192.657Z" fill="#2A547B"/>
<path d="M542.631 190.117H535.591V191.11H542.631V190.117Z" fill="#2A547B"/>
<path d="M539.111 191.662C541.055 191.662 542.631 190.97 542.631 190.117C542.631 189.263 541.055 188.571 539.111 188.571C537.166 188.571 535.59 189.263 535.59 190.117C535.59 190.97 537.166 191.662 539.111 191.662Z" fill="#C1CBEA"/>
<path d="M539.111 192.511C537.221 192.511 535.681 191.858 535.595 191.038C535.593 191.062 535.591 191.086 535.591 191.11C535.591 191.963 537.167 192.655 539.112 192.655C541.057 192.655 542.632 191.963 542.632 191.11C542.632 191.085 542.631 191.062 542.629 191.038C542.543 191.858 541.001 192.511 539.113 192.511H539.111Z" fill="#011120"/>
<path d="M533.683 193.381C533.618 193.287 533.543 193.201 533.458 193.123C533.325 193.001 533.216 192.857 533.136 192.7C533.028 192.489 532.97 192.253 532.97 192.012V191.067H525.94V192.012C525.94 192.18 525.913 192.343 525.86 192.498C525.78 192.735 525.64 192.951 525.452 193.124C525.393 193.178 525.339 193.236 525.29 193.299C525.08 193.564 524.963 193.894 524.963 194.237V203.109C524.963 204.198 526.974 205.081 529.454 205.081C531.935 205.081 533.946 204.198 533.946 203.109V194.236C533.946 193.928 533.852 193.63 533.681 193.383L533.683 193.381Z" fill="#FFE6B5"/>
<path d="M529.454 196.512C526.974 196.512 524.963 195.629 524.963 194.54V203.108C524.963 204.197 526.974 205.08 529.454 205.08C531.935 205.08 533.946 204.197 533.946 203.108V194.54C533.946 195.629 531.935 196.512 529.454 196.512Z" fill="#FFC24B"/>
<path d="M529.454 198.485C526.974 198.485 524.963 197.602 524.963 196.512V200.456C524.963 201.545 526.974 202.429 529.454 202.429C531.935 202.429 533.946 201.545 533.946 200.456V196.512C533.946 197.602 531.935 198.485 529.454 198.485Z" fill="#FFFAF0"/>
<path d="M529.454 196.512C531.935 196.512 533.946 195.629 533.946 194.54C533.946 193.451 531.935 192.567 529.454 192.567C526.974 192.567 524.963 193.451 524.963 194.54C524.963 195.629 526.974 196.512 529.454 196.512Z" fill="#FFB931"/>
<path d="M529.451 192.657C531.395 192.657 532.971 191.965 532.971 191.111C532.971 190.258 531.395 189.566 529.451 189.566C527.506 189.566 525.93 190.258 525.93 191.111C525.93 191.965 527.506 192.657 529.451 192.657Z" fill="#2A547B"/>
<path d="M532.97 190.117H525.93V191.11H532.97V190.117Z" fill="#2A547B"/>
<path d="M529.451 191.662C531.395 191.662 532.971 190.97 532.971 190.117C532.971 189.263 531.395 188.571 529.451 188.571C527.506 188.571 525.93 189.263 525.93 190.117C525.93 190.97 527.506 191.662 529.451 191.662Z" fill="#C1CBEA"/>
<path d="M529.451 192.511C527.561 192.511 526.021 191.858 525.935 191.038C525.933 191.062 525.931 191.086 525.931 191.11C525.931 191.963 527.507 192.655 529.452 192.655C531.397 192.655 532.972 191.963 532.972 191.11C532.972 191.085 532.971 191.062 532.969 191.038C532.883 191.858 531.341 192.511 529.453 192.511H529.451Z" fill="#011120"/>
<path d="M558.429 184.92H559.311V189.96H558.486V186.367L556.959 188.902H556.858L555.331 186.36V189.96H554.506V184.92H555.395L556.908 187.44L558.429 184.92Z" fill="#011120"/>
<path d="M560.993 185.676C560.799 185.87 560.498 185.87 560.297 185.676C560.103 185.474 560.103 185.172 560.297 184.978C560.491 184.776 560.806 184.776 561 184.978C561.193 185.172 561.193 185.474 560.993 185.676ZM561.036 189.96H560.261V186.36H561.036V189.96Z" fill="#011120"/>
<path d="M565.398 188.491H562.544C562.659 189.038 563.096 189.341 563.692 189.341C564.1 189.341 564.409 189.19 564.617 188.894L565.255 189.269C564.903 189.794 564.38 190.054 563.684 190.054C563.104 190.054 562.63 189.874 562.272 189.521C561.913 189.161 561.734 188.707 561.734 188.16C561.734 187.62 561.913 187.174 562.265 186.814C562.616 186.446 563.075 186.266 563.627 186.266C564.151 186.266 564.581 186.454 564.918 186.821C565.255 187.188 565.427 187.642 565.427 188.167C565.427 188.246 565.42 188.354 565.398 188.491ZM562.537 187.858H564.645C564.538 187.274 564.129 186.972 563.62 186.972C563.046 186.972 562.645 187.31 562.537 187.858Z" fill="#011120"/>
<path d="M566.883 189.96H566.108V184.704H566.883V189.96Z" fill="#011120"/>
<path d="M655.92 185.388L657.24 184.92H657.957V189.96H657.132V185.806L656.121 186.094L655.92 185.388Z" fill="#5B6874"/>
<path d="M662.202 189.341C661.858 189.816 661.378 190.054 660.754 190.054C660.13 190.054 659.65 189.816 659.298 189.341C658.954 188.866 658.782 188.232 658.782 187.44C658.782 186.648 658.954 186.014 659.298 185.539C659.65 185.064 660.13 184.826 660.754 184.826C661.378 184.826 661.858 185.064 662.202 185.539C662.554 186.014 662.726 186.648 662.726 187.44C662.726 188.232 662.554 188.866 662.202 189.341ZM660.754 189.247C661.5 189.247 661.901 188.599 661.901 187.44C661.901 186.281 661.5 185.633 660.754 185.633C660.015 185.633 659.607 186.281 659.607 187.44C659.607 188.599 660.015 189.247 660.754 189.247Z" fill="#5B6874"/>
<path d="M665.306 184.92H667.156C667.63 184.92 668.024 185.078 668.34 185.395C668.662 185.712 668.82 186.108 668.82 186.576C668.82 187.044 668.662 187.433 668.34 187.757C668.024 188.074 667.63 188.232 667.156 188.232H666.131V189.96H665.306V184.92ZM666.131 187.454H667.156C667.644 187.454 667.995 187.087 667.995 186.576C667.995 186.065 667.644 185.698 667.156 185.698H666.131V187.454Z" fill="#5B6874"/>
<path d="M670.926 190.054C670.403 190.054 669.951 189.874 669.585 189.506C669.219 189.139 669.033 188.693 669.033 188.16C669.033 187.627 669.219 187.181 669.585 186.814C669.951 186.446 670.403 186.266 670.926 186.266C671.457 186.266 671.901 186.446 672.267 186.814C672.633 187.181 672.819 187.627 672.819 188.16C672.819 188.693 672.633 189.139 672.267 189.506C671.901 189.874 671.457 190.054 670.926 190.054ZM670.13 188.974C670.345 189.19 670.61 189.298 670.926 189.298C671.241 189.298 671.507 189.19 671.722 188.974C671.937 188.758 672.045 188.484 672.045 188.16C672.045 187.836 671.937 187.562 671.722 187.346C671.507 187.13 671.241 187.022 670.926 187.022C670.61 187.022 670.345 187.13 670.13 187.346C669.915 187.562 669.807 187.836 669.807 188.16C669.807 188.484 669.915 188.758 670.13 188.974Z" fill="#5B6874"/>
<path d="M674.145 187.354C674.145 187.591 674.446 187.714 674.819 187.822C675.371 187.944 676.088 188.174 676.074 188.945C676.074 189.29 675.937 189.564 675.672 189.758C675.407 189.953 675.077 190.054 674.675 190.054C673.966 190.054 673.442 189.737 673.213 189.211L673.879 188.822C674.001 189.168 674.267 189.341 674.675 189.341C675.084 189.341 675.285 189.204 675.285 188.938C675.285 188.707 674.984 188.57 674.604 188.477C674.066 188.34 673.342 188.124 673.356 187.368C673.356 187.037 673.478 186.77 673.729 186.569C673.98 186.367 674.295 186.266 674.668 186.266C675.263 186.266 675.744 186.547 675.995 187.015L675.342 187.382C675.22 187.109 674.991 186.972 674.668 186.972C674.374 186.972 674.145 187.102 674.145 187.354Z" fill="#5B6874"/>
<path d="M557.037 201.019C557.532 201.293 557.776 201.703 557.776 202.243C557.776 203.165 557.081 203.734 556.019 203.734C555.489 203.734 555.058 203.604 554.736 203.338C554.413 203.071 554.255 202.704 554.255 202.243C554.255 201.725 554.528 201.278 554.994 201.019C554.614 200.767 554.427 200.414 554.427 199.954C554.427 199.493 554.578 199.14 554.886 198.888C555.195 198.636 555.568 198.506 556.019 198.506C556.464 198.506 556.837 198.636 557.145 198.888C557.453 199.14 557.611 199.493 557.611 199.954C557.611 200.414 557.418 200.767 557.037 201.019ZM556.019 199.291C555.568 199.291 555.252 199.536 555.252 199.99C555.252 200.422 555.582 200.688 556.019 200.688C556.45 200.688 556.787 200.422 556.787 199.99C556.787 199.536 556.457 199.291 556.019 199.291ZM556.019 202.949C556.571 202.949 556.951 202.661 556.951 202.164C556.951 201.667 556.571 201.379 556.019 201.379C555.453 201.379 555.08 201.667 555.08 202.164C555.08 202.661 555.453 202.949 556.019 202.949Z" fill="#011120"/>
<path d="M561.731 203.021C561.387 203.496 560.906 203.734 560.283 203.734C559.659 203.734 559.178 203.496 558.827 203.021C558.483 202.546 558.311 201.912 558.311 201.12C558.311 200.328 558.483 199.694 558.827 199.219C559.178 198.744 559.659 198.506 560.283 198.506C560.906 198.506 561.387 198.744 561.731 199.219C562.082 199.694 562.254 200.328 562.254 201.12C562.254 201.912 562.082 202.546 561.731 203.021ZM560.283 202.927C561.028 202.927 561.43 202.279 561.43 201.12C561.43 199.961 561.028 199.313 560.283 199.313C559.544 199.313 559.135 199.961 559.135 201.12C559.135 202.279 559.544 202.927 560.283 202.927Z" fill="#011120"/>
<path d="M564.835 198.6H566.807C567.495 198.6 568.069 198.845 568.521 199.327C568.98 199.81 569.209 200.407 569.209 201.12C569.209 201.826 568.98 202.423 568.521 202.913C568.069 203.395 567.495 203.64 566.807 203.64H564.835V198.6ZM565.66 202.848H566.807C567.28 202.848 567.667 202.682 567.961 202.358C568.263 202.034 568.413 201.617 568.413 201.12C568.413 200.616 568.263 200.206 567.961 199.882C567.667 199.558 567.28 199.392 566.807 199.392H565.66V202.848Z" fill="#011120"/>
<path d="M572.826 199.284L570.575 202.848H572.884V203.64H569.549V202.956L571.801 199.392H569.6V198.6H572.826V199.284Z" fill="#011120"/>
<path d="M573.581 198.6H575.553C576.242 198.6 576.815 198.845 577.267 199.327C577.726 199.81 577.955 200.407 577.955 201.12C577.955 201.826 577.726 202.423 577.267 202.913C576.815 203.395 576.242 203.64 575.553 203.64H573.581V198.6ZM574.406 202.848H575.553C576.026 202.848 576.414 202.682 576.708 202.358C577.009 202.034 577.159 201.617 577.159 201.12C577.159 200.616 577.009 200.206 576.708 199.882C576.414 199.558 576.026 199.392 575.553 199.392H574.406V202.848Z" fill="#011120"/>
</g>
<g opacity="0.45" filter="url(#filter1_dd_3900_16052)">
<path d="M475 9.4C475 4.76081 478.829 1 483.553 1H664.447C669.171 1 673 4.76081 673 9.4V34.6C673 39.2392 669.171 43 664.447 43H483.553C478.829 43 475 39.2392 475 34.6V9.4Z" fill="white"/>
<path d="M480.559 11.08C480.559 8.29648 482.857 6.04 485.691 6.04H507.929C510.763 6.04 513.06 8.29648 513.06 11.08V32.92C513.06 35.7035 510.763 37.96 507.929 37.96H485.691C482.857 37.96 480.559 35.7035 480.559 32.92V11.08Z" fill="#00B2FF"/>
<path d="M500.152 18.1681L499.015 16.3799C498.652 15.8091 498.459 15.1455 498.459 14.4698V10.869H494.809V14.4685C494.809 15.1455 494.616 15.8078 494.253 16.3787L493.116 18.1669C492.753 18.7377 492.56 19.4013 492.56 20.077V29.4217C492.56 30.4853 494.385 31.3477 496.634 31.3477C498.883 31.3477 500.708 30.4853 500.708 29.4217V20.0783C500.708 19.4013 500.515 18.7389 500.152 18.1681Z" fill="#DBF4FF"/>
<path d="M496.635 9.82C495.518 9.82 494.613 10.2481 494.613 10.7763C494.613 10.8153 494.619 10.8544 494.629 10.8922L494.81 12.7304C494.81 13.2073 495.627 13.5927 496.635 13.5927C497.643 13.5927 498.461 13.2061 498.461 12.7304L498.657 10.7763C498.657 10.2481 497.752 9.82 496.635 9.82Z" fill="#7BD7FF"/>
<path d="M498.447 17.2142C497.899 17.285 497.34 17.235 496.814 17.0679L496.743 17.0459C495.909 16.7812 494.82 17.2972 494.008 17.6192C493.725 17.7302 493.29 18.5657 493.29 18.5657C492.944 19.1098 492.761 19.7392 492.761 20.3832V29.2692C492.761 30.2804 494.495 31.1001 496.634 31.1001C498.773 31.1001 500.507 30.2804 500.507 29.2692V20.3832C500.507 19.7404 500.324 19.1098 499.978 18.5657L499.405 17.6631C499.2 17.3399 498.826 17.1654 498.446 17.2142H498.447Z" fill="white"/>
<path d="M499.626 18.0095C499.626 18.0095 499.557 18.5755 498.802 18.6828C498.392 18.7414 497.961 18.5706 497.652 18.4011C497.343 18.2315 496.985 18.2425 496.684 18.4072L496.313 18.6097C496.013 18.7731 495.652 18.7743 495.35 18.6145C495.138 18.5023 494.894 18.4682 494.661 18.5182L493.89 18.6828C493.89 18.6828 493.389 18.4572 493.68 17.951" fill="white"/>
<path d="M498.456 17.2142C497.905 17.2874 497.345 17.2362 496.816 17.0679L496.745 17.0459C496.072 16.8312 495.186 17.0788 494.441 17.3521C494.113 17.4716 493.836 17.696 493.649 17.99H493.654C493.66 17.9778 493.665 17.9668 493.671 17.9546H493.675C493.395 18.4572 493.891 18.6792 493.891 18.6792L494.664 18.5133C494.905 18.4621 495.153 18.5072 495.373 18.6194C495.672 18.7719 496.027 18.767 496.322 18.606L496.695 18.4035C496.997 18.2388 497.365 18.2327 497.666 18.3974C497.968 18.5621 498.409 18.7377 498.82 18.6792C499.579 18.5706 499.648 18.0034 499.648 18.0034L499.42 17.6534C499.213 17.3362 498.843 17.1654 498.467 17.2142H498.456Z" fill="#FFFAF0"/>
<path d="M496.635 23.3155C494.386 23.3155 492.562 22.4531 492.562 21.3895V24.7561C492.562 25.8197 494.386 26.6821 496.635 26.6821C498.885 26.6821 500.709 25.8197 500.709 24.7561V21.3895C500.709 22.4531 498.885 23.3155 496.635 23.3155Z" fill="#FFE6B5"/>
<path d="M500.333 27.553C500.333 27.553 500.307 28.4556 500.333 28.9033C500.358 29.3509 500.3 29.6608 499.976 29.9706C499.652 30.2804 498.888 30.6744 498.467 30.6573C498.045 30.6402 498.789 30.2267 499.558 29.6071C499.975 29.2717 500.066 28.4129 500.058 27.803C500.049 27.1932 500.334 27.5542 500.334 27.5542L500.333 27.553Z" fill="#DBF4FF"/>
<path d="M504.807 20.9992L503.671 19.211C503.308 18.6401 503.115 17.9766 503.115 17.3008V13.7001H499.464V17.2996C499.464 17.9766 499.271 18.6389 498.908 19.2098L497.772 20.998C497.409 21.5688 497.216 22.2324 497.216 22.9081V32.2528C497.216 33.3164 499.04 34.1788 501.289 34.1788C503.539 34.1788 505.363 33.3164 505.363 32.2528V22.9093C505.363 22.2324 505.17 21.57 504.807 20.9992Z" fill="#DBF4FF"/>
<path d="M501.289 12.6523C500.172 12.6523 499.267 13.0804 499.267 13.6086C499.267 13.6476 499.273 13.6867 499.283 13.7245L499.464 15.5627C499.464 16.0396 500.281 16.425 501.289 16.425C502.297 16.425 503.115 16.0384 503.115 15.5627L503.311 13.6086C503.311 13.0804 502.406 12.6523 501.289 12.6523Z" fill="#7BD7FF"/>
<path d="M503.102 20.0465C502.554 20.1173 501.995 20.0673 501.469 19.9002L501.398 19.8782C500.565 19.6135 499.475 20.1295 498.663 20.4515C498.38 20.5625 497.945 21.398 497.945 21.398C497.599 21.9421 497.416 22.5715 497.416 23.2155V32.1015C497.416 33.1127 499.15 33.9324 501.289 33.9324C503.429 33.9324 505.162 33.1127 505.162 32.1015V23.2143C505.162 22.5715 504.979 21.9408 504.633 21.3968L504.06 20.4942C503.855 20.171 503.481 19.9965 503.101 20.0453L503.102 20.0465Z" fill="white"/>
<path d="M504.282 20.8418C504.282 20.8418 504.212 21.4078 503.457 21.5151C503.047 21.5737 502.616 21.4029 502.307 21.2334C501.998 21.0638 501.64 21.0748 501.339 21.2395L500.968 21.442C500.669 21.6054 500.307 21.6066 500.005 21.4468C499.794 21.3346 499.549 21.3005 499.316 21.3505L498.545 21.5151C498.545 21.5151 498.044 21.2895 498.335 20.7833" fill="white"/>
<path d="M503.111 20.0453C502.56 20.1185 502 20.0673 501.471 19.8989L501.4 19.877C500.727 19.6623 499.841 19.9099 499.096 20.1832C498.769 20.3027 498.491 20.5271 498.304 20.8211H498.309C498.315 20.8089 498.32 20.7979 498.326 20.7857H498.33C498.05 21.2883 498.546 21.5103 498.546 21.5103L499.32 21.3444C499.56 21.2931 499.808 21.3383 500.028 21.4505C500.328 21.603 500.682 21.5981 500.978 21.4371L501.35 21.2346C501.652 21.0699 502.02 21.0638 502.322 21.2285C502.623 21.3932 503.065 21.5688 503.475 21.5103C504.234 21.4017 504.304 20.8345 504.304 20.8345L504.075 20.4844C503.869 20.1673 503.498 19.9965 503.122 20.0453H503.111Z" fill="#FFFAF0"/>
<path d="M501.289 26.1478C499.04 26.1478 497.216 25.2854 497.216 24.2218V27.5884C497.216 28.652 499.04 29.5144 501.289 29.5144C503.539 29.5144 505.363 28.652 505.363 27.5884V24.2218C505.363 25.2854 503.539 26.1478 501.289 26.1478Z" fill="#FFE6B5"/>
<path d="M504.987 30.3853C504.987 30.3853 504.961 31.2879 504.987 31.7356C505.012 32.1832 504.954 32.4931 504.63 32.8029C504.306 33.1127 503.542 33.5067 503.121 33.4896C502.699 33.4725 503.443 33.059 504.212 32.4394C504.629 32.104 504.72 31.2452 504.712 30.6353C504.703 30.0255 504.988 30.3865 504.988 30.3865L504.987 30.3853Z" fill="#DBF4FF"/>
<path d="M495.848 20.9992L494.712 19.211C494.349 18.6401 494.156 17.9766 494.156 17.3008V13.7001H490.505V17.2996C490.505 17.9766 490.312 18.6389 489.949 19.2098L488.813 20.998C488.45 21.5688 488.257 22.2324 488.257 22.9081V32.2528C488.257 33.3164 490.081 34.1788 492.331 34.1788C494.58 34.1788 496.404 33.3164 496.404 32.2528V22.9093C496.404 22.2324 496.211 21.57 495.848 20.9992Z" fill="#DBF4FF"/>
<path d="M492.331 12.6523C491.214 12.6523 490.308 13.0804 490.308 13.6086C490.308 13.6476 490.315 13.6867 490.324 13.7245L490.505 15.5627C490.505 16.0396 491.323 16.425 492.331 16.425C493.339 16.425 494.156 16.0384 494.156 15.5627L494.353 13.6086C494.353 13.0804 493.447 12.6523 492.331 12.6523Z" fill="#7BD7FF"/>
<path d="M494.143 20.0465C493.594 20.1173 493.036 20.0673 492.509 19.9002L492.438 19.8782C491.605 19.6135 490.515 20.1295 489.704 20.4515C489.42 20.5625 488.985 21.398 488.985 21.398C488.639 21.9421 488.456 22.5715 488.456 23.2155V32.1015C488.456 33.1127 490.19 33.9324 492.329 33.9324C494.469 33.9324 496.203 33.1127 496.203 32.1015V23.2143C496.203 22.5715 496.019 21.9408 495.674 21.3968L495.101 20.4942C494.895 20.171 494.521 19.9965 494.141 20.0453L494.143 20.0465Z" fill="white"/>
<path d="M495.322 20.8418C495.322 20.8418 495.252 21.4078 494.497 21.5151C494.088 21.5737 493.656 21.4029 493.347 21.2334C493.038 21.0638 492.68 21.0748 492.38 21.2395L492.008 21.442C491.709 21.6054 491.347 21.6066 491.045 21.4468C490.834 21.3346 490.59 21.3005 490.356 21.3505L489.585 21.5151C489.585 21.5151 489.084 21.2895 489.375 20.7833" fill="white"/>
<path d="M494.151 20.0453C493.6 20.1185 493.041 20.0673 492.511 19.8989L492.441 19.877C491.767 19.6623 490.882 19.9099 490.136 20.1832C489.809 20.3027 489.531 20.5271 489.344 20.8211H489.349C489.355 20.8089 489.36 20.7979 489.366 20.7857H489.37C489.09 21.2883 489.586 21.5103 489.586 21.5103L490.36 21.3444C490.601 21.2931 490.849 21.3383 491.068 21.4505C491.368 21.603 491.722 21.5981 492.018 21.4371L492.391 21.2346C492.692 21.0699 493.06 21.0638 493.362 21.2285C493.664 21.3932 494.105 21.5688 494.515 21.5103C495.274 21.4017 495.344 20.8345 495.344 20.8345L495.115 20.4844C494.909 20.1673 494.539 19.9965 494.162 20.0453H494.151Z" fill="#FFFAF0"/>
<path d="M492.331 26.1478C490.081 26.1478 488.257 25.2854 488.257 24.2218V27.5884C488.257 28.652 490.081 29.5144 492.331 29.5144C494.58 29.5144 496.404 28.652 496.404 27.5884V24.2218C496.404 25.2854 494.58 26.1478 492.331 26.1478Z" fill="#FFE6B5"/>
<path d="M496.028 30.3853C496.028 30.3853 496.002 31.2879 496.028 31.7356C496.054 32.1832 495.995 32.4931 495.671 32.8029C495.347 33.1127 494.584 33.5067 494.162 33.4896C493.741 33.4725 494.485 33.059 495.253 32.4394C495.67 32.104 495.762 31.2452 495.753 30.6353C495.744 30.0255 496.029 30.3865 496.029 30.3865L496.028 30.3853Z" fill="#DBF4FF"/>
<path d="M521.913 10.24V15.196H524.35V16.12H520.929V10.24H521.913Z" fill="#011120"/>
<path d="M528.274 12.5164V11.92H529.197V16.12H528.274V15.5152C527.923 15.994 527.427 16.2292 526.777 16.2292C526.187 16.2292 525.691 16.0192 525.272 15.5908C524.853 15.1624 524.647 14.6332 524.647 14.02C524.647 13.3984 524.853 12.8776 525.272 12.4492C525.691 12.0208 526.187 11.8108 526.777 11.8108C527.427 11.8108 527.923 12.046 528.274 12.5164ZM525.956 14.986C526.213 15.238 526.538 15.364 526.922 15.364C527.307 15.364 527.632 15.238 527.889 14.986C528.145 14.7256 528.274 14.4064 528.274 14.02C528.274 13.6336 528.145 13.3144 527.889 13.0624C527.632 12.802 527.307 12.676 526.922 12.676C526.538 12.676 526.213 12.802 525.956 13.0624C525.699 13.3144 525.571 13.6336 525.571 14.02C525.571 14.4064 525.699 14.7256 525.956 14.986Z" fill="#011120"/>
<path d="M531.147 11.122C530.916 11.3488 530.556 11.3488 530.317 11.122C530.086 10.8868 530.086 10.534 530.317 10.3072C530.548 10.072 530.924 10.072 531.155 10.3072C531.386 10.534 531.386 10.8868 531.147 11.122ZM531.198 16.12H530.274V11.92H531.198V16.12Z" fill="#011120"/>
<path d="M534.657 11.92V12.7936H533.596V14.8096C533.596 15.3472 533.955 15.3388 534.657 15.3052V16.12C533.245 16.288 532.672 15.91 532.672 14.8096V12.7936H531.886V11.92H532.672V11.0128L533.596 10.744V11.92H534.657Z" fill="#011120"/>
<path d="M638.155 11.0632L636.941 12.6424C637.805 12.844 638.403 13.4572 638.403 14.3392C638.403 14.9272 638.198 15.3892 637.796 15.7252C637.394 16.0612 636.898 16.2292 636.308 16.2292C635.393 16.2292 634.615 15.8092 634.298 15.0112L635.136 14.5324C635.316 15.0364 635.701 15.2884 636.308 15.2884C636.992 15.2884 637.42 14.9188 637.42 14.3392C637.42 13.7596 636.992 13.3984 636.308 13.3984H636.086L635.692 12.8188L636.984 11.1472H634.478V10.24H638.155V11.0632Z" fill="#5B6874"/>
<path d="M640.927 12.214H641.038C641.662 12.214 642.167 12.3988 642.561 12.7768C642.954 13.1464 643.151 13.6252 643.151 14.2216C643.151 14.818 642.954 15.2968 642.561 15.6748C642.167 16.0444 641.662 16.2292 641.038 16.2292C640.414 16.2292 639.901 16.0444 639.507 15.6748C639.114 15.2968 638.917 14.818 638.917 14.2216C638.917 13.7764 639.037 13.3816 639.276 13.0372L641.175 10.24H642.295L640.927 12.214ZM641.038 15.3136C641.697 15.3136 642.167 14.8852 642.167 14.2216C642.167 13.558 641.697 13.1296 641.038 13.1296C640.362 13.1296 639.901 13.558 639.901 14.2216C639.901 14.8852 640.362 15.3136 641.038 15.3136Z" fill="#5B6874"/>
<path d="M647.084 10.24V15.196H649.522V16.12H646.101V10.24H647.084Z" fill="#5B6874"/>
<path d="M651.064 11.122C650.834 11.3488 650.474 11.3488 650.235 11.122C650.004 10.8868 650.004 10.534 650.235 10.3072C650.466 10.072 650.842 10.072 651.073 10.3072C651.304 10.534 651.304 10.8868 651.064 11.122ZM651.116 16.12H650.192V11.92H651.116V16.12Z" fill="#5B6874"/>
<path d="M654.575 11.92V12.7936H653.514V14.8096C653.514 15.3472 653.873 15.3388 654.575 15.3052V16.12C653.163 16.288 652.59 15.91 652.59 14.8096V12.7936H651.803V11.92H652.59V11.0128L653.514 10.744V11.92H654.575Z" fill="#5B6874"/>
<path d="M656.378 11.92V12.6256C656.609 12.1048 657.053 11.8444 657.695 11.8444V12.8272C657.344 12.802 657.036 12.886 656.771 13.0792C656.506 13.264 656.378 13.5748 656.378 14.0032V16.12H655.454V11.92H656.378Z" fill="#5B6874"/>
<path d="M662.308 14.4064H658.904C659.041 15.0448 659.563 15.3976 660.272 15.3976C660.76 15.3976 661.128 15.2212 661.376 14.8768L662.137 15.3136C661.718 15.9268 661.094 16.2292 660.264 16.2292C659.571 16.2292 659.007 16.0192 658.579 15.6076C658.151 15.1876 657.938 14.6584 657.938 14.02C657.938 13.39 658.151 12.8692 658.57 12.4492C658.99 12.0208 659.537 11.8108 660.195 11.8108C660.82 11.8108 661.333 12.0292 661.735 12.4576C662.137 12.886 662.342 13.4152 662.342 14.0284C662.342 14.1208 662.334 14.2468 662.308 14.4064ZM658.895 13.6672H661.41C661.282 12.9868 660.794 12.634 660.187 12.634C659.503 12.634 659.024 13.0288 658.895 13.6672Z" fill="#5B6874"/>
<path d="M663.818 13.0792C663.818 13.3564 664.177 13.4992 664.622 13.6252C665.28 13.768 666.135 14.0368 666.118 14.9356C666.118 15.3388 665.956 15.658 665.639 15.8848C665.323 16.1116 664.93 16.2292 664.451 16.2292C663.604 16.2292 662.979 15.8596 662.706 15.2464L663.501 14.7928C663.647 15.196 663.963 15.3976 664.451 15.3976C664.938 15.3976 665.178 15.238 665.178 14.9272C665.178 14.6584 664.818 14.4988 664.365 14.3896C663.724 14.23 662.86 13.978 662.877 13.096C662.877 12.7096 663.022 12.3988 663.322 12.1636C663.621 11.9284 663.997 11.8108 664.442 11.8108C665.152 11.8108 665.725 12.1384 666.024 12.6844L665.246 13.1128C665.101 12.7936 664.827 12.634 664.442 12.634C664.091 12.634 663.818 12.7852 663.818 13.0792Z" fill="#5B6874"/>
<path d="M520.442 26.746L522.015 26.2H522.871V32.08H521.887V27.2332L520.681 27.5692L520.442 26.746Z" fill="#011120"/>
<path d="M525.112 28.4176H525.865C526.438 28.4176 526.917 28.5856 527.31 28.9216C527.704 29.2492 527.9 29.7112 527.9 30.2992C527.9 30.8872 527.695 31.3492 527.293 31.6852C526.891 32.0212 526.395 32.1892 525.805 32.1892C524.856 32.1892 524.077 31.744 523.769 30.9292L524.616 30.4504C524.779 30.9796 525.172 31.2484 525.805 31.2484C526.481 31.2484 526.917 30.8788 526.917 30.2992C526.917 29.7196 526.481 29.3584 525.822 29.3584H524.077L524.308 26.2H527.644V27.1072H525.215L525.112 28.4176Z" fill="#011120"/>
<path d="M532.462 31.3576C532.051 31.912 531.478 32.1892 530.734 32.1892C529.99 32.1892 529.417 31.912 528.998 31.3576C528.587 30.8032 528.382 30.064 528.382 29.14C528.382 28.216 528.587 27.4768 528.998 26.9224C529.417 26.368 529.99 26.0908 530.734 26.0908C531.478 26.0908 532.051 26.368 532.462 26.9224C532.881 27.4768 533.086 28.216 533.086 29.14C533.086 30.064 532.881 30.8032 532.462 31.3576ZM530.734 31.2484C531.623 31.2484 532.102 30.4924 532.102 29.14C532.102 27.7876 531.623 27.0316 530.734 27.0316C529.853 27.0316 529.365 27.7876 529.365 29.14C529.365 30.4924 529.853 31.2484 530.734 31.2484Z" fill="#011120"/>
<path d="M536.164 26.2H538.516C539.337 26.2 540.021 26.4856 540.56 27.0484C541.108 27.6112 541.381 28.3084 541.381 29.14C541.381 29.9632 541.108 30.6604 540.56 31.2316C540.021 31.7944 539.337 32.08 538.516 32.08H536.164V26.2ZM537.148 31.156H538.516C539.081 31.156 539.542 30.9628 539.893 30.5848C540.252 30.2068 540.432 29.7196 540.432 29.14C540.432 28.552 540.252 28.0732 539.893 27.6952C539.542 27.3172 539.081 27.124 538.516 27.124H537.148V31.156Z" fill="#011120"/>
<path d="M545.696 26.998L543.01 31.156H545.764V32.08H541.787V31.282L544.473 27.124H541.847V26.2H545.696V26.998Z" fill="#011120"/>
<path d="M546.596 26.2H548.948C549.769 26.2 550.454 26.4856 550.992 27.0484C551.54 27.6112 551.814 28.3084 551.814 29.14C551.814 29.9632 551.54 30.6604 550.992 31.2316C550.454 31.7944 549.769 32.08 548.948 32.08H546.596V26.2ZM547.58 31.156H548.948C549.513 31.156 549.975 30.9628 550.325 30.5848C550.685 30.2068 550.864 29.7196 550.864 29.14C550.864 28.552 550.685 28.0732 550.325 27.6952C549.975 27.3172 549.513 27.124 548.948 27.124H547.58V31.156Z" fill="#011120"/>
</g>
<g opacity="0.25" filter="url(#filter2_dd_3900_16052)">
<path d="M163 231.2C163 228.328 165.34 226 168.227 226H278.773C281.66 226 284 228.328 284 231.2V246.8C284 249.672 281.66 252 278.773 252H168.227C165.34 252 163 249.672 163 246.8V231.2Z" fill="white"/>
<path d="M166.397 232.24C166.397 230.517 167.801 229.12 169.533 229.12H183.123C184.855 229.12 186.259 230.517 186.259 232.24V245.76C186.259 247.483 184.855 248.88 183.123 248.88H169.533C167.801 248.88 166.397 247.483 166.397 245.76V232.24Z" fill="#FFB931"/>
<path d="M175.939 242.643C178.413 242.643 180.419 240.845 180.419 238.626C180.419 236.408 178.413 234.61 175.939 234.61C173.464 234.61 171.458 236.408 171.458 238.626C171.458 240.845 173.464 242.643 175.939 242.643Z" fill="#FE4B76"/>
<path d="M175.939 234.61C175.792 234.61 175.646 234.617 175.502 234.628C177.771 234.825 179.546 236.539 179.546 238.625C179.546 240.712 177.771 242.425 175.502 242.622C175.646 242.635 175.792 242.641 175.939 242.641C178.413 242.641 180.419 240.843 180.419 238.624C180.419 236.405 178.413 234.61 175.939 234.61Z" fill="#F61D51"/>
<path d="M175.489 234.456C175.489 234.456 173.461 235.061 172.581 235.005C172.581 235.005 173.892 235.554 174.48 235.35C174.48 235.35 173.013 236.653 173.169 237.826C173.169 237.826 174.563 235.983 175.242 235.629C175.242 235.629 175.912 236.904 175.829 238.384C175.829 238.384 176.205 236.522 176.718 236.132C176.718 236.132 178.141 236.215 178.443 237.295C178.443 237.295 178.508 235.991 177.461 235.405C177.461 235.405 178.947 235.898 179.929 234.968C179.929 234.968 178.159 235.033 177.196 234.651C176.232 234.269 175.489 234.455 175.489 234.455V234.456Z" fill="#61E8AF"/>
<path d="M176.464 235.051C176.464 235.051 176.362 234.039 176.792 233.35H175.84C175.84 233.35 175.629 234.615 175.939 235.051C176.248 235.487 176.464 235.051 176.464 235.051Z" fill="#61E8AF"/>
<path d="M176.312 233.417C176.577 233.417 176.791 233.387 176.791 233.349C176.791 233.311 176.577 233.28 176.312 233.28C176.047 233.28 175.833 233.311 175.833 233.349C175.833 233.387 176.047 233.417 176.312 233.417Z" fill="#08B66D"/>
<path d="M184.008 241.495C184.397 239.312 182.739 237.18 180.304 236.733C177.869 236.286 175.58 237.693 175.19 239.876C174.801 242.059 176.459 244.191 178.894 244.638C181.329 245.085 183.618 243.678 184.008 241.495Z" fill="#FE4B76"/>
<path d="M180.304 236.732C180.159 236.705 180.014 236.687 179.871 236.672C182.07 237.276 183.515 239.283 183.148 241.336C182.782 243.389 180.736 244.755 178.468 244.539C178.608 244.577 178.749 244.61 178.894 244.637C181.329 245.083 183.617 243.677 184.007 241.494C184.396 239.311 182.739 237.179 180.304 236.732Z" fill="#F61D51"/>
<path d="M179.888 236.501C179.888 236.501 177.787 236.73 176.93 236.516C176.93 236.516 178.124 237.294 178.738 237.198C178.738 237.198 177.065 238.215 177.013 239.397C177.013 239.397 178.708 237.835 179.439 237.61C179.439 237.61 179.874 238.985 179.533 240.427C179.533 240.427 180.23 238.664 180.805 238.372C180.805 238.372 182.189 238.712 182.298 239.829C182.298 239.829 182.589 238.559 181.664 237.792C181.664 237.792 183.039 238.546 184.168 237.808C184.168 237.808 182.415 237.552 181.534 237.002C180.654 236.452 179.889 236.501 179.889 236.501H179.888Z" fill="#61E8AF"/>
<path d="M180.743 237.261C180.743 237.261 180.82 236.247 181.365 235.647L180.428 235.475C180.428 235.475 179.998 236.681 180.226 237.167C180.454 237.652 180.742 237.261 180.742 237.261H180.743Z" fill="#61E8AF"/>
<path d="M181.366 235.646C181.373 235.609 181.167 235.54 180.907 235.492C180.646 235.444 180.43 235.436 180.423 235.473C180.416 235.51 180.622 235.579 180.883 235.627C181.143 235.675 181.359 235.683 181.366 235.646Z" fill="#08B66D"/>
<path d="M172.878 244.581C174.956 244.071 176.281 242.148 175.837 240.285C175.393 238.423 173.349 237.326 171.271 237.835C169.193 238.345 167.868 240.268 168.312 242.131C168.756 243.994 170.8 245.091 172.878 244.581Z" fill="#FE4B76"/>
<path d="M171.27 237.836C171.147 237.866 171.026 237.902 170.908 237.942C172.853 237.64 174.687 238.714 175.103 240.466C175.521 242.218 174.374 244.022 172.507 244.655C172.63 244.637 172.753 244.612 172.877 244.582C174.955 244.072 176.279 242.148 175.836 240.286C175.392 238.423 173.348 237.326 171.27 237.836Z" fill="#F61D51"/>
<path d="M170.795 237.797C170.795 237.797 169.467 238.575 168.836 238.688C168.836 238.688 169.854 238.848 170.234 238.602C170.234 238.602 169.418 239.776 169.725 240.575C169.725 240.575 170.399 239.034 170.818 238.667C170.818 238.667 171.504 239.451 171.695 240.509C171.695 240.509 171.648 239.13 171.945 238.766C171.945 238.766 172.962 238.578 173.357 239.288C173.357 239.288 173.183 238.359 172.347 238.125C172.347 238.125 173.478 238.216 174.014 237.39C174.014 237.39 172.777 237.742 172.033 237.64C171.289 237.538 170.796 237.797 170.796 237.797H170.795Z" fill="#61E8AF"/>
<path d="M171.582 238.047C171.582 238.047 171.34 237.352 171.528 236.791L170.857 236.955C170.857 236.955 170.921 237.884 171.212 238.138C171.503 238.392 171.582 238.047 171.582 238.047Z" fill="#61E8AF"/>
<path d="M171.202 236.921C171.389 236.876 171.535 236.817 171.529 236.79C171.522 236.763 171.366 236.778 171.179 236.824C170.992 236.87 170.846 236.929 170.852 236.956C170.859 236.982 171.015 236.967 171.202 236.921Z" fill="#08B66D"/>
<path d="M190.78 231.72H193.446V232.292H192.416V235.36H191.815V232.292H190.78V231.72Z" fill="#011120"/>
<path d="M194.618 235.428C194.236 235.428 193.907 235.298 193.64 235.032C193.374 234.767 193.238 234.445 193.238 234.06C193.238 233.675 193.374 233.353 193.64 233.088C193.907 232.822 194.236 232.692 194.618 232.692C195.005 232.692 195.329 232.822 195.595 233.088C195.862 233.353 195.998 233.675 195.998 234.06C195.998 234.445 195.862 234.767 195.595 235.032C195.329 235.298 195.005 235.428 194.618 235.428ZM194.038 234.648C194.194 234.804 194.388 234.882 194.618 234.882C194.848 234.882 195.041 234.804 195.198 234.648C195.355 234.492 195.433 234.294 195.433 234.06C195.433 233.826 195.355 233.628 195.198 233.472C195.041 233.316 194.848 233.238 194.618 233.238C194.388 233.238 194.194 233.316 194.038 233.472C193.881 233.628 193.802 233.826 193.802 234.06C193.802 234.294 193.881 234.492 194.038 234.648Z" fill="#011120"/>
<path d="M199.362 232.692C199.953 232.692 200.35 233.103 200.35 233.748V235.36H199.785V233.784C199.785 233.426 199.592 233.218 199.278 233.218C198.928 233.218 198.709 233.446 198.709 233.904V235.36H198.144V233.784C198.144 233.426 197.966 233.218 197.653 233.218C197.313 233.218 197.073 233.452 197.073 233.904V235.36H196.508V232.76H197.073V233.072C197.24 232.817 197.491 232.692 197.82 232.692C198.155 232.692 198.4 232.828 198.562 233.103C198.735 232.828 199.001 232.692 199.362 232.692Z" fill="#011120"/>
<path d="M203.024 233.129V232.76H203.588V235.36H203.024V234.986C202.809 235.282 202.506 235.428 202.109 235.428C201.748 235.428 201.445 235.298 201.189 235.032C200.933 234.767 200.808 234.44 200.808 234.06C200.808 233.675 200.933 233.353 201.189 233.088C201.445 232.822 201.748 232.692 202.109 232.692C202.506 232.692 202.809 232.838 203.024 233.129ZM201.607 234.658C201.764 234.814 201.963 234.892 202.198 234.892C202.433 234.892 202.632 234.814 202.789 234.658C202.945 234.497 203.024 234.299 203.024 234.06C203.024 233.821 202.945 233.623 202.789 233.467C202.632 233.306 202.433 233.228 202.198 233.228C201.963 233.228 201.764 233.306 201.607 233.467C201.45 233.623 201.372 233.821 201.372 234.06C201.372 234.299 201.45 234.497 201.607 234.658Z" fill="#011120"/>
<path d="M205.704 232.76V233.301H205.056V234.549C205.056 234.882 205.276 234.876 205.704 234.856V235.36C204.842 235.464 204.492 235.23 204.492 234.549V233.301H204.011V232.76H204.492V232.198L205.056 232.032V232.76H205.704Z" fill="#011120"/>
<path d="M208.634 234.299H206.554C206.637 234.694 206.956 234.913 207.39 234.913C207.688 234.913 207.913 234.804 208.064 234.59L208.529 234.861C208.273 235.24 207.892 235.428 207.385 235.428C206.961 235.428 206.616 235.298 206.355 235.043C206.094 234.783 205.963 234.455 205.963 234.06C205.963 233.67 206.094 233.348 206.35 233.088C206.606 232.822 206.94 232.692 207.343 232.692C207.724 232.692 208.038 232.828 208.284 233.093C208.529 233.358 208.655 233.686 208.655 234.065C208.655 234.122 208.649 234.2 208.634 234.299ZM206.548 233.842H208.085C208.007 233.42 207.709 233.202 207.338 233.202C206.919 233.202 206.627 233.446 206.548 233.842Z" fill="#011120"/>
<path d="M266.71 235.36H264.3V234.892L265.576 233.597C265.884 233.29 266.041 233.02 266.041 232.796C266.041 232.443 265.806 232.235 265.476 232.235C265.168 232.235 264.943 232.386 264.797 232.687L264.29 232.391C264.52 231.907 264.964 231.652 265.471 231.652C265.79 231.652 266.067 231.751 266.297 231.954C266.527 232.157 266.642 232.427 266.642 232.776C266.642 233.145 266.433 233.54 266.02 233.961L265.194 234.783H266.71V235.36Z" fill="#5B6874"/>
<path d="M269.09 233.467C269.451 233.665 269.629 233.961 269.629 234.351C269.629 235.017 269.122 235.428 268.348 235.428C267.961 235.428 267.648 235.334 267.412 235.142C267.177 234.949 267.062 234.684 267.062 234.351C267.062 233.977 267.261 233.654 267.601 233.467C267.324 233.285 267.188 233.03 267.188 232.698C267.188 232.365 267.297 232.11 267.522 231.928C267.747 231.746 268.019 231.652 268.348 231.652C268.672 231.652 268.944 231.746 269.169 231.928C269.393 232.11 269.508 232.365 269.508 232.698C269.508 233.03 269.367 233.285 269.09 233.467ZM268.348 232.219C268.019 232.219 267.789 232.396 267.789 232.724C267.789 233.036 268.029 233.228 268.348 233.228C268.662 233.228 268.907 233.036 268.907 232.724C268.907 232.396 268.667 232.219 268.348 232.219ZM268.348 234.861C268.75 234.861 269.027 234.653 269.027 234.294C269.027 233.935 268.75 233.727 268.348 233.727C267.935 233.727 267.663 233.935 267.663 234.294C267.663 234.653 267.935 234.861 268.348 234.861Z" fill="#5B6874"/>
<path d="M272.71 233.493L274.241 235.36H273.525L272.083 233.628V235.36H271.482V231.72H272.083V233.353L273.473 231.72H274.189L272.71 233.493Z" fill="#5B6874"/>
<path d="M275.128 232.266C274.986 232.406 274.767 232.406 274.621 232.266C274.479 232.12 274.479 231.902 274.621 231.762C274.762 231.616 274.992 231.616 275.133 231.762C275.274 231.902 275.274 232.12 275.128 232.266ZM275.159 235.36H274.594V232.76H275.159V235.36Z" fill="#5B6874"/>
<path d="M276.379 235.36H275.814V231.564H276.379V235.36Z" fill="#5B6874"/>
<path d="M278.268 235.428C277.886 235.428 277.557 235.298 277.29 235.032C277.024 234.767 276.888 234.445 276.888 234.06C276.888 233.675 277.024 233.353 277.29 233.088C277.557 232.822 277.886 232.692 278.268 232.692C278.655 232.692 278.979 232.822 279.245 233.088C279.512 233.353 279.648 233.675 279.648 234.06C279.648 234.445 279.512 234.767 279.245 235.032C278.979 235.298 278.655 235.428 278.268 235.428ZM277.688 234.648C277.844 234.804 278.038 234.882 278.268 234.882C278.498 234.882 278.691 234.804 278.848 234.648C279.005 234.492 279.083 234.294 279.083 234.06C279.083 233.826 279.005 233.628 278.848 233.472C278.691 233.316 278.498 233.238 278.268 233.238C278.038 233.238 277.844 233.316 277.688 233.472C277.531 233.628 277.452 233.826 277.452 234.06C277.452 234.294 277.531 234.492 277.688 234.648Z" fill="#5B6874"/>
<path d="M190.77 241.938L191.732 241.6H192.254V245.24H191.653V242.24L190.916 242.448L190.77 241.938Z" fill="#011120"/>
<path d="M192.715 241.938L193.676 241.6H194.199V245.24H193.598V242.24L192.861 242.448L192.715 241.938Z" fill="#011120"/>
<path d="M197.294 244.793C197.043 245.136 196.693 245.308 196.238 245.308C195.783 245.308 195.433 245.136 195.177 244.793C194.926 244.45 194.8 243.992 194.8 243.42C194.8 242.848 194.926 242.39 195.177 242.047C195.433 241.704 195.783 241.532 196.238 241.532C196.693 241.532 197.043 241.704 197.294 242.047C197.55 242.39 197.675 242.848 197.675 243.42C197.675 243.992 197.55 244.45 197.294 244.793ZM196.238 244.725C196.781 244.725 197.074 244.257 197.074 243.42C197.074 242.583 196.781 242.115 196.238 242.115C195.699 242.115 195.402 242.583 195.402 243.42C195.402 244.257 195.699 244.725 196.238 244.725Z" fill="#011120"/>
<path d="M199.556 241.6H200.994C201.495 241.6 201.914 241.777 202.243 242.125C202.577 242.474 202.745 242.905 202.745 243.42C202.745 243.93 202.577 244.361 202.243 244.715C201.914 245.063 201.495 245.24 200.994 245.24H199.556V241.6ZM200.157 244.668H200.994C201.339 244.668 201.621 244.548 201.835 244.314C202.055 244.08 202.164 243.779 202.164 243.42C202.164 243.056 202.055 242.76 201.835 242.526C201.621 242.292 201.339 242.172 200.994 242.172H200.157V244.668Z" fill="#011120"/>
<path d="M205.381 242.094L203.74 244.668H205.423V245.24H202.993V244.746L204.634 242.172H203.029V241.6H205.381V242.094Z" fill="#011120"/>
<path d="M205.931 241.6H207.369C207.871 241.6 208.289 241.777 208.618 242.125C208.953 242.474 209.12 242.905 209.12 243.42C209.12 243.93 208.953 244.361 208.618 244.715C208.289 245.063 207.871 245.24 207.369 245.24H205.931V241.6ZM206.533 244.668H207.369C207.714 244.668 207.996 244.548 208.21 244.314C208.43 244.08 208.54 243.779 208.54 243.42C208.54 243.056 208.43 242.76 208.21 242.526C207.996 242.292 207.714 242.172 207.369 242.172H206.533V244.668Z" fill="#011120"/>
</g>
<g opacity="0.6" filter="url(#filter3_dd_3900_16052)">
<path d="M1 65.8C1 59.8353 5.87362 55 11.8855 55H242.114C248.126 55 253 59.8353 253 65.8V98.2C253 104.165 248.126 109 242.114 109H11.8855C5.87362 109 1 104.165 1 98.2V65.8Z" fill="white"/>
<path d="M8.07559 67.96C8.07559 64.3812 10.9998 61.48 14.6069 61.48H42.9093C46.5164 61.48 49.4406 64.3812 49.4406 67.96V96.04C49.4406 99.6188 46.5164 102.52 42.9093 102.52H14.6069C10.9998 102.52 8.07559 99.6188 8.07559 96.04V67.96Z" fill="#08B66D"/>
<path d="M63.9184 66.88V68.068H60.7071V70.1848H63.8095V71.3728H60.7071V74.44H59.4553V66.88H63.9184Z" fill="#011120"/>
<path d="M69.3239 69.8068V69.04H70.4995V74.44H69.3239V73.6624C68.8776 74.278 68.2462 74.5804 67.4189 74.5804C66.6678 74.5804 66.0364 74.3104 65.5031 73.7596C64.9697 73.2088 64.7084 72.5284 64.7084 71.74C64.7084 70.9408 64.9697 70.2712 65.5031 69.7204C66.0364 69.1696 66.6678 68.8996 67.4189 68.8996C68.2462 68.8996 68.8776 69.202 69.3239 69.8068ZM66.3739 72.982C66.7005 73.306 67.1141 73.468 67.604 73.468C68.0938 73.468 68.5075 73.306 68.834 72.982C69.1606 72.6472 69.3239 72.2368 69.3239 71.74C69.3239 71.2432 69.1606 70.8328 68.834 70.5088C68.5075 70.174 68.0938 70.012 67.604 70.012C67.1141 70.012 66.7005 70.174 66.3739 70.5088C66.0473 70.8328 65.884 71.2432 65.884 71.74C65.884 72.2368 66.0473 72.6472 66.3739 72.982Z" fill="#011120"/>
<path d="M73.0454 69.04V69.9472C73.3394 69.2776 73.9054 68.9428 74.7218 68.9428V70.2064C74.2755 70.174 73.8836 70.282 73.5462 70.5304C73.2087 70.768 73.0454 71.1676 73.0454 71.7184V74.44H71.8698V69.04H73.0454Z" fill="#011120"/>
<path d="M76.7008 68.014C76.4069 68.3056 75.9497 68.3056 75.6449 68.014C75.351 67.7116 75.351 67.258 75.6449 66.9664C75.9388 66.664 76.4178 66.664 76.7117 66.9664C77.0056 67.258 77.0056 67.7116 76.7008 68.014ZM76.7661 74.44H75.5905V69.04H76.7661V74.44Z" fill="#011120"/>
<path d="M80.994 68.8996C82.2458 68.8996 83.084 69.742 83.084 71.1244V74.44H81.9084V71.2432C81.9084 70.4332 81.4403 69.9904 80.6892 69.9904C79.8619 69.9904 79.3068 70.498 79.3068 71.5456V74.44H78.1311V69.04H79.3068V69.7312C79.666 69.1804 80.2211 68.8996 80.994 68.8996Z" fill="#011120"/>
<path d="M89.6076 72.2368H85.2752C85.4493 73.0576 86.1134 73.5112 87.0169 73.5112C87.6373 73.5112 88.1054 73.2844 88.4211 72.8416L89.3899 73.4032C88.8565 74.1916 88.0619 74.5804 87.006 74.5804C86.1242 74.5804 85.4058 74.3104 84.8615 73.7812C84.3172 73.2412 84.0451 72.5608 84.0451 71.74C84.0451 70.93 84.3172 70.2604 84.8506 69.7204C85.384 69.1696 86.0807 68.8996 86.9189 68.8996C87.7135 68.8996 88.3667 69.1804 88.8783 69.7312C89.3899 70.282 89.6512 70.9624 89.6512 71.7508C89.6512 71.8696 89.6403 72.0316 89.6076 72.2368ZM85.2643 71.2864H88.4646C88.3014 70.4116 87.6809 69.958 86.908 69.958C86.0372 69.958 85.4276 70.4656 85.2643 71.2864Z" fill="#011120"/>
<path d="M205.017 74.44H199.998V73.468L202.654 70.7788C203.297 70.1416 203.623 69.58 203.623 69.1156C203.623 68.3812 203.133 67.9492 202.448 67.9492C201.805 67.9492 201.337 68.2624 201.032 68.8888L199.977 68.2732C200.456 67.2688 201.381 66.7396 202.437 66.7396C203.101 66.7396 203.678 66.9448 204.157 67.366C204.636 67.7872 204.875 68.3488 204.875 69.0724C204.875 69.8392 204.44 70.66 203.58 71.5348L201.86 73.2412H205.017V74.44Z" fill="#5B6874"/>
<path d="M210.778 74.44H205.76V73.468L208.416 70.7788C209.058 70.1416 209.385 69.58 209.385 69.1156C209.385 68.3812 208.895 67.9492 208.209 67.9492C207.567 67.9492 207.099 68.2624 206.794 68.8888L205.738 68.2732C206.217 67.2688 207.143 66.7396 208.198 66.7396C208.862 66.7396 209.439 66.9448 209.918 67.366C210.397 67.7872 210.637 68.3488 210.637 69.0724C210.637 69.8392 210.201 70.66 209.341 71.5348L207.621 73.2412H210.778V74.44Z" fill="#5B6874"/>
<path d="M219.152 70.5196C219.816 70.8652 220.219 71.4916 220.219 72.28C220.219 72.8956 220.002 73.414 219.555 73.8244C219.109 74.2348 218.576 74.44 217.933 74.44H214.668V66.88H217.694C218.314 66.88 218.848 67.0852 219.272 67.4848C219.708 67.8844 219.925 68.3812 219.925 68.9752C219.925 69.634 219.664 70.1416 219.152 70.5196ZM217.694 68.0464H215.919V70.0336H217.694C218.249 70.0336 218.674 69.6016 218.674 69.04C218.674 68.4784 218.249 68.0464 217.694 68.0464ZM215.919 73.2736H217.933C218.51 73.2736 218.967 72.8092 218.967 72.2152C218.967 71.6212 218.51 71.1568 217.933 71.1568H215.919V73.2736Z" fill="#5B6874"/>
<path d="M223.858 74.5804C223.063 74.5804 222.377 74.3104 221.822 73.7596C221.267 73.2088 220.984 72.5392 220.984 71.74C220.984 70.9408 221.267 70.2712 221.822 69.7204C222.377 69.1696 223.063 68.8996 223.858 68.8996C224.663 68.8996 225.338 69.1696 225.893 69.7204C226.448 70.2712 226.731 70.9408 226.731 71.74C226.731 72.5392 226.448 73.2088 225.893 73.7596C225.338 74.3104 224.663 74.5804 223.858 74.5804ZM222.649 72.9604C222.976 73.2844 223.379 73.4464 223.858 73.4464C224.337 73.4464 224.739 73.2844 225.066 72.9604C225.392 72.6364 225.556 72.226 225.556 71.74C225.556 71.254 225.392 70.8436 225.066 70.5196C224.739 70.1956 224.337 70.0336 223.858 70.0336C223.379 70.0336 222.976 70.1956 222.649 70.5196C222.323 70.8436 222.159 71.254 222.159 71.74C222.159 72.226 222.323 72.6364 222.649 72.9604Z" fill="#5B6874"/>
<path d="M228.905 68.014C228.611 68.3056 228.154 68.3056 227.849 68.014C227.555 67.7116 227.555 67.258 227.849 66.9664C228.143 66.664 228.622 66.664 228.916 66.9664C229.21 67.258 229.21 67.7116 228.905 68.014ZM228.97 74.44H227.794V69.04H228.97V74.44Z" fill="#5B6874"/>
<path d="M233.372 69.04V70.1632H232.022V72.7552C232.022 73.4464 232.48 73.4356 233.372 73.3924V74.44C231.576 74.656 230.847 74.17 230.847 72.7552V70.1632H229.845V69.04H230.847V67.8736L232.022 67.528V69.04H233.372Z" fill="#5B6874"/>
<path d="M239.473 72.2368H235.14C235.315 73.0576 235.979 73.5112 236.882 73.5112C237.503 73.5112 237.971 73.2844 238.286 72.8416L239.255 73.4032C238.722 74.1916 237.927 74.5804 236.871 74.5804C235.99 74.5804 235.271 74.3104 234.727 73.7812C234.183 73.2412 233.91 72.5608 233.91 71.74C233.91 70.93 234.182 70.2604 234.716 69.7204C235.249 69.1696 235.946 68.8996 236.784 68.8996C237.579 68.8996 238.232 69.1804 238.744 69.7312C239.255 70.282 239.516 70.9624 239.516 71.7508C239.516 71.8696 239.506 72.0316 239.473 72.2368ZM235.13 71.2864H238.33C238.167 70.4116 237.546 69.958 236.773 69.958C235.902 69.958 235.293 70.4656 235.13 71.2864Z" fill="#5B6874"/>
<path d="M241.394 70.5304C241.394 70.8868 241.851 71.0704 242.417 71.2324C243.256 71.416 244.344 71.7616 244.322 72.9172C244.322 73.4356 244.116 73.846 243.713 74.1376C243.31 74.4292 242.809 74.5804 242.2 74.5804C241.122 74.5804 240.327 74.1052 239.979 73.3168L240.991 72.7336C241.176 73.252 241.579 73.5112 242.2 73.5112C242.82 73.5112 243.125 73.306 243.125 72.9064C243.125 72.5608 242.668 72.3556 242.091 72.2152C241.274 72.01 240.175 71.686 240.197 70.552C240.197 70.0552 240.382 69.6556 240.763 69.3532C241.144 69.0508 241.623 68.8996 242.189 68.8996C243.092 68.8996 243.822 69.3208 244.203 70.0228L243.212 70.5736C243.027 70.1632 242.679 69.958 242.189 69.958C241.743 69.958 241.394 70.1524 241.394 70.5304Z" fill="#5B6874"/>
<path d="M58.8348 88.102L60.8378 87.4H61.9263V94.96H60.6745V88.7284L59.1396 89.1604L58.8348 88.102Z" fill="#011120"/>
<path d="M68.3713 94.0312C67.8488 94.744 67.1195 95.1004 66.1724 95.1004C65.2254 95.1004 64.4961 94.744 63.9627 94.0312C63.4402 93.3184 63.1789 92.368 63.1789 91.18C63.1789 89.992 63.4402 89.0416 63.9627 88.3288C64.4961 87.616 65.2254 87.2596 66.1724 87.2596C67.1195 87.2596 67.8488 87.616 68.3713 88.3288C68.9047 89.0416 69.166 89.992 69.166 91.18C69.166 92.368 68.9047 93.3184 68.3713 94.0312ZM66.1724 93.8908C67.3045 93.8908 67.9141 92.9188 67.9141 91.18C67.9141 89.4412 67.3045 88.4692 66.1724 88.4692C65.0512 88.4692 64.4307 89.4412 64.4307 91.18C64.4307 92.9188 65.0512 93.8908 66.1724 93.8908Z" fill="#011120"/>
<path d="M75.2279 94.0312C74.7054 94.744 73.9761 95.1004 73.029 95.1004C72.082 95.1004 71.3527 94.744 70.8193 94.0312C70.2968 93.3184 70.0355 92.368 70.0355 91.18C70.0355 89.992 70.2968 89.0416 70.8193 88.3288C71.3527 87.616 72.082 87.2596 73.029 87.2596C73.9761 87.2596 74.7054 87.616 75.2279 88.3288C75.7613 89.0416 76.0226 89.992 76.0226 91.18C76.0226 92.368 75.7613 93.3184 75.2279 94.0312ZM73.029 93.8908C74.1611 93.8908 74.7707 92.9188 74.7707 91.18C74.7707 89.4412 74.1611 88.4692 73.029 88.4692C71.9078 88.4692 71.2874 89.4412 71.2874 91.18C71.2874 92.9188 71.9078 93.8908 73.029 93.8908Z" fill="#011120"/>
<path d="M79.9401 87.4H82.9336C83.9786 87.4 84.8494 87.7672 85.5352 88.4908C86.2319 89.2144 86.5803 90.1108 86.5803 91.18C86.5803 92.2384 86.2319 93.1348 85.5352 93.8692C84.8494 94.5928 83.9786 94.96 82.9336 94.96H79.9401V87.4ZM81.1919 93.772H82.9336C83.652 93.772 84.2399 93.5236 84.6862 93.0376C85.1434 92.5516 85.372 91.9252 85.372 91.18C85.372 90.424 85.1434 89.8084 84.6862 89.3224C84.2399 88.8364 83.652 88.588 82.9336 88.588H81.1919V93.772Z" fill="#011120"/>
<path d="M92.0715 88.426L88.6534 93.772H92.1586V94.96H87.0968V93.934L90.5149 88.588H87.173V87.4H92.0715V88.426Z" fill="#011120"/>
<path d="M93.2174 87.4H96.211C97.256 87.4 98.1268 87.7672 98.8126 88.4908C99.5093 89.2144 99.8576 90.1108 99.8576 91.18C99.8576 92.2384 99.5093 93.1348 98.8126 93.8692C98.1268 94.5928 97.256 94.96 96.211 94.96H93.2174V87.4ZM94.4693 93.772H96.211C96.9294 93.772 97.5172 93.5236 97.9635 93.0376C98.4207 92.5516 98.6493 91.9252 98.6493 91.18C98.6493 90.424 98.4207 89.8084 97.9635 89.3224C97.5172 88.8364 96.9294 88.588 96.211 88.588H94.4693V93.772Z" fill="#011120"/>
<path d="M21.4926 96.3088L31.948 90.3042V74.617L21.0214 80.8912V96.0376C21.0214 96.2774 21.283 96.4279 21.4926 96.3088Z" fill="#F5FCFF"/>
<path d="M22.4161 93.7784L30.5548 89.1048L29.9984 77.4186L21.8598 82.0922L22.4161 93.7784Z" fill="white"/>
<path d="M15.5588 77.7541L26.4855 71.4799L31.948 74.617L21.0214 80.8912L15.5588 77.7541Z" fill="#00B2FF"/>
<path d="M26.5201 93.4429L31.9827 96.58V80.8912L26.5201 77.7541V93.4429Z" fill="#FFFAF0"/>
<path d="M27.4295 91.016L31.0717 93.1074V82.6487L27.4295 80.5573V91.016Z" fill="white"/>
<path d="M31.9827 96.58L42.9093 90.3042V74.617L31.9827 80.8912V96.58Z" fill="#FFFAF0"/>
<path d="M33.3759 93.7784L41.5145 89.1048V77.4186L33.3759 82.0922V93.7784Z" fill="#FFE6B5"/>
<path d="M26.5201 77.7541L37.4452 71.4799L42.9093 74.617L31.9827 80.8912L26.5201 77.7541Z" fill="#FFE6B5"/>
<path d="M17.9812 76.0782L28.9078 69.8039V66.88L17.9812 73.1558V76.0782Z" fill="#F5FCFF"/>
<path d="M21.0214 80.8912L19.1632 78.3279L15.5588 77.7541L19.7416 75.0669L21.0214 80.8912Z" fill="#7BD7FF"/>
<path d="M21.0214 80.8912L17.9812 76.0782L28.9078 69.8039L31.948 74.617L21.0214 80.8912Z" fill="#F5FCFF"/>
<path d="M15.5588 77.7541L17.9812 76.0782L28.9078 69.8039L26.7345 71.4799L15.5588 77.7541Z" fill="#F5FCFF"/>
<path d="M21.0214 80.8912L18.3074 79.3329L17.9812 94.8131L20.6478 96.3448C21.2042 96.6647 21.8961 96.2414 21.8598 95.6033L21.0229 80.8928L21.0214 80.8912Z" fill="#7BD7FF"/>
<path d="M15.5588 77.7541L14.6085 92.3595C14.588 92.6653 14.744 92.9553 15.0104 93.1074L17.9812 94.8131L18.3074 79.3329L15.5588 77.7541Z" fill="#DBF4FF"/>
</g>
<defs>
<filter id="filter0_dd_3900_16052" x="515" y="176" width="168" height="40" filterUnits="userSpaceOnUse" color-interpolation-filters="sRGB">
<feFlood flood-opacity="0" result="BackgroundImageFix"/>
<feColorMatrix in="SourceAlpha" type="matrix" values="0 0 0 0 0 0 0 0 0 0 0 0 0 0 0 0 0 0 127 0" result="hardAlpha"/>
<feOffset/>
<feGaussianBlur stdDeviation="0.5"/>
<feComposite in2="hardAlpha" operator="out"/>
<feColorMatrix type="matrix" values="0 0 0 0 0.00364583 0 0 0 0 0.0672375 0 0 0 0 0.125 0 0 0 0.25 0"/>
<feBlend mode="normal" in2="BackgroundImageFix" result="effect1_dropShadow_3900_16052"/>
<feColorMatrix in="SourceAlpha" type="matrix" values="0 0 0 0 0 0 0 0 0 0 0 0 0 0 0 0 0 0 127 0" result="hardAlpha"/>
<feOffset dy="2"/>
<feGaussianBlur stdDeviation="0.5"/>
<feComposite in2="hardAlpha" operator="out"/>
<feColorMatrix type="matrix" values="0 0 0 0 0.00364583 0 0 0 0 0.0672375 0 0 0 0 0.125 0 0 0 0.05 0"/>
<feBlend mode="normal" in2="effect1_dropShadow_3900_16052" result="effect2_dropShadow_3900_16052"/>
<feBlend mode="normal" in="SourceGraphic" in2="effect2_dropShadow_3900_16052" result="shape"/>
</filter>
<filter id="filter1_dd_3900_16052" x="474" y="0" width="200" height="46" filterUnits="userSpaceOnUse" color-interpolation-filters="sRGB">
<feFlood flood-opacity="0" result="BackgroundImageFix"/>
<feColorMatrix in="SourceAlpha" type="matrix" values="0 0 0 0 0 0 0 0 0 0 0 0 0 0 0 0 0 0 127 0" result="hardAlpha"/>
<feOffset/>
<feGaussianBlur stdDeviation="0.5"/>
<feComposite in2="hardAlpha" operator="out"/>
<feColorMatrix type="matrix" values="0 0 0 0 0.00364583 0 0 0 0 0.0672375 0 0 0 0 0.125 0 0 0 0.25 0"/>
<feBlend mode="normal" in2="BackgroundImageFix" result="effect1_dropShadow_3900_16052"/>
<feColorMatrix in="SourceAlpha" type="matrix" values="0 0 0 0 0 0 0 0 0 0 0 0 0 0 0 0 0 0 127 0" result="hardAlpha"/>
<feOffset dy="2"/>
<feGaussianBlur stdDeviation="0.5"/>
<feComposite in2="hardAlpha" operator="out"/>
<feColorMatrix type="matrix" values="0 0 0 0 0.00364583 0 0 0 0 0.0672375 0 0 0 0 0.125 0 0 0 0.05 0"/>
<feBlend mode="normal" in2="effect1_dropShadow_3900_16052" result="effect2_dropShadow_3900_16052"/>
<feBlend mode="normal" in="SourceGraphic" in2="effect2_dropShadow_3900_16052" result="shape"/>
</filter>
<filter id="filter2_dd_3900_16052" x="162" y="225" width="123" height="30" filterUnits="userSpaceOnUse" color-interpolation-filters="sRGB">
<feFlood flood-opacity="0" result="BackgroundImageFix"/>
<feColorMatrix in="SourceAlpha" type="matrix" values="0 0 0 0 0 0 0 0 0 0 0 0 0 0 0 0 0 0 127 0" result="hardAlpha"/>
<feOffset/>
<feGaussianBlur stdDeviation="0.5"/>
<feComposite in2="hardAlpha" operator="out"/>
<feColorMatrix type="matrix" values="0 0 0 0 0.00364583 0 0 0 0 0.0672375 0 0 0 0 0.125 0 0 0 0.25 0"/>
<feBlend mode="normal" in2="BackgroundImageFix" result="effect1_dropShadow_3900_16052"/>
<feColorMatrix in="SourceAlpha" type="matrix" values="0 0 0 0 0 0 0 0 0 0 0 0 0 0 0 0 0 0 127 0" result="hardAlpha"/>
<feOffset dy="2"/>
<feGaussianBlur stdDeviation="0.5"/>
<feComposite in2="hardAlpha" operator="out"/>
<feColorMatrix type="matrix" values="0 0 0 0 0.00364583 0 0 0 0 0.0672375 0 0 0 0 0.125 0 0 0 0.05 0"/>
<feBlend mode="normal" in2="effect1_dropShadow_3900_16052" result="effect2_dropShadow_3900_16052"/>
<feBlend mode="normal" in="SourceGraphic" in2="effect2_dropShadow_3900_16052" result="shape"/>
</filter>
<filter id="filter3_dd_3900_16052" x="0" y="54" width="254" height="58" filterUnits="userSpaceOnUse" color-interpolation-filters="sRGB">
<feFlood flood-opacity="0" result="BackgroundImageFix"/>
<feColorMatrix in="SourceAlpha" type="matrix" values="0 0 0 0 0 0 0 0 0 0 0 0 0 0 0 0 0 0 127 0" result="hardAlpha"/>
<feOffset/>
<feGaussianBlur stdDeviation="0.5"/>
<feComposite in2="hardAlpha" operator="out"/>
<feColorMatrix type="matrix" values="0 0 0 0 0.00364583 0 0 0 0 0.0672375 0 0 0 0 0.125 0 0 0 0.25 0"/>
<feBlend mode="normal" in2="BackgroundImageFix" result="effect1_dropShadow_3900_16052"/>
<feColorMatrix in="SourceAlpha" type="matrix" values="0 0 0 0 0 0 0 0 0 0 0 0 0 0 0 0 0 0 127 0" result="hardAlpha"/>
<feOffset dy="2"/>
<feGaussianBlur stdDeviation="0.5"/>
<feComposite in2="hardAlpha" operator="out"/>
<feColorMatrix type="matrix" values="0 0 0 0 0.00364583 0 0 0 0 0.0672375 0 0 0 0 0.125 0 0 0 0.05 0"/>
<feBlend mode="normal" in2="effect1_dropShadow_3900_16052" result="effect2_dropShadow_3900_16052"/>
<feBlend mode="normal" in="SourceGraphic" in2="effect2_dropShadow_3900_16052" result="shape"/>
</filter>
<clipPath id="clip0_3900_16052">
<rect width="230" height="158" fill="white" transform="translate(269 70)"/>
</clipPath>
</defs>
</svg>
