<svg width="230" height="158" viewBox="0 0 230 158" fill="none" xmlns="http://www.w3.org/2000/svg">
<g id="Calque_1" clip-path="url(#clip0_2505_33003)">
<path id="Vector" d="M150.81 153.547C127.316 159.528 102.684 159.528 79.1897 153.547C69.0394 150.971 61.908 141.846 61.908 131.368V111.809H168.048V131.368C168.048 141.846 160.917 150.971 150.767 153.547H150.81Z" fill="#011120"/>
<g id="Group">
<g id="Group_2">
<path id="Vector_2" d="M209.962 137.262H20.038C8.53148 137.262 0.656267 127.526 2.45007 115.826L17.3255 17.4634C18.638 8.90631 27.3445 2.13925 36.7947 2.13925H193.205C202.699 2.13925 211.406 8.90631 212.675 17.4634L227.594 115.826C229.344 127.526 221.512 137.262 210.006 137.262H209.962Z" fill="#011120"/>
<path id="Vector_3" d="M209.962 139.445H20.038C14.0004 139.445 8.61897 137.044 4.90012 132.722C1.00626 128.181 -0.700034 121.938 0.306243 115.52L15.1816 17.1578C16.6254 7.55292 26.1194 0 36.8385 0H193.205C203.881 0 213.375 7.55292 214.862 17.1578L229.781 115.52C230.744 121.938 229.081 128.181 225.187 132.722C221.425 137.088 216.043 139.445 210.049 139.445H209.962ZM36.8385 4.36585C28.3945 4.36585 20.6505 10.3907 19.513 17.8127L4.59386 116.175C3.80634 121.371 5.07512 126.26 8.22521 129.884C11.1128 133.246 15.3129 135.123 20.038 135.123H209.962C214.687 135.123 218.887 133.289 221.775 129.884C224.881 126.26 226.194 121.414 225.406 116.175L210.487 17.8127C209.349 10.3907 201.605 4.36585 193.161 4.36585H36.8385Z" fill="#011120"/>
</g>
<g id="Group_3">
<path id="Vector_4" d="M209.962 129.84H20.038C8.53148 129.84 0.656267 120.628 2.45007 109.583L17.3255 16.6339C18.638 8.55706 27.3445 2.18292 36.8385 2.18292H193.205C202.699 2.18292 211.406 8.55706 212.675 16.6339L227.594 109.583C229.344 120.628 221.512 129.84 210.006 129.84H209.962Z" fill="#00B2FF"/>
<path id="Vector_5" d="M209.962 132.023H20.038C13.7816 132.023 8.26893 129.622 4.55008 125.212C0.874984 120.89 -0.656308 115.215 0.306219 109.277L15.1816 16.2846C16.6254 7.15999 26.1632 0 36.8385 0H193.205C203.88 0 213.374 7.15999 214.862 16.2846L229.781 109.233C230.744 115.171 229.212 120.847 225.537 125.169C221.775 129.578 216.262 131.98 210.049 131.98L209.962 132.023ZM36.8385 4.36585C28.3945 4.36585 20.6505 10.0414 19.513 16.9831L4.59383 109.932C3.85006 114.603 4.9876 119.013 7.87517 122.375C10.8065 125.78 15.1379 127.657 20.038 127.657H209.962C214.906 127.657 219.237 125.78 222.125 122.375C224.969 119.013 226.15 114.603 225.406 109.932L210.487 16.9831C209.393 10.0414 201.605 4.36585 193.161 4.36585H36.8385Z" fill="#011120"/>
</g>
<g id="Group_4">
<path id="Vector_6" d="M150.023 113.992C148.842 113.992 147.879 113.075 147.835 111.897L142.979 14.2763C142.935 13.0539 143.854 12.0497 145.035 12.0061C146.26 11.9188 147.267 12.8792 147.31 14.058L152.167 111.678C152.21 112.901 151.292 113.905 150.11 113.949H150.023V113.992Z" fill="white"/>
</g>
<path id="Vector_7" d="M213.025 109.583H168.88C167.655 109.583 166.692 108.622 166.692 107.4C166.692 106.177 167.655 105.217 168.88 105.217H213.025C214.25 105.217 215.212 106.177 215.212 107.4C215.212 108.622 214.25 109.583 213.025 109.583Z" fill="white"/>
<path id="Vector_8" d="M127.228 62.9555H29.1382C27.9132 62.9555 26.9507 61.995 26.9507 60.7726C26.9507 59.5501 27.9132 58.5897 29.1382 58.5897H127.228C128.453 58.5897 129.416 59.5501 129.416 60.7726C129.416 61.995 128.453 62.9555 127.228 62.9555Z" fill="white"/>
<path id="Vector_9" d="M126.878 44.5753H31.5446C30.3196 44.5753 29.3571 43.6148 29.3571 42.3924C29.3571 41.1699 30.3196 40.2094 31.5446 40.2094H126.878C128.103 40.2094 129.066 41.1699 129.066 42.3924C129.066 43.6148 128.103 44.5753 126.878 44.5753Z" fill="white"/>
<path id="Vector_10" d="M126.572 27.1556H33.8196C32.5946 27.1556 31.6321 26.1951 31.6321 24.9727C31.6321 23.7502 32.5946 22.7897 33.8196 22.7897H126.572C127.797 22.7897 128.76 23.7502 128.76 24.9727C128.76 26.1951 127.797 27.1556 126.572 27.1556Z" fill="white"/>
</g>
</g>
<defs>
<clipPath id="clip0_2505_33003">
<rect width="230" height="158" fill="white"/>
</clipPath>
</defs>
</svg>
