<svg width="96" height="64" viewBox="0 0 96 64" fill="none" xmlns="http://www.w3.org/2000/svg">
<g clip-path="url(#clip0_1280_10147)">
<path d="M22.5155 35.0236V56.189H18.5567V42.5827L13.1134 56.189H9.64948L3.95876 42.5827V56.189H0V35.0236H4.70103L11.3814 50.6457L18.0619 35.0236H22.5155Z" fill="white"/>
<path d="M26.7216 43.0866C27.4639 41.8268 28.2062 40.8189 29.4433 40.063C30.6804 39.3071 31.9175 39.0551 33.1546 39.0551C34.3917 39.0551 35.3814 39.3071 36.3711 39.811C37.3608 40.315 38.1031 41.0709 38.5979 41.8268V39.5591H42.8041V56.189H38.5979V53.6693C38.1031 54.4252 37.3608 55.1811 36.3711 55.685C35.3814 56.189 34.3917 56.4409 33.1546 56.4409C31.6701 56.4409 30.433 56.189 29.4433 55.4331C28.2062 54.6772 27.4639 53.6693 26.7216 52.4094C25.9794 51.1496 25.7319 49.6378 25.7319 47.874C25.7319 45.8583 25.9794 44.5984 26.7216 43.0866ZM37.8556 45.1024C37.3608 44.3465 36.866 43.8425 36.3711 43.3386C35.6288 42.8346 34.8866 42.8346 34.1443 42.8346C33.402 42.8346 32.6598 43.0866 31.9175 43.3386C31.1752 43.8425 30.6804 44.3465 30.433 45.1024C30.1855 45.8583 29.9381 46.6142 29.9381 47.622C29.9381 48.6299 30.1855 49.6378 30.433 50.1417C30.6804 50.6457 31.4227 51.4016 31.9175 51.9055C32.6598 52.4094 33.402 52.4094 34.1443 52.4094C34.8866 52.4094 35.6288 52.1575 36.3711 51.9055C37.1134 51.4016 37.6082 50.8976 37.8556 50.1417C38.3505 49.3858 38.3505 48.6299 38.3505 47.622C38.3505 46.6142 38.3505 45.8583 37.8556 45.1024Z" fill="white"/>
<path d="M51.7113 42.8346V50.8976C51.7113 51.4016 51.9587 51.9055 52.2062 52.1575C52.4536 52.4094 52.9484 52.6614 53.4433 52.6614H55.4227V56.189H52.701C49.2371 56.189 47.5051 54.4252 47.5051 50.8976V42.8346H45.5258V39.3071H47.5051V35.2756H51.7113V39.3071H55.4227V42.8346H51.7113Z" fill="white"/>
<path d="M62.5979 58.9606C62.5979 60.7244 62.1031 62.2362 61.3608 62.9921C60.3711 63.748 59.134 64.252 57.4021 64.252H55.6701V60.4724H56.9072C57.6495 60.4724 57.8969 60.2205 58.1443 59.9685C58.3918 59.7165 58.6392 59.2126 58.6392 58.7086V39.0551H62.8454V58.9606H62.5979ZM58.6392 36.5354C58.1443 36.0315 57.8969 35.5275 57.8969 34.7716C57.8969 34.0157 58.1443 33.5118 58.6392 33.0079C59.134 32.5039 59.6289 32.252 60.6186 32.252C61.3608 32.252 61.8557 32.5039 62.3505 33.0079C62.8454 33.5118 63.0928 34.0157 63.0928 34.7716C63.0928 35.5275 62.8454 36.0315 62.3505 36.5354C61.8557 37.0394 61.3608 37.2913 60.6186 37.2913C59.6289 37.2913 59.134 37.0394 58.6392 36.5354Z" fill="white"/>
<path d="M66.5567 43.0866C67.299 41.8268 68.0412 40.8189 69.2784 40.063C70.5155 39.3071 71.7526 39.0551 72.9897 39.0551C74.2268 39.0551 75.2165 39.3071 76.2062 39.811C77.1959 40.315 77.9382 41.0709 78.433 41.8268V39.5591H82.6392V56.189H78.433V53.6693C77.9382 54.4252 77.1959 55.1811 76.2062 55.685C75.2165 56.189 74.2268 56.4409 72.9897 56.4409C71.5052 56.4409 70.268 56.189 69.2784 55.4331C68.0412 54.6772 67.299 53.6693 66.5567 52.4094C65.8144 51.1496 65.567 49.6378 65.567 47.874C65.567 45.8583 65.8144 44.5984 66.5567 43.0866ZM77.9382 45.1024C77.4433 44.3465 76.9485 43.8425 76.4536 43.3386C75.7113 43.0866 74.9691 42.8346 74.2268 42.8346C73.4845 42.8346 72.7423 43.0866 72 43.3386C71.2577 43.8425 70.7629 44.3465 70.5155 45.1024C70.268 45.8583 70.0206 46.6142 70.0206 47.622C70.0206 48.6299 70.268 49.6378 70.5155 50.1417C70.7629 50.6457 71.5052 51.4016 72 51.9055C72.7423 52.4094 73.4845 52.4094 74.2268 52.4094C74.9691 52.4094 75.7113 52.1575 76.4536 51.9055C77.1959 51.4016 77.6907 50.8976 77.9382 50.1417C78.433 49.3858 78.433 48.6299 78.433 47.622C78.433 46.6142 78.1856 45.8583 77.9382 45.1024Z" fill="white"/>
<path d="M93.0309 39.811C93.7732 39.3071 94.7629 39.0551 96 39.0551V43.5905H95.0103C93.7732 43.5905 92.7835 43.8425 92.0412 44.5984C91.299 45.1024 91.0515 46.3622 91.0515 47.874V56.189H86.8453V39.5591H91.0515V42.0787C91.2989 41.0709 92.0412 40.315 93.0309 39.811Z" fill="white"/>
<path d="M58.3918 9.5748H50.9691V0L21.2784 6.80315V27.4646H28.7011V12.8504L43.5464 9.32283V13.1024V16.8819V27.2126H50.9691V17.1339H58.3918C62.3505 17.1339 65.8145 20.4094 65.8145 24.6929V27.4646H73.2371V24.6929C73.2371 16.378 66.5567 9.5748 58.3918 9.5748Z" fill="white"/>
</g>
<defs>
<clipPath id="clip0_1280_10147">
<rect width="96" height="64" fill="white"/>
</clipPath>
</defs>
</svg>
