<svg width="150" height="150" viewBox="0 0 150 150" fill="none" xmlns="http://www.w3.org/2000/svg">
<rect x="0.5" y="0.5" width="149" height="149" rx="9.5" fill="white" stroke="#E1E4EE" stroke-dasharray="2 2"/>
<path d="M37.89 102L34.236 92.2H32.766L29.112 102H30.498L31.296 99.802H35.706L36.504 102H37.89ZM33.494 93.754L35.258 98.584H31.744L33.494 93.754ZM39.6937 93.726C40.1417 93.726 40.5057 93.362 40.5057 92.914C40.5057 92.466 40.1417 92.088 39.6937 92.088C39.2317 92.088 38.8677 92.466 38.8677 92.914C38.8677 93.362 39.2317 93.726 39.6937 93.726ZM39.0777 102.42C39.0777 103.498 38.6157 103.904 37.5937 103.806V104.982C39.3717 105.108 40.2957 104.226 40.2957 102.42V95H39.0777V102.42ZM48.0547 101.118C48.7687 100.404 49.1327 99.536 49.1327 98.5C49.1327 97.464 48.7687 96.596 48.0547 95.882C47.3407 95.168 46.4587 94.818 45.4367 94.818C44.4147 94.818 43.5327 95.168 42.8187 95.882C42.1047 96.596 41.7547 97.464 41.7547 98.5C41.7547 99.536 42.1047 100.404 42.8187 101.118C43.5327 101.832 44.4147 102.182 45.4367 102.182C46.4587 102.182 47.3407 101.832 48.0547 101.118ZM45.4367 100.992C44.7507 100.992 44.1627 100.754 43.6867 100.278C43.2107 99.802 42.9727 99.214 42.9727 98.5C42.9727 97.786 43.2107 97.198 43.6867 96.722C44.1627 96.246 44.7507 96.008 45.4367 96.008C46.1367 96.008 46.7247 96.246 47.2007 96.722C47.6767 97.198 47.9147 97.786 47.9147 98.5C47.9147 99.214 47.6767 99.802 47.2007 100.278C46.7247 100.754 46.1367 100.992 45.4367 100.992ZM55.3985 98.71C55.3985 100.278 54.5865 101.02 53.3685 101.02C52.2905 101.02 51.6325 100.362 51.6325 99.228V95H50.4145V99.298C50.4145 101.076 51.4925 102.182 53.1305 102.182C54.1525 102.182 54.9085 101.79 55.3985 100.992V102H56.6165V95H55.3985V98.71ZM62.2789 95H60.4169V93.04L59.1989 93.404V95H57.8129V96.176H59.1989V99.97C59.1989 101.706 60.1509 102.28 62.2789 102V100.908C61.0329 100.964 60.4169 101.048 60.4169 99.97V96.176H62.2789V95ZM70.0854 99.06C70.1134 98.878 70.1274 98.696 70.1274 98.514C70.1274 97.492 69.8054 96.624 69.1474 95.91C68.5034 95.182 67.6634 94.818 66.6414 94.818C65.5634 94.818 64.6814 95.168 63.9954 95.868C63.3094 96.568 62.9734 97.45 62.9734 98.5C62.9734 99.564 63.3234 100.446 64.0094 101.146C64.7094 101.832 65.6194 102.182 66.7254 102.182C68.0974 102.182 69.1194 101.65 69.8054 100.6L68.7694 100.012C68.3494 100.698 67.6774 101.034 66.7534 101.034C65.4234 101.034 64.4574 100.306 64.2194 99.06H70.0854ZM66.6414 95.966C67.7614 95.966 68.6854 96.666 68.8954 97.996H64.2194C64.4294 96.764 65.3394 95.966 66.6414 95.966ZM72.7455 95H71.5275V102H72.7455V98.29C72.7455 97.52 72.9555 96.974 73.3895 96.624C73.8235 96.274 74.3275 96.12 74.9295 96.148V94.874C73.8795 94.874 73.1515 95.308 72.7455 96.176V95ZM84.4513 98.71C84.4513 100.278 83.6393 101.02 82.4213 101.02C81.3433 101.02 80.6853 100.362 80.6853 99.228V95H79.4673V99.298C79.4673 101.076 80.5453 102.182 82.1833 102.182C83.2053 102.182 83.9613 101.79 84.4513 100.992V102H85.6693V95H84.4513V98.71ZM91.0096 94.818C89.9876 94.818 89.2316 95.21 88.7416 96.008V95H87.5236V102H88.7416V98.29C88.7416 96.722 89.5536 95.98 90.7716 95.98C91.8496 95.98 92.5076 96.638 92.5076 97.772V102H93.7256V97.702C93.7256 95.924 92.6476 94.818 91.0096 94.818ZM100.144 102V91.78H98.926V102H100.144ZM107.91 101.118C108.624 100.404 108.988 99.536 108.988 98.5C108.988 97.464 108.624 96.596 107.91 95.882C107.196 95.168 106.314 94.818 105.292 94.818C104.27 94.818 103.388 95.168 102.674 95.882C101.96 96.596 101.61 97.464 101.61 98.5C101.61 99.536 101.96 100.404 102.674 101.118C103.388 101.832 104.27 102.182 105.292 102.182C106.314 102.182 107.196 101.832 107.91 101.118ZM105.292 100.992C104.606 100.992 104.018 100.754 103.542 100.278C103.066 99.802 102.828 99.214 102.828 98.5C102.828 97.786 103.066 97.198 103.542 96.722C104.018 96.246 104.606 96.008 105.292 96.008C105.992 96.008 106.58 96.246 107.056 96.722C107.532 97.198 107.77 97.786 107.77 98.5C107.77 99.214 107.532 99.802 107.056 100.278C106.58 100.754 105.992 100.992 105.292 100.992ZM116.234 96.204C115.632 95.28 114.75 94.818 113.602 94.818C112.608 94.818 111.754 95.168 111.068 95.882C110.382 96.582 110.032 97.436 110.032 98.458C110.032 99.48 110.382 100.334 111.068 101.048C111.754 101.762 112.608 102.112 113.602 102.112C114.736 102.112 115.618 101.65 116.234 100.712V101.706C116.234 103.036 115.352 103.848 113.896 103.848C112.762 103.848 111.992 103.456 111.614 102.672L110.55 103.274C111.124 104.38 112.3 104.982 113.868 104.982C114.848 104.982 115.688 104.688 116.388 104.114C117.088 103.54 117.438 102.742 117.438 101.706V95H116.234V96.204ZM116.234 98.458C116.234 99.172 115.996 99.76 115.52 100.236C115.044 100.712 114.456 100.95 113.742 100.95C113.028 100.95 112.44 100.712 111.964 100.236C111.488 99.76 111.25 99.172 111.25 98.458C111.25 97.758 111.488 97.17 111.964 96.694C112.44 96.218 113.028 95.98 113.742 95.98C114.456 95.98 115.044 96.218 115.52 96.694C115.996 97.17 116.234 97.758 116.234 98.458ZM125.191 101.118C125.905 100.404 126.269 99.536 126.269 98.5C126.269 97.464 125.905 96.596 125.191 95.882C124.477 95.168 123.595 94.818 122.573 94.818C121.551 94.818 120.669 95.168 119.955 95.882C119.241 96.596 118.891 97.464 118.891 98.5C118.891 99.536 119.241 100.404 119.955 101.118C120.669 101.832 121.551 102.182 122.573 102.182C123.595 102.182 124.477 101.832 125.191 101.118ZM122.573 100.992C121.887 100.992 121.299 100.754 120.823 100.278C120.347 99.802 120.109 99.214 120.109 98.5C120.109 97.786 120.347 97.198 120.823 96.722C121.299 96.246 121.887 96.008 122.573 96.008C123.273 96.008 123.861 96.246 124.337 96.722C124.813 97.198 125.051 97.786 125.051 98.5C125.051 99.214 124.813 99.802 124.337 100.278C123.861 100.754 123.273 100.992 122.573 100.992Z" fill="#5B6874"/>
<g clip-path="url(#clip0_1240_8908)">
<path d="M78.5104 45.9167H63.5625C62.4687 45.9167 61.5573 46.2812 61.0104 47.0104C60.2812 47.5573 59.9167 48.4687 59.9167 49.5625V71.4375C59.9167 72.5312 60.2812 73.4427 61.0104 73.9896C61.5573 74.7187 62.4687 75.0833 63.5625 75.0833H85.4375C86.7135 75.0833 87.625 74.5365 88.3542 73.625C88.7187 73.0781 89.0833 72.349 89.0833 71.4375V56.4896C89.0833 55.9427 88.901 55.3958 88.7187 54.849C88.5364 54.4844 88.3542 54.3021 87.9896 53.9375L81.0625 47.0104C80.6979 46.6458 80.3333 46.4635 79.9687 46.2812C79.4219 46.099 78.875 45.9167 78.5104 45.9167ZM81.9739 62.6875L75.9583 56.4896V69.7969H73.0417V56.4896L67.026 62.6875L65.0208 60.6823L74.5 51.2031L83.9792 60.6823L81.9739 62.6875Z" fill="#BFC6DA"/>
</g>
<defs>
<clipPath id="clip0_1240_8908">
<rect width="29.1667" height="29.1667" fill="white" transform="translate(59.9167 45.9167)"/>
</clipPath>
</defs>
</svg>
