<svg width="138" height="150" viewBox="0 0 138 150" fill="none" xmlns="http://www.w3.org/2000/svg">
<g clip-path="url(#clip0_3845_25429)">
<path d="M124.476 106.584C124.027 106.584 123.586 106.463 123.177 106.231L70.3788 75.7432C69.5771 75.2782 69.0801 74.4204 69.0801 73.4985V7.98576C69.0801 7.55286 69.3126 7.16004 69.6813 6.94359C70.0501 6.72714 70.5151 6.72714 70.8838 6.94359L126.464 39.0346C126.833 39.251 127.065 39.6438 127.065 40.0767V103.994C127.065 104.932 126.584 105.774 125.766 106.239C125.358 106.471 124.917 106.592 124.468 106.592L124.476 106.584ZM71.4931 10.0701V73.5065C71.4931 73.5706 71.5252 73.6348 71.5893 73.6668L124.388 104.146C124.388 104.146 124.484 104.203 124.572 104.146C124.668 104.09 124.668 104.01 124.668 103.986V40.7662L71.4931 10.0701Z" fill="#0C2F50"/>
<path d="M65.4498 77.9041C66.8032 75.0227 66.2857 71.9285 64.294 70.993C62.3023 70.0575 59.5906 71.6349 58.2372 74.5162C56.8838 77.3976 57.4012 80.4918 59.3929 81.4273C61.3846 82.3628 64.0964 80.7854 65.4498 77.9041Z" fill="#00B2FF"/>
<path d="M66.4698 78.1397C67.8232 75.2583 67.3058 72.1641 65.3141 71.2286C63.3224 70.2931 60.6106 71.8705 59.2572 74.7518C57.9038 77.6332 58.4212 80.7274 60.4129 81.6629C62.4046 82.5984 65.1164 81.021 66.4698 78.1397Z" fill="#00B2FF"/>
<path d="M65.3088 77.5943C66.2274 75.6387 65.8772 73.5391 64.5267 72.9047C63.1762 72.2704 61.3367 73.3415 60.4181 75.2971C59.4995 77.2528 59.8497 79.3524 61.2002 79.9867C62.5507 80.6211 64.3902 79.55 65.3088 77.5943Z" fill="#00B2FF"/>
<path d="M65.4498 77.9041C66.8032 75.0227 66.2857 71.9285 64.294 70.993C62.3023 70.0575 59.5906 71.6349 58.2372 74.5162C56.8838 77.3976 57.4012 80.4918 59.3929 81.4273C61.3846 82.3628 64.0964 80.7854 65.4498 77.9041Z" fill="#00B2FF"/>
<path d="M66.4698 78.1397C67.8232 75.2583 67.3058 72.1641 65.3141 71.2286C63.3224 70.2931 60.6106 71.8705 59.2572 74.7518C57.9038 77.6332 58.4212 80.7274 60.4129 81.6629C62.4046 82.5984 65.1164 81.021 66.4698 78.1397Z" fill="#00B2FF"/>
<path d="M65.3088 77.5943C66.2274 75.6387 65.8772 73.5391 64.5267 72.9047C63.1762 72.2704 61.3367 73.3415 60.4181 75.2971C59.4995 77.2528 59.8497 79.3524 61.2002 79.9867C62.5507 80.6211 64.3902 79.55 65.3088 77.5943Z" fill="#00B2FF"/>
<path d="M10.1773 110.158C11.5307 107.276 11.0133 104.182 9.02159 103.247C7.02988 102.311 4.31813 103.889 2.96472 106.77C1.61131 109.651 2.12876 112.745 4.12046 113.681C6.11216 114.617 8.82391 113.039 10.1773 110.158Z" fill="#00B2FF"/>
<path d="M11.2081 110.389C12.5615 107.508 12.0441 104.414 10.0523 103.478C8.06064 102.543 5.34889 104.12 3.99548 107.002C2.64208 109.883 3.15952 112.977 5.15122 113.913C7.14293 114.848 9.85468 113.271 11.2081 110.389Z" fill="#00B2FF"/>
<path d="M10.047 109.844C10.9656 107.888 10.6155 105.789 9.26497 105.154C7.91446 104.52 6.075 105.591 5.15641 107.547C4.23782 109.503 4.58797 111.602 5.93848 112.236C7.28899 112.871 9.12845 111.8 10.047 109.844Z" fill="#00B2FF"/>
<path d="M10.1773 110.158C11.5307 107.276 11.0133 104.182 9.02159 103.247C7.02988 102.311 4.31813 103.889 2.96472 106.77C1.61131 109.651 2.12876 112.745 4.12046 113.681C6.11216 114.617 8.82391 113.039 10.1773 110.158Z" fill="#00B2FF"/>
<path d="M11.2081 110.389C12.5615 107.508 12.0441 104.414 10.0523 103.478C8.06064 102.543 5.34889 104.12 3.99548 107.002C2.64208 109.883 3.15952 112.977 5.15122 113.913C7.14293 114.848 9.85468 113.271 11.2081 110.389Z" fill="#00B2FF"/>
<path d="M10.047 109.844C10.9656 107.888 10.6155 105.789 9.26497 105.154C7.91446 104.52 6.075 105.591 5.15641 107.547C4.23782 109.503 4.58797 111.602 5.93848 112.236C7.28899 112.871 9.12845 111.8 10.047 109.844Z" fill="#00B2FF"/>
<path d="M57.5441 147.701L123.907 109.389C125.125 108.684 125.871 107.393 125.871 105.99V104.251L70.2907 76.168L0 112.74V114.48C0 115.883 0.745556 117.182 1.9641 117.879L53.6159 147.701C54.8344 148.407 56.3255 148.407 57.5441 147.701Z" fill="#0C2F50"/>
<path d="M57.5441 143.693L125.871 104.243L70.2907 72.1516L0 112.74L53.6159 143.693C54.8344 144.398 56.3255 144.398 57.5441 143.693Z" fill="#457198"/>
<path d="M125.863 97.0277C125.726 97.0277 125.59 96.9956 125.462 96.9235L69.8819 64.8325C69.4971 64.608 69.3689 64.119 69.5853 63.7342C69.8018 63.3494 70.2988 63.2212 70.6836 63.4376L126.264 95.5286C126.648 95.753 126.777 96.2421 126.56 96.6269C126.408 96.8834 126.143 97.0277 125.863 97.0277Z" fill="#0C2F50"/>
<path d="M125.863 57.3207C125.662 57.3207 125.454 57.2726 125.261 57.1603L69.6894 25.0694C69.1122 24.7407 68.9198 24.0031 69.2484 23.4259C69.5771 22.8487 70.3147 22.6563 70.8919 22.985L126.472 55.076C127.049 55.4047 127.241 56.1422 126.913 56.7194C126.688 57.1042 126.287 57.3207 125.871 57.3207H125.863Z" fill="#0C2F50"/>
<path d="M70.2906 9.18827C69.8737 9.18827 69.4729 8.97182 69.2484 8.58702C68.9198 8.00981 69.1122 7.28029 69.6894 6.94359L80.6162 0.634423C81.1934 0.305737 81.9229 0.498138 82.2596 1.07534C82.5883 1.65255 82.3959 2.38207 81.8187 2.71877L70.8919 9.02794C70.6995 9.14017 70.499 9.18827 70.2906 9.18827Z" fill="#0C2F50"/>
<path d="M125.871 41.2792C125.454 41.2792 125.053 41.0628 124.829 40.678C124.5 40.1008 124.692 39.3713 125.269 39.0346L136.196 32.7254C136.773 32.3887 137.511 32.5891 137.84 33.1663C138.168 33.7435 137.976 34.473 137.399 34.8097L126.472 41.1189C126.28 41.2311 126.079 41.2792 125.871 41.2792Z" fill="#0C2F50"/>
<path d="M120.777 113.547C122.131 110.665 121.613 107.571 119.622 106.636C117.63 105.7 114.918 107.277 113.565 110.159C112.211 113.04 112.729 116.134 114.721 117.07C116.712 118.005 119.424 116.428 120.777 113.547Z" fill="#00B2FF"/>
<path d="M121.797 113.782C123.151 110.901 122.633 107.807 120.642 106.871C118.65 105.936 115.938 107.513 114.585 110.394C113.231 113.276 113.749 116.37 115.741 117.305C117.732 118.241 120.444 116.664 121.797 113.782Z" fill="#7BD7FF"/>
<path d="M120.636 113.237C121.555 111.281 121.205 109.182 119.854 108.547C118.504 107.913 116.664 108.984 115.746 110.94C114.827 112.895 115.177 114.995 116.528 115.629C117.878 116.264 119.718 115.193 120.636 113.237Z" fill="#3FC5FF"/>
<path d="M120.777 113.547C122.131 110.665 121.613 107.571 119.622 106.636C117.63 105.7 114.918 107.277 113.565 110.159C112.211 113.04 112.729 116.134 114.721 117.07C116.712 118.005 119.424 116.428 120.777 113.547Z" fill="#00B2FF"/>
<path d="M121.797 113.782C123.151 110.901 122.633 107.807 120.642 106.871C118.65 105.936 115.938 107.513 114.585 110.394C113.231 113.276 113.749 116.37 115.741 117.305C117.732 118.241 120.444 116.664 121.797 113.782Z" fill="#7BD7FF"/>
<path d="M120.636 113.237C121.555 111.281 121.205 109.182 119.854 108.547C118.504 107.913 116.664 108.984 115.746 110.94C114.827 112.895 115.177 114.995 116.528 115.629C117.878 116.264 119.718 115.193 120.636 113.237Z" fill="#3FC5FF"/>
<path d="M65.505 145.8C66.8584 142.919 66.3409 139.825 64.3492 138.889C62.3575 137.954 59.6458 139.531 58.2924 142.412C56.939 145.294 57.4564 148.388 59.4481 149.324C61.4398 150.259 64.1516 148.682 65.505 145.8Z" fill="#00B2FF"/>
<path d="M66.5357 146.032C67.8891 143.151 67.3717 140.056 65.38 139.121C63.3883 138.185 60.6765 139.763 59.3231 142.644C57.9697 145.526 58.4872 148.62 60.4789 149.555C62.4706 150.491 65.1823 148.913 66.5357 146.032Z" fill="#7BD7FF"/>
<path d="M65.3747 145.487C66.2933 143.531 65.9431 141.431 64.5926 140.797C63.2421 140.163 61.4026 141.234 60.484 143.189C59.5655 145.145 59.9156 147.245 61.2661 147.879C62.6166 148.513 64.4561 147.442 65.3747 145.487Z" fill="#3FC5FF"/>
<path d="M65.505 145.8C66.8584 142.919 66.3409 139.825 64.3492 138.889C62.3575 137.954 59.6458 139.531 58.2924 142.412C56.939 145.294 57.4564 148.388 59.4481 149.324C61.4398 150.259 64.1516 148.682 65.505 145.8Z" fill="#00B2FF"/>
<path d="M66.5357 146.032C67.8891 143.151 67.3717 140.056 65.38 139.121C63.3883 138.185 60.6765 139.763 59.3231 142.644C57.9697 145.526 58.4872 148.62 60.4789 149.555C62.4706 150.491 65.1823 148.913 66.5357 146.032Z" fill="#7BD7FF"/>
<path d="M65.3747 145.487C66.2933 143.531 65.9431 141.431 64.5926 140.797C63.2421 140.163 61.4026 141.234 60.484 143.189C59.5655 145.145 59.9156 147.245 61.2661 147.879C62.6166 148.513 64.4561 147.442 65.3747 145.487Z" fill="#3FC5FF"/>
<path d="M73.9704 102.399L50.5215 88.8587V61.7942L73.9704 75.3264V102.399Z" fill="#FFC24B"/>
<path d="M73.9702 102.399L97.4111 88.8587V61.7942L73.9702 75.3264V102.399Z" fill="#FFB931"/>
<path d="M50.5215 61.7942L73.9704 75.3264L97.4113 61.7942L73.9704 48.2539L50.5215 61.7942Z" fill="#FFDA93"/>
<path d="M73.0005 100.491L69.9141 98.7113V95.1519L73.0005 96.9316V100.491Z" fill="#011120"/>
<path d="M61.3359 68.0794L64.1819 69.7228L87.6228 56.1906L84.7849 54.5471L61.3359 68.0794Z" fill="#011120"/>
<path d="M61.3359 74.1721L64.1819 75.8155V69.7228L61.3359 68.0793V74.1721Z" fill="#011120"/>
<path d="M98.2771 116.139L74.8281 102.607V75.5347L98.2771 89.0669V116.139Z" fill="#FFC24B"/>
<path d="M98.2769 116.139L121.718 102.607V75.5347L98.2769 89.0669V116.139Z" fill="#FFB931"/>
<path d="M74.8281 75.5347L98.2771 89.0669L121.718 75.5347L98.2771 62.0024L74.8281 75.5347Z" fill="#FFDA93"/>
<path d="M97.3071 114.24L94.2207 112.46V108.9L97.3071 110.68V114.24Z" fill="#011120"/>
<path d="M85.6426 81.8279L88.4885 83.4713L111.937 69.931L109.092 68.2876L85.6426 81.8279Z" fill="#011120"/>
<path d="M85.6426 87.9126L88.4885 89.556V83.4713L85.6426 81.8279V87.9126Z" fill="#011120"/>
<path d="M51.5957 116.131L73.3932 103.545V86.7661L51.5957 99.3524V116.131Z" fill="#FFC24B"/>
<path d="M51.5958 116.131L29.7983 103.545V86.7661L51.5958 99.3524V116.131Z" fill="#FFB931"/>
<path d="M73.3933 86.7662L51.5958 99.3525L29.7983 86.7662L51.5958 74.1799L73.3933 86.7662Z" fill="#FFDA93"/>
<path d="M52.502 114.36L55.3639 112.708V109.397L52.502 111.049V114.36Z" fill="#011120"/>
<path d="M63.3405 92.6185L60.695 94.1417L38.8975 81.5554L41.543 80.0322L63.3405 92.6185Z" fill="#011120"/>
<path d="M63.3403 98.2782L60.6948 99.8014V94.1416L63.3403 92.6184V98.2782Z" fill="#011120"/>
<path d="M74.8281 129.872L96.6256 117.286V100.507L74.8281 113.093V129.872Z" fill="#FFC24B"/>
<path d="M74.8283 129.872L53.0308 117.286V100.507L74.8283 113.093V129.872Z" fill="#FFB931"/>
<path d="M96.6257 100.507L74.8282 113.093L53.0308 100.507L74.8282 87.9207L96.6257 100.507Z" fill="#FFDA93"/>
<path d="M75.7344 128.101L78.5964 126.449V123.138L75.7344 124.798V128.101Z" fill="#011120"/>
<path d="M86.5729 106.359L83.9274 107.882L62.1299 95.3041L64.7754 93.7729L86.5729 106.359Z" fill="#011120"/>
<path d="M86.5728 112.019L83.9272 113.542V107.882L86.5728 106.359V112.019Z" fill="#011120"/>
<path d="M32.5722 118.079L22.6475 112.347V100.884L32.5722 106.615V118.079Z" fill="#FFC24B"/>
<path d="M32.5723 118.079L42.497 112.347V100.884L32.5723 106.615V118.079Z" fill="#FFB931"/>
<path d="M22.6475 100.884L32.5722 106.616L42.4969 100.884L32.5722 95.1516L22.6475 100.884Z" fill="#FFDA93"/>
<path d="M32.1632 117.27L30.8564 116.516V115.009L32.1632 115.763V117.27Z" fill="#011120"/>
<path d="M27.2251 103.553L28.4276 104.243L38.3603 98.5107L37.1498 97.8213L27.2251 103.553Z" fill="#011120"/>
<path d="M27.2251 106.127L28.4276 106.824V104.243L27.2251 103.553V106.127Z" fill="#011120"/>
<path d="M40.7008 127.708L30.7681 121.976V110.52L40.7008 116.244V127.708Z" fill="#FFC24B"/>
<path d="M40.7007 127.708L50.6254 121.976V110.52L40.7007 116.244V127.708Z" fill="#FFB931"/>
<path d="M30.7681 110.52L40.7008 116.244L50.6255 110.52L40.7008 104.788L30.7681 110.52Z" fill="#FFDA93"/>
<path d="M40.2838 126.906L38.9771 126.152V124.645L40.2838 125.399V126.906Z" fill="#BFC6DA"/>
<path d="M35.3535 113.181L36.556 113.879L46.4807 108.147L45.2782 107.449L35.3535 113.181Z" fill="#011120"/>
<path d="M35.3535 115.755L36.556 116.452V113.879L35.3535 113.181V115.755Z" fill="#011120"/>
<path d="M61.3358 136.478L51.4111 130.746V119.282L61.3358 125.014V136.478Z" fill="#FFC24B"/>
<path d="M61.3359 136.478L71.2607 130.746V119.282L61.3359 125.014V136.478Z" fill="#FFB931"/>
<path d="M51.4111 119.282L61.3359 125.014L71.2606 119.282L61.3359 113.558L51.4111 119.282Z" fill="#FFDA93"/>
<path d="M60.9268 135.668L59.6201 134.915V133.407L60.9268 134.161V135.668Z" fill="#BFC6DA"/>
<path d="M55.9888 121.952L57.1993 122.641L67.124 116.917L65.9215 116.22L55.9888 121.952Z" fill="#011120"/>
<path d="M55.9888 124.525L57.1993 125.222V122.641L55.9888 121.952V124.525Z" fill="#011120"/>
<path d="M93.2021 84.313L115 71.7268V54.9478L93.2021 67.534V84.313Z" fill="#FFC24B"/>
<path d="M93.2023 84.313L71.4048 71.7268V54.9478L93.2023 67.534V84.313Z" fill="#FFB931"/>
<path d="M115 54.9478L93.2023 67.5341L71.4048 54.9478L93.2023 42.3616L115 54.9478Z" fill="#FFDA93"/>
<path d="M94.1001 82.5415L96.9701 80.89V77.5791L94.1001 79.2305V82.5415Z" fill="#011120"/>
<path d="M104.939 60.8001L102.301 62.3233L80.5039 49.737L83.1494 48.2139L104.939 60.8001Z" fill="#011120"/>
<path d="M104.939 66.4599L102.301 67.983V62.3232L104.939 60.8V66.4599Z" fill="#011120"/>
<path d="M62.0174 100.314L44.8135 90.3816V70.5242L62.0174 80.4489V100.314Z" fill="#FFC24B"/>
<path d="M62.0176 100.314L79.2135 90.3816V70.5242L62.0176 80.4489V100.314Z" fill="#FFB931"/>
<path d="M44.8135 70.5243L62.0174 80.449L79.2133 70.5243L62.0174 60.5916L44.8135 70.5243Z" fill="#FFDA93"/>
<path d="M61.3037 98.9114L59.043 97.6127V94.9993L61.3037 96.306V98.9114Z" fill="#BFC6DA"/>
<path d="M52.75 75.142L54.8343 76.3445L72.0383 66.4117L69.9459 65.2092L52.75 75.142Z" fill="#011120"/>
<path d="M52.75 79.6072L54.8343 80.8097V76.3444L52.75 75.1418V79.6072Z" fill="#011120"/>
</g>
<defs>
<clipPath id="clip0_3845_25429">
<rect width="138" height="149.352" fill="white" transform="translate(0 0.474121)"/>
</clipPath>
</defs>
</svg>
