<svg width="128" height="133" viewBox="0 0 128 133" fill="none" xmlns="http://www.w3.org/2000/svg">
<rect x="60.916" y="0.000244141" width="67.0843" height="67.0843" rx="12" fill="#F61D51"/>
<g clip-path="url(#clip0_3870_15171)">
<path d="M104.877 20.6209C104.717 20.3895 104.532 20.1774 104.325 19.9878C103.996 19.689 103.728 19.3355 103.53 18.9499C103.266 18.4325 103.122 17.854 103.122 17.2628V14.9458H85.8155V17.2628C85.8155 17.6741 85.7485 18.0758 85.6177 18.455C85.4199 19.0366 85.0754 19.5669 84.6128 19.991C84.4693 20.1228 84.3353 20.2642 84.2141 20.4184C83.6973 21.0676 83.4102 21.8774 83.4102 22.7193V44.4685C83.4102 47.139 88.3613 49.3049 94.4672 49.3049C100.573 49.3049 105.524 47.139 105.524 44.4685V22.7161C105.524 21.9609 105.295 21.2315 104.873 20.6241L104.877 20.6209Z" fill="#FFE6B5"/>
<path d="M94.4701 28.298C88.3642 28.298 83.4131 26.1321 83.4131 23.4617V44.4685C83.4131 47.139 88.3642 49.3049 94.4701 49.3049C100.576 49.3049 105.527 47.139 105.527 44.4685V23.4617C105.527 26.1321 100.576 28.298 94.4701 28.298Z" fill="#FFC24B"/>
<path d="M94.4701 33.1342C88.3642 33.1342 83.4131 30.9683 83.4131 28.2979V37.9674C83.4131 40.6378 88.3642 42.8037 94.4701 42.8037C100.576 42.8037 105.527 40.6378 105.527 37.9674V28.2979C105.527 30.9683 100.576 33.1342 94.4701 33.1342Z" fill="#FFFAF0"/>
<path d="M94.4701 28.298C100.577 28.298 105.527 26.1327 105.527 23.4616C105.527 20.7906 100.577 18.6252 94.4701 18.6252C88.3635 18.6252 83.4131 20.7906 83.4131 23.4616C83.4131 26.1327 88.3635 28.298 94.4701 28.298Z" fill="#FFB931"/>
<path d="M94.4577 18.8404C99.2447 18.8404 103.125 17.1442 103.125 15.0517C103.125 12.9592 99.2447 11.2629 94.4577 11.2629C89.6707 11.2629 85.79 12.9592 85.79 15.0517C85.79 17.1442 89.6707 18.8404 94.4577 18.8404Z" fill="#2A547B"/>
<path d="M103.125 12.616H85.793V15.0518H103.125V12.616Z" fill="#2A547B"/>
<path d="M94.4577 16.4047C99.2447 16.4047 103.125 14.7084 103.125 12.6159C103.125 10.5234 99.2447 8.82715 94.4577 8.82715C89.6707 8.82715 85.79 10.5234 85.79 12.6159C85.79 14.7084 89.6707 16.4047 94.4577 16.4047Z" fill="#C1CBEA"/>
<path d="M94.4574 18.487C89.8062 18.487 86.0131 16.8867 85.8025 14.875C85.7962 14.9328 85.793 14.9939 85.793 15.0517C85.793 17.1438 89.6722 18.8405 94.4606 18.8405C99.249 18.8405 103.128 17.1438 103.128 15.0517C103.128 14.9907 103.125 14.9328 103.119 14.875C102.908 16.8867 99.1118 18.487 94.4638 18.487H94.4574Z" fill="#011120"/>
<path d="M116.76 29.5738C116.6 29.3424 116.415 29.1303 116.208 28.9407C115.879 28.6419 115.611 28.2884 115.414 27.9027C115.149 27.3854 115.005 26.8069 115.005 26.2156V23.8987H97.6988V26.2156C97.6988 26.627 97.6318 27.0287 97.501 27.4079C97.3033 27.9895 96.9587 28.5197 96.4961 28.9439C96.3526 29.0757 96.2186 29.2171 96.0974 29.3713C95.5806 30.0205 95.2935 30.8303 95.2935 31.6722V53.4246C95.2935 56.0951 100.245 58.261 106.351 58.261C112.456 58.261 117.408 56.0951 117.408 53.4246V31.669C117.408 30.9138 117.178 30.1844 116.757 29.577L116.76 29.5738Z" fill="#FFE6B5"/>
<path d="M106.351 37.2509C100.245 37.2509 95.2935 35.085 95.2935 32.4146V53.4214C95.2935 56.0919 100.245 58.2578 106.351 58.2578C112.456 58.2578 117.408 56.0919 117.408 53.4214V32.4146C117.408 35.085 112.456 37.2509 106.351 37.2509Z" fill="#FFC24B"/>
<path d="M106.351 42.0871C100.245 42.0871 95.2935 39.9212 95.2935 37.2507V46.9203C95.2935 49.5907 100.245 51.7566 106.351 51.7566C112.456 51.7566 117.408 49.5907 117.408 46.9203V37.2507C117.408 39.9212 112.456 42.0871 106.351 42.0871Z" fill="#FFFAF0"/>
<path d="M106.351 37.2509C112.457 37.2509 117.408 35.0855 117.408 32.4145C117.408 29.7434 112.457 27.5781 106.351 27.5781C100.244 27.5781 95.2935 29.7434 95.2935 32.4145C95.2935 35.0855 100.244 37.2509 106.351 37.2509Z" fill="#FFB931"/>
<path d="M106.338 27.7965C111.125 27.7965 115.005 26.1002 115.005 24.0077C115.005 21.9153 111.125 20.219 106.338 20.219C101.551 20.219 97.6699 21.9153 97.6699 24.0077C97.6699 26.1002 101.551 27.7965 106.338 27.7965Z" fill="#2A547B"/>
<path d="M115.005 21.5688H97.6733V24.0047H115.005V21.5688Z" fill="#2A547B"/>
<path d="M106.338 25.3575C111.125 25.3575 115.005 23.6613 115.005 21.5688C115.005 19.4763 111.125 17.78 106.338 17.78C101.551 17.78 97.6699 19.4763 97.6699 21.5688C97.6699 23.6613 101.551 25.3575 106.338 25.3575Z" fill="#C1CBEA"/>
<path d="M106.338 27.4399C101.687 27.4399 97.8935 25.8396 97.6829 23.8279C97.6765 23.8857 97.6733 23.9468 97.6733 24.0046C97.6733 26.0966 101.553 27.7934 106.341 27.7934C111.129 27.7934 115.009 26.0966 115.009 24.0046C115.009 23.9436 115.005 23.8857 114.999 23.8279C114.788 25.8396 110.992 27.4399 106.344 27.4399H106.338Z" fill="#011120"/>
<path d="M92.9743 29.5738C92.8148 29.3424 92.6298 29.1303 92.4224 28.9407C92.0938 28.6419 91.8258 28.2884 91.6281 27.9027C91.3633 27.3854 91.2197 26.8069 91.2197 26.2156V23.8987H73.9132V26.2156C73.9132 26.627 73.8462 27.0287 73.7154 27.4079C73.5176 27.9895 73.1731 28.5197 72.7105 28.9439C72.5669 29.0757 72.433 29.2171 72.3117 29.3713C71.7949 30.0205 71.5078 30.8303 71.5078 31.6722V53.4246C71.5078 56.0951 76.4589 58.261 82.5649 58.261C88.6708 58.261 93.6219 56.0951 93.6219 53.4246V31.669C93.6219 30.9138 93.3922 30.1844 92.9711 29.577L92.9743 29.5738Z" fill="#FFE6B5"/>
<path d="M82.5649 37.2509C76.4589 37.2509 71.5078 35.085 71.5078 32.4146V53.4214C71.5078 56.0919 76.4589 58.2578 82.5649 58.2578C88.6708 58.2578 93.6219 56.0919 93.6219 53.4214V32.4146C93.6219 35.085 88.6708 37.2509 82.5649 37.2509Z" fill="#FFC24B"/>
<path d="M82.5649 42.0871C76.4589 42.0871 71.5078 39.9212 71.5078 37.2507V46.9203C71.5078 49.5907 76.4589 51.7566 82.5649 51.7566C88.6708 51.7566 93.6219 49.5907 93.6219 46.9203V37.2507C93.6219 39.9212 88.6708 42.0871 82.5649 42.0871Z" fill="#FFFAF0"/>
<path d="M82.5649 37.2509C88.6715 37.2509 93.6219 35.0855 93.6219 32.4145C93.6219 29.7434 88.6715 27.5781 82.5649 27.5781C76.4582 27.5781 71.5078 29.7434 71.5078 32.4145C71.5078 35.0855 76.4582 37.2509 82.5649 37.2509Z" fill="#FFB931"/>
<path d="M82.5553 27.7965C87.3423 27.7965 91.2229 26.1002 91.2229 24.0077C91.2229 21.9153 87.3423 20.219 82.5553 20.219C77.7683 20.219 73.8877 21.9153 73.8877 24.0077C73.8877 26.1002 77.7683 27.7965 82.5553 27.7965Z" fill="#2A547B"/>
<path d="M91.2198 21.5688H73.8877V24.0047H91.2198V21.5688Z" fill="#2A547B"/>
<path d="M82.5553 25.3575C87.3423 25.3575 91.2229 23.6613 91.2229 21.5688C91.2229 19.4763 87.3423 17.78 82.5553 17.78C77.7683 17.78 73.8877 19.4763 73.8877 21.5688C73.8877 23.6613 77.7683 25.3575 82.5553 25.3575Z" fill="#C1CBEA"/>
<path d="M82.5551 27.4399C77.9038 27.4399 74.1107 25.8396 73.9002 23.8279C73.8938 23.8857 73.8906 23.9468 73.8906 24.0046C73.8906 26.0966 77.7698 27.7934 82.5582 27.7934C87.3467 27.7934 91.2259 26.0966 91.2259 24.0046C91.2259 23.9436 91.2227 23.8857 91.2163 23.8279C91.0058 25.8396 87.2095 27.4399 82.5614 27.4399H82.5551Z" fill="#011120"/>
</g>
<rect x="69.3975" y="82.5063" width="50.1205" height="50.1205" rx="12" fill="#00B2FF"/>
<g clip-path="url(#clip1_3870_15171)">
<path d="M99.6115 101.55L97.8592 98.7421C97.2995 97.8457 97.0018 96.8038 97.0018 95.7427V90.0889H91.3718V95.7408C91.3718 96.8038 91.0741 97.8438 90.5144 98.7401L88.7621 101.548C88.2025 102.444 87.9048 103.486 87.9048 104.547V119.22C87.9048 120.89 90.7179 122.244 94.1868 122.244C97.6557 122.244 100.469 120.89 100.469 119.22V104.549C100.469 103.486 100.171 102.446 99.6115 101.55Z" fill="#DBF4FF"/>
<path d="M94.1887 88.4417C92.4665 88.4417 91.0703 89.1139 91.0703 89.9432C91.0703 90.0045 91.0797 90.0658 91.0948 90.1252L91.3737 93.0115C91.3737 93.7604 92.6342 94.3656 94.1887 94.3656C95.7432 94.3656 97.0037 93.7584 97.0037 93.0115L97.3071 89.9432C97.3071 89.1139 95.9109 88.4417 94.1887 88.4417Z" fill="#7BD7FF"/>
<path d="M96.9831 100.052C96.137 100.163 95.276 100.085 94.4639 99.8222L94.3546 99.7878C93.0695 99.3721 91.3888 100.182 90.1377 100.688C89.7005 100.862 89.0297 102.174 89.0297 102.174C88.4965 103.028 88.2139 104.017 88.2139 105.028V118.981C88.2139 120.568 90.8876 121.855 94.1869 121.855C97.4862 121.855 100.16 120.568 100.16 118.981V105.028C100.16 104.019 99.8772 103.028 99.344 102.174L98.4603 100.757C98.1438 100.249 97.5672 99.9755 96.9812 100.052H96.9831Z" fill="white"/>
<path d="M98.8012 101.301C98.8012 101.301 98.6938 102.189 97.5294 102.358C96.8982 102.45 96.233 102.182 95.7563 101.915C95.2796 101.649 94.7275 101.666 94.264 101.925L93.6912 102.243C93.2296 102.5 92.6718 102.502 92.2064 102.251C91.8805 102.074 91.5036 102.021 91.1437 102.099L89.9548 102.358C89.9548 102.358 89.1822 102.004 89.6307 101.209" fill="white"/>
<path d="M97.0112 100.052H96.9961C96.1463 100.167 95.2834 100.087 94.4675 99.8222L94.3582 99.7877C93.32 99.4506 91.9539 99.8394 90.8046 100.268C90.2996 100.456 89.8719 100.809 89.5836 101.27H89.5911C89.6005 101.251 89.6081 101.234 89.6175 101.215H89.6231C89.1917 102.004 89.9567 102.352 89.9567 102.352L91.1494 102.092C91.5206 102.011 91.9031 102.082 92.2422 102.258C92.7039 102.498 93.2503 102.49 93.7063 102.237L94.281 101.919C94.7464 101.661 95.3135 101.651 95.7789 101.91C96.2443 102.168 96.9245 102.444 97.5576 102.352C98.7277 102.182 98.8351 101.291 98.8351 101.291L98.4828 100.742C98.1644 100.244 97.5934 99.9754 97.0131 100.052H97.0112Z" fill="#FFFAF0"/>
<path d="M94.1888 109.632C90.7199 109.632 87.9067 108.278 87.9067 106.608V111.894C87.9067 113.564 90.7199 114.918 94.1888 114.918C97.6576 114.918 100.471 113.564 100.471 111.894V106.608C100.471 108.278 97.6576 109.632 94.1888 109.632Z" fill="#FFE6B5"/>
<path d="M99.8903 116.286C99.8903 116.286 99.8508 117.703 99.8903 118.406C99.9299 119.109 99.8395 119.595 99.3401 120.082C98.8408 120.568 97.6632 121.187 97.0131 121.16C96.3631 121.133 97.5106 120.484 98.6957 119.511C99.3383 118.984 99.4796 117.636 99.4664 116.678C99.4532 115.721 99.8922 116.288 99.8922 116.288L99.8903 116.286Z" fill="#DBF4FF"/>
<path d="M106.79 105.995L105.038 103.187C104.478 102.291 104.181 101.249 104.181 100.188V94.5342H98.5505V100.186C98.5505 101.249 98.2528 102.289 97.6932 103.185L95.9408 105.993C95.3812 106.89 95.0835 107.931 95.0835 108.993V123.665C95.0835 125.336 97.8966 126.69 101.366 126.69C104.834 126.69 107.648 125.336 107.648 123.665V108.994C107.648 107.931 107.35 106.891 106.79 105.995Z" fill="#DBF4FF"/>
<path d="M101.365 92.8889C99.6433 92.8889 98.2471 93.5612 98.2471 94.3905C98.2471 94.4518 98.2565 94.5131 98.2716 94.5724L98.5504 97.4587C98.5504 98.2076 99.811 98.8128 101.365 98.8128C102.92 98.8128 104.181 98.2057 104.181 97.4587L104.484 94.3905C104.484 93.5612 103.088 92.8889 101.365 92.8889Z" fill="#7BD7FF"/>
<path d="M104.162 104.499C103.316 104.61 102.455 104.532 101.643 104.27L101.533 104.235C100.248 103.819 98.5675 104.63 97.3164 105.135C96.8792 105.309 96.2084 106.621 96.2084 106.621C95.6752 107.476 95.3926 108.464 95.3926 109.475V123.428C95.3926 125.016 98.0663 126.303 101.366 126.303C104.665 126.303 107.339 125.016 107.339 123.428V109.473C107.339 108.464 107.056 107.474 106.523 106.62L105.639 105.202C105.322 104.695 104.746 104.421 104.16 104.497L104.162 104.499Z" fill="white"/>
<path d="M105.98 105.748C105.98 105.748 105.873 106.637 104.708 106.805C104.077 106.897 103.412 106.629 102.935 106.363C102.458 106.097 101.906 106.114 101.443 106.372L100.87 106.69C100.408 106.947 99.8506 106.949 99.3851 106.698C99.0592 106.522 98.6823 106.468 98.3224 106.547L97.1335 106.805C97.1335 106.805 96.361 106.451 96.8094 105.656" fill="white"/>
<path d="M104.19 104.497H104.175C103.325 104.612 102.462 104.532 101.646 104.268L101.537 104.233C100.499 103.896 99.1326 104.285 97.9833 104.714C97.4783 104.901 97.0506 105.254 96.7623 105.715H96.7698C96.7792 105.696 96.7868 105.679 96.7962 105.66H96.8019C96.3704 106.449 97.1354 106.798 97.1354 106.798L98.3281 106.537C98.6993 106.457 99.0818 106.528 99.4209 106.704C99.8826 106.943 100.429 106.935 100.885 106.683L101.46 106.365C101.925 106.106 102.492 106.097 102.958 106.355C103.423 106.614 104.103 106.89 104.736 106.798C105.906 106.627 106.014 105.737 106.014 105.737L105.662 105.187C105.343 104.689 104.772 104.421 104.192 104.497H104.19Z" fill="#FFFAF0"/>
<path d="M101.366 114.079C97.8966 114.079 95.0835 112.725 95.0835 111.055V116.341C95.0835 118.011 97.8966 119.366 101.366 119.366C104.834 119.366 107.648 118.011 107.648 116.341V111.055C107.648 112.725 104.834 114.079 101.366 114.079Z" fill="#FFE6B5"/>
<path d="M107.067 120.733C107.067 120.733 107.028 122.15 107.067 122.853C107.107 123.556 107.016 124.043 106.517 124.529C106.018 125.016 104.84 125.634 104.19 125.607C103.54 125.581 104.687 124.931 105.872 123.958C106.515 123.432 106.656 122.083 106.643 121.126C106.63 120.168 107.069 120.735 107.069 120.735L107.067 120.733Z" fill="#DBF4FF"/>
<path d="M92.9753 105.995L91.2229 103.187C90.6633 102.291 90.3656 101.249 90.3656 100.188V94.5342H84.7355V100.186C84.7355 101.249 84.4378 102.289 83.8782 103.185L82.1259 105.993C81.5663 106.89 81.2686 107.931 81.2686 108.993V123.665C81.2686 125.336 84.0817 126.69 87.5506 126.69C91.0194 126.69 93.8326 125.336 93.8326 123.665V108.994C93.8326 107.931 93.5349 106.891 92.9753 105.995Z" fill="#DBF4FF"/>
<path d="M87.551 92.8889C85.8288 92.8889 84.4326 93.5612 84.4326 94.3905C84.4326 94.4518 84.442 94.5131 84.4571 94.5724L84.736 97.4587C84.736 98.2076 85.9965 98.8128 87.551 98.8128C89.1055 98.8128 90.3661 98.2057 90.3661 97.4587L90.6694 94.3905C90.6694 93.5612 89.2732 92.8889 87.551 92.8889Z" fill="#7BD7FF"/>
<path d="M90.3454 104.499C89.4994 104.61 88.6383 104.532 87.8262 104.27L87.7169 104.235C86.4318 103.819 84.7511 104.63 83.5 105.135C83.0628 105.309 82.392 106.621 82.392 106.621C81.8588 107.476 81.5762 108.464 81.5762 109.475V123.428C81.5762 125.016 84.2499 126.303 87.5492 126.303C90.8485 126.303 93.5222 125.016 93.5222 123.428V109.473C93.5222 108.464 93.2395 107.474 92.7063 106.62L91.8226 105.202C91.5061 104.695 90.9295 104.421 90.3435 104.497L90.3454 104.499Z" fill="white"/>
<path d="M92.163 105.748C92.163 105.748 92.0556 106.637 90.8912 106.805C90.26 106.897 89.5948 106.629 89.1181 106.363C88.6414 106.097 88.0893 106.114 87.6258 106.372L87.053 106.69C86.5914 106.947 86.0337 106.949 85.5683 106.698C85.2423 106.522 84.8654 106.468 84.5055 106.547L83.3166 106.805C83.3166 106.805 82.5441 106.451 82.9925 105.656" fill="white"/>
<path d="M90.3735 104.497H90.3584C89.5087 104.612 88.6457 104.532 87.8298 104.268L87.7205 104.233C86.6823 103.896 85.3162 104.285 84.1669 104.714C83.6619 104.901 83.2342 105.254 82.9459 105.715H82.9534C82.9628 105.696 82.9704 105.679 82.9798 105.66H82.9855C82.554 106.449 83.319 106.798 83.319 106.798L84.5117 106.537C84.8829 106.457 85.2654 106.528 85.6045 106.704C86.0662 106.943 86.6126 106.935 87.0686 106.683L87.6433 106.365C88.1087 106.106 88.6758 106.097 89.1412 106.355C89.6066 106.614 90.2868 106.89 90.9199 106.798C92.09 106.627 92.1974 105.737 92.1974 105.737L91.8451 105.187C91.5267 104.689 90.9557 104.421 90.3754 104.497H90.3735Z" fill="#FFFAF0"/>
<path d="M87.5506 114.079C84.0817 114.079 81.2686 112.725 81.2686 111.055V116.341C81.2686 118.011 84.0817 119.366 87.5506 119.366C91.0194 119.366 93.8326 118.011 93.8326 116.341V111.055C93.8326 112.725 91.0194 114.079 87.5506 114.079Z" fill="#FFE6B5"/>
<path d="M93.2521 120.733C93.2521 120.733 93.2126 122.15 93.2521 122.853C93.2917 123.556 93.2013 124.043 92.702 124.529C92.2026 125.016 91.025 125.634 90.3749 125.607C89.7249 125.581 90.8724 124.931 92.0575 123.958C92.7001 123.432 92.8414 122.083 92.8282 121.126C92.815 120.168 93.254 120.735 93.254 120.735L93.2521 120.733Z" fill="#DBF4FF"/>
</g>
<rect y="70.1689" width="58.6024" height="58.6024" rx="12" fill="#FFB931"/>
<g clip-path="url(#clip2_3870_15171)">
<path d="M28.1508 110.274C35.4516 110.274 41.37 104.941 41.37 98.3618C41.37 91.7828 35.4516 86.4495 28.1508 86.4495C20.8501 86.4495 14.9316 91.7828 14.9316 98.3618C14.9316 104.941 20.8501 110.274 28.1508 110.274Z" fill="#FE4B76"/>
<path d="M28.1511 86.4495C27.7181 86.4495 27.2881 86.4711 26.8643 86.505C33.5586 87.0886 38.7936 92.171 38.7936 98.3587C38.7936 104.547 33.5586 109.629 26.8643 110.212C27.2881 110.249 27.7181 110.268 28.1511 110.268C35.451 110.268 41.3702 104.936 41.3702 98.3557C41.3702 91.7758 35.451 86.4495 28.1511 86.4495Z" fill="#F61D51"/>
<path d="M26.8248 85.9955C26.8248 85.9955 20.842 87.7895 18.2441 87.6227C18.2441 87.6227 22.1136 89.25 23.8485 88.6448C23.8485 88.6448 19.5188 92.5106 19.979 95.9873C19.979 95.9873 24.0938 90.5221 26.0951 89.4723C26.0951 89.4723 28.0722 93.2547 27.827 97.6423C27.827 97.6423 28.9382 92.1215 30.452 90.9636C30.452 90.9636 34.6485 91.2107 35.5417 94.4126C35.5417 94.4126 35.7324 90.5468 32.6441 88.8084C32.6441 88.8084 37.0283 90.272 39.9259 87.5116C39.9259 87.5116 34.703 87.7061 31.8599 86.5729C29.0169 85.4397 26.8248 85.9924 26.8248 85.9924V85.9955Z" fill="#61E8AF"/>
<path d="M29.7009 87.7584C29.7009 87.7584 29.4011 84.7572 30.6698 82.7131H27.86C27.86 82.7131 27.2363 86.4647 28.1507 87.7584C29.0651 89.0522 29.7009 87.7584 29.7009 87.7584Z" fill="#61E8AF"/>
<path d="M29.2528 82.9139C30.0337 82.9139 30.6668 82.8227 30.6668 82.7101C30.6668 82.5976 30.0337 82.5063 29.2528 82.5063C28.4719 82.5063 27.8389 82.5976 27.8389 82.7101C27.8389 82.8227 28.4719 82.9139 29.2528 82.9139Z" fill="#08B66D"/>
<path d="M51.9594 106.87C53.1085 100.396 48.2162 94.0733 41.0322 92.7472C33.8482 91.4211 27.0929 95.5941 25.9439 102.068C24.7948 108.542 29.6871 114.865 36.8711 116.191C44.0551 117.517 50.8104 113.344 51.9594 106.87Z" fill="#FE4B76"/>
<path d="M41.0309 92.745C40.604 92.6647 40.1771 92.6091 39.7532 92.5659C46.2417 94.3568 50.5047 100.31 49.4238 106.399C48.3429 112.488 42.3056 116.539 35.6143 115.897C36.026 116.011 36.4439 116.107 36.8708 116.187C44.0556 117.511 50.8075 113.34 51.9581 106.865C53.1056 100.393 48.2158 94.0696 41.0309 92.745Z" fill="#F61D51"/>
<path d="M39.8052 92.0597C39.8052 92.0597 33.6043 92.739 31.0762 92.1029C31.0762 92.1029 34.6005 94.4095 36.4111 94.1254C36.4111 94.1254 31.4758 97.1421 31.3214 100.647C31.3214 100.647 36.3233 96.0151 38.479 95.3481C38.479 95.3481 39.7628 99.427 38.7576 103.703C38.7576 103.703 40.8134 98.4729 42.509 97.6083C42.509 97.6083 46.5934 98.6149 46.9143 101.928C46.9143 101.928 47.7742 98.161 45.0432 95.8885C45.0432 95.8885 49.1004 98.124 52.4339 95.9348C52.4339 95.9348 47.2595 95.1752 44.6617 93.5449C42.0639 91.9146 39.8082 92.0597 39.8082 92.0597H39.8052Z" fill="#61E8AF"/>
<path d="M42.3269 94.3136C42.3269 94.3136 42.554 91.3062 44.1617 89.5246L41.3974 89.0151C41.3974 89.0151 40.1287 92.5938 40.8009 94.0327C41.4731 95.4715 42.3239 94.3136 42.3239 94.3136H42.3269Z" fill="#61E8AF"/>
<path d="M44.166 89.5236C44.1856 89.4128 43.5786 89.2081 42.8102 89.0662C42.0418 88.9244 41.4029 88.8992 41.3832 89.0099C41.3636 89.1207 41.9706 89.3254 42.739 89.4673C43.5074 89.6091 44.1463 89.6343 44.166 89.5236Z" fill="#08B66D"/>
<path d="M19.1207 116.022C25.2516 114.51 29.16 108.807 27.8504 103.282C26.5408 97.7574 20.5091 94.5041 14.3783 96.0155C8.2474 97.5269 4.33898 103.231 5.64857 108.755C6.95816 114.28 12.9898 117.533 19.1207 116.022Z" fill="#FE4B76"/>
<path d="M14.3774 96.018C14.0141 96.1075 13.6568 96.2125 13.3086 96.3329C19.0462 95.4375 24.4568 98.6209 25.6861 103.818C26.9183 109.014 23.5333 114.365 18.0258 116.242C18.3892 116.187 18.7525 116.113 19.1189 116.023C25.2501 114.513 29.1559 108.807 27.8479 103.283C26.5368 97.7595 20.5086 94.505 14.3774 96.018Z" fill="#F61D51"/>
<path d="M12.9763 95.9038C12.9763 95.9038 9.05836 98.2103 7.19629 98.5438C7.19629 98.5438 10.1998 99.0193 11.3201 98.2906C11.3201 98.2906 8.91302 101.77 9.81832 104.142C9.81832 104.142 11.8076 99.572 13.0429 98.4821C13.0429 98.4821 15.0684 100.807 15.6316 103.944C15.6316 103.944 15.4923 99.8561 16.3674 98.7754C16.3674 98.7754 19.3679 98.2196 20.5335 100.325C20.5335 100.325 20.0219 97.5681 17.5542 96.8765C17.5542 96.8765 20.8908 97.1451 22.4743 94.6965C22.4743 94.6965 18.8229 95.7402 16.6277 95.4376C14.4326 95.135 12.9793 95.9038 12.9793 95.9038H12.9763Z" fill="#61E8AF"/>
<path d="M15.2978 96.6448C15.2978 96.6448 14.5833 94.5822 15.1374 92.918L13.1572 93.4058C13.1572 93.4058 13.3449 96.1601 14.2048 96.9135C15.0647 97.6669 15.2978 96.6448 15.2978 96.6448Z" fill="#61E8AF"/>
<path d="M14.1753 93.3054C14.7263 93.1695 15.1577 92.9949 15.1389 92.9153C15.12 92.8358 14.658 92.8814 14.107 93.0172C13.556 93.1531 13.1247 93.3277 13.1435 93.4072C13.1624 93.4868 13.6243 93.4412 14.1753 93.3054Z" fill="#08B66D"/>
</g>
<rect x="7.70898" y="14.6487" width="44.7244" height="44.7244" rx="12" fill="#08B66D"/>
<g clip-path="url(#clip3_3870_15171)">
<path d="M22.2165 52.6043L33.521 46.0606V28.9651L21.707 35.8026V52.3087C21.707 52.5701 21.9899 52.7341 22.2165 52.6043Z" fill="#F5FCFF"/>
<path d="M23.2148 49.8459L32.0141 44.753L31.4126 32.0181L22.6133 37.111L23.2148 49.8459Z" fill="white"/>
<path d="M15.8008 32.3834L27.6144 25.5461L33.5204 28.9648L21.7067 35.8021L15.8008 32.3834Z" fill="#00B2FF"/>
<path d="M27.6523 49.4804L33.5583 52.8991V35.8024L27.6523 32.3838V49.4804Z" fill="#FFFAF0"/>
<path d="M28.6357 46.8359L32.5736 49.115V37.7178L28.6357 35.4387V46.8359Z" fill="white"/>
<path d="M33.5586 52.8998L45.3726 46.0606V28.9651L33.5586 35.8026V52.8998Z" fill="#FFFAF0"/>
<path d="M35.0645 49.8459L43.8637 44.753V32.0181L35.0645 37.111V49.8459Z" fill="#FFE6B5"/>
<path d="M27.6523 32.3837L39.4643 25.5464L45.3719 28.965L33.5583 35.8023L27.6523 32.3837Z" fill="#FFE6B5"/>
<path d="M18.4199 30.557L30.2335 23.7197V20.5334L18.4199 27.3725V30.557Z" fill="#F5FCFF"/>
<path d="M21.7067 35.8023L19.6978 33.0089L15.8008 32.3836L20.3231 29.4553L21.7067 35.8023Z" fill="#7BD7FF"/>
<path d="M21.7069 35.802L18.4199 30.557L30.2335 23.7197L33.5205 28.9647L21.7069 35.802Z" fill="#F5FCFF"/>
<path d="M15.8008 32.3834L18.4198 30.557L30.2334 23.7197L27.8836 25.5461L15.8008 32.3834Z" fill="#F5FCFF"/>
<path d="M21.7069 35.8025L18.7726 34.1042L18.4199 50.9737L21.303 52.6429C21.9045 52.9914 22.6526 52.5301 22.6134 51.8348L21.7086 35.8042L21.7069 35.8025Z" fill="#7BD7FF"/>
<path d="M15.8009 32.3838L14.7734 48.2999C14.7513 48.633 14.92 48.9491 15.2079 49.1148L18.4199 50.9736L18.7726 34.1042L15.8009 32.3838Z" fill="#DBF4FF"/>
</g>
<defs>
<clipPath id="clip0_3870_15171">
<rect width="45.8998" height="49.4306" fill="white" transform="translate(71.5078 8.82715)"/>
</clipPath>
<clipPath id="clip1_3870_15171">
<rect width="26.3792" height="38.2498" fill="white" transform="translate(81.2686 88.4417)"/>
</clipPath>
<clipPath id="clip2_3870_15171">
<rect width="47.0361" height="33.9277" fill="white" transform="translate(5.39746 82.5063)"/>
</clipPath>
<clipPath id="clip3_3870_15171">
<rect width="30.6009" height="32.3663" fill="white" transform="translate(14.7715 20.5334)"/>
</clipPath>
</defs>
</svg>
