<svg width="36" height="36" viewBox="0 0 36 36" fill="none" xmlns="http://www.w3.org/2000/svg">
<g clip-path="url(#clip0_1301_4094)">
<path d="M3 17.7205C3 25.3602 8.59006 31.5093 16.0435 32.441C16.7888 32.441 17.3478 31.882 17.3478 31.323V4.11801C17.1615 3.55901 16.6025 3 16.0435 3C8.59006 3.93168 3 10.2671 3 17.7205ZM9.3354 13.6211H11.0124V16.9752H14.1801V18.4658H11.0124V21.8199H9.3354V18.4658H5.98137V16.9752H9.14907V13.6211H9.3354Z" fill="white"/>
<path d="M18.6521 4.11801V31.323C18.6521 32.0683 19.2111 32.6273 19.9564 32.441C27.2235 31.5093 32.9999 25.1739 32.9999 17.7205C32.9999 10.2671 27.2235 3.93168 19.7701 3C19.2111 3 18.6521 3.55901 18.6521 4.11801ZM30.0186 20.3292H21.4471V18.8385H30.0186V20.3292ZM21.4471 16.7888V15.1118H30.0186V16.6025H21.4471V16.7888Z" fill="white"/>
</g>
<defs>
<clipPath id="clip0_1301_4094">
<rect width="30" height="29.8125" fill="white" transform="translate(3 3)"/>
</clipPath>
</defs>
</svg>
