<svg width="30" height="30" viewBox="0 0 30 30" fill="none" xmlns="http://www.w3.org/2000/svg">
<g clip-path="url(#clip0_1301_4096)">
<path d="M0 14.7205C0 22.3602 5.59006 28.5093 13.0435 29.441C13.7888 29.441 14.3478 28.882 14.3478 28.323V1.11801C14.1615 0.559006 13.6025 0 13.0435 0C5.59006 0.931677 0 7.26708 0 14.7205ZM6.3354 10.6211H8.01242V13.9752H11.1801V15.4658H8.01242V18.8199H6.3354V15.4658H2.98137V13.9752H6.14907V10.6211H6.3354Z" fill="white"/>
<path d="M15.6521 1.11801V28.323C15.6521 29.0683 16.2111 29.6273 16.9564 29.441C24.2235 28.5093 29.9999 22.1739 29.9999 14.7205C29.9999 7.26708 24.2235 0.931677 16.7701 0C16.2111 0 15.6521 0.559006 15.6521 1.11801ZM27.0186 17.3292H18.4471V15.8385H27.0186V17.3292ZM18.4471 13.7888V12.1118H27.0186V13.6025H18.4471V13.7888Z" fill="white"/>
</g>
<defs>
<clipPath id="clip0_1301_4096">
<rect width="30" height="29.8125" fill="white"/>
</clipPath>
</defs>
</svg>
