<svg width="20" height="20" viewBox="0 0 20 20" fill="none" xmlns="http://www.w3.org/2000/svg">
<g id="Calque_2" clip-path="url(#clip0_1927_1463)">
<path id="Vector" d="M18.5084 3.53833H1.08873C0.489929 3.53833 0 4.02826 0 4.62706C0 5.22586 0.489929 5.71579 1.08873 5.71579H2.98312V16.3962C2.98312 18.3886 4.59445 20 6.58683 20H13.0103C15.0027 20 16.614 18.3886 16.614 16.3962V5.71579H18.5084C19.1072 5.71579 19.5972 5.22586 19.5972 4.62706C19.5972 4.02826 19.1072 3.53833 18.5084 3.53833ZM8.12194 16.2003C8.12194 16.7991 7.63201 17.289 7.03321 17.289C6.4344 17.289 5.94447 16.7991 5.94447 16.2003V8.89489C5.94447 8.29609 6.4344 7.80616 7.03321 7.80616C7.63201 7.80616 8.12194 8.29609 8.12194 8.89489V16.2003ZM13.6418 16.2003C13.6418 16.7991 13.1519 17.289 12.5531 17.289C11.9543 17.289 11.4643 16.7991 11.4643 16.2003V8.89489C11.4643 8.29609 11.9543 7.80616 12.5531 7.80616C13.1519 7.80616 13.6418 8.29609 13.6418 8.89489V16.2003Z" fill="white"/>
<path id="Vector_2" d="M6.09691 2.17746H13.4894C14.0882 2.17746 14.5781 1.68753 14.5781 1.08873C14.5781 0.489929 14.0882 0 13.4894 0H6.09691C5.49811 0 5.00818 0.489929 5.00818 1.08873C5.00818 1.68753 5.49811 2.17746 6.09691 2.17746Z" fill="white"/>
</g>
<defs>
<clipPath id="clip0_1927_1463">
<rect width="19.5972" height="20" fill="white"/>
</clipPath>
</defs>
</svg>
