<svg width="56" height="56" viewBox="0 0 56 56" fill="none" xmlns="http://www.w3.org/2000/svg">
<path d="M48.625 0.5H7.375C3.59375 0.5 0.5 3.59375 0.5 7.375V48.625C0.5 52.4063 3.59375 55.5 7.375 55.5H48.625C52.4063 55.5 55.5 52.4063 55.5 48.625V7.375C55.5 3.59375 52.4063 0.5 48.625 0.5ZM7.375 3.9375H48.625C50.6875 3.9375 52.0625 5.65625 52.0625 7.375V27.6563C52.0625 29.375 51.0312 30.4062 50 31.0937C48.625 31.4375 46.9062 31.4375 45.875 30.0625L41.0625 25.25C40.375 24.9062 39.6875 24.5625 38.6563 24.5625C37.625 24.5625 36.5937 24.9063 35.5625 25.9375L28.6875 34.875C28 35.5625 26.9688 36.25 26.2812 36.25C25.25 36.25 24.5625 36.25 23.875 35.5625L18.0312 31.0937C17 30.4062 16.3125 30.4062 15.2813 30.4062C14.25 30.4062 13.2188 31.0937 12.5312 32.125L10.8125 35.2188C9.78125 36.5938 8.40625 36.9375 7.03125 36.9375C5.3125 36.25 3.9375 35.2188 3.9375 33.1562V7.375C3.9375 5.65625 5.65625 3.9375 7.375 3.9375Z" fill="#E1E4EE"/>
<path d="M14.9375 21.125C18.375 21.125 21.125 18.375 21.125 14.9375C21.125 11.5 18.375 8.75 14.9375 8.75C11.5 8.75 8.40625 11.5 8.40625 14.9375C8.40625 18.375 11.5 21.125 14.9375 21.125Z" fill="#E1E4EE"/>
</svg>
