<svg width="12" height="13" viewBox="0 0 12 13" fill="none" xmlns="http://www.w3.org/2000/svg">
<g id="map-pins">
<path id="Vector" d="M4 3.99994V4.00494M8 7.99994V8.00494M5.414 5.41394C5.69377 5.13426 5.88431 4.77789 5.96153 4.38991C6.03875 4.00194 5.99918 3.59977 5.84782 3.23428C5.69646 2.8688 5.44012 2.5564 5.1112 2.33661C4.78229 2.11682 4.39559 1.99951 4 1.99951C3.60441 1.99951 3.21771 2.11682 2.8888 2.33661C2.55989 2.5564 2.30354 2.8688 2.15218 3.23428C2.00083 3.59977 1.96126 4.00194 2.03847 4.38991C2.11569 4.77789 2.30624 5.13426 2.586 5.41394L4 6.82844L5.414 5.41394ZM9.414 9.41394C9.69377 9.13426 9.88431 8.77789 9.96153 8.38991C10.0387 8.00194 9.99917 7.59977 9.84782 7.23428C9.69646 6.8688 9.44012 6.5564 9.1112 6.33661C8.78229 6.11683 8.39559 5.99951 8 5.99951C7.60441 5.99951 7.21771 6.11683 6.8888 6.33661C6.55989 6.5564 6.30354 6.8688 6.15218 7.23428C6.00083 7.59977 5.96126 8.00194 6.03847 8.38991C6.11569 8.77789 6.30624 9.13426 6.586 9.41394L8 10.8284L9.414 9.41394Z" stroke="#2A547B" stroke-linecap="round" stroke-linejoin="round"/>
</g>
</svg>
