<svg width="17" height="18" viewBox="0 0 17 18" fill="none" xmlns="http://www.w3.org/2000/svg">
<g id="Calque_2" clip-path="url(#clip0_1927_4332)">
<path id="Vector" d="M14.9998 0.666687H1.99984C0.989421 0.666687 0.166504 1.4896 0.166504 2.50002V15.5C0.166504 16.5104 0.989421 17.3334 1.99984 17.3334H14.9998C16.0103 17.3334 16.8332 16.5104 16.8332 15.5V2.50002C16.8332 1.4896 16.0103 0.666687 14.9998 0.666687ZM13.6873 11.6875H12.2082V11.1354C12.2082 10.3229 11.5415 9.65627 10.729 9.65627H9.23942V11.6771H7.76025V8.16669L4.80192 8.84377V11.6875H3.32275V7.66669L9.24984 6.32294V8.18752H10.7394C12.3748 8.18752 13.6978 9.51044 13.6978 11.1459V11.6979L13.6873 11.6875Z" fill="white"/>
</g>
<defs>
<clipPath id="clip0_1927_4332">
<rect width="16.6667" height="16.6667" fill="white" transform="translate(0.166504 0.666687)"/>
</clipPath>
</defs>
</svg>
