<svg width="30" height="30" viewBox="0 0 30 30" fill="none" xmlns="http://www.w3.org/2000/svg">
<g clip-path="url(#clip0_1301_6755)">
<path d="M5.27778 18.0417H2.5V27.5H11.9583V24.7222H5.27778V18.0417Z" fill="#08B66D"/>
<path d="M24.7225 24.7222H18.042V27.5H27.5003V18.0417H24.7225V24.7222Z" fill="#08B66D"/>
<path d="M18.042 2.5V5.27778H24.7225V11.9583H27.5003V2.5H18.042Z" fill="#08B66D"/>
<path d="M2.5 11.9583H5.27778V5.27778H11.9583V2.5H2.5V11.9583Z" fill="#08B66D"/>
<path d="M13.7504 10.8055H12.0977V19.1944H13.7504V10.8055Z" fill="#08B66D"/>
<path d="M18.9583 10.8055H15V19.1944H18.9583V10.8055Z" fill="#08B66D"/>
<path d="M21.708 10.8055H20.208V19.1944H21.708V10.8055Z" fill="#08B66D"/>
<path d="M11.5559 10.8055H8.29199V19.1944H11.5559V10.8055Z" fill="#08B66D"/>
</g>
<defs>
<clipPath id="clip0_1301_6755">
<rect width="25" height="25" fill="white" transform="translate(2.5 2.5)"/>
</clipPath>
</defs>
</svg>
