<svg width="24" height="24" viewBox="0 0 24 24" fill="none" xmlns="http://www.w3.org/2000/svg">
<g clip-path="url(#clip0_1422_5136)">
<path d="M19.8 2H4.2C2.9875 2 2 2.9875 2 4.2V19.8C2 21.0125 2.9875 22 4.2 22H19.8C21.0125 22 22 21.0125 22 19.8V4.2C22 2.9875 21.0125 2 19.8 2ZM18.225 15.225H16.45V14.5625C16.45 13.5875 15.65 12.7875 14.675 12.7875H12.8875V15.2125H11.1125V11L7.5625 11.8125V15.225H5.7875V10.4L12.9 8.7875V11.025H14.6875C16.65 11.025 18.2375 12.6125 18.2375 14.575V15.2375L18.225 15.225Z" fill="#00B2FF"/>
</g>
<defs>
<clipPath id="clip0_1422_5136">
<rect width="20" height="20" fill="white" transform="translate(2 2)"/>
</clipPath>
</defs>
</svg>
