<svg width="36" height="36" viewBox="0 0 36 36" fill="none" xmlns="http://www.w3.org/2000/svg">
<g clip-path="url(#clip0_1301_4035)">
<path d="M34.3993 17.4695C34.2987 17.0671 34.0975 16.7652 33.9969 16.4634C33.6951 15.6585 33.2926 14.9543 32.9908 14.1494C32.5883 13.2439 32.1859 12.3384 31.7835 11.5335C31.5823 11.1311 31.381 10.9299 30.878 10.8293C30.6768 10.8293 30.3749 10.7287 30.1737 10.7287C28.3627 10.7287 26.5518 10.7287 24.8414 10.7287C24.7408 10.7287 24.5396 10.7287 24.439 10.7287C24.439 10.5274 24.439 10.3262 24.439 10.2256C24.439 9.82317 24.5396 9.42073 24.5396 9.01829C24.6402 8.51524 24.6402 8.0122 24.7408 7.50915C24.8414 6.80488 24.5396 6.20122 23.7347 6.10061C23.6341 6 23.4329 6 23.2316 6C18.1005 6 12.8688 6 7.73774 6C7.53652 6 7.23469 6 7.03347 6.10061C6.53042 6.20122 6.22859 6.60366 6.22859 7.20732C6.22859 7.71037 6.53042 8.1128 7.03347 8.31402C7.23469 8.41463 7.53652 8.41463 7.83835 8.41463C9.64932 8.41463 11.4603 8.41463 13.2713 8.41463C13.4725 8.41463 13.6737 8.41463 13.7743 8.51524C14.4786 8.81707 14.5792 9.52134 14.378 10.125C14.1768 10.628 13.7743 10.8293 13.2713 10.8293C10.6554 10.8293 8.03957 10.8293 5.42372 10.8293C5.2225 10.8293 4.92067 10.8293 4.71945 10.9299C4.11579 10.9299 3.81396 11.3323 3.91457 11.936C3.91457 12.439 4.2164 12.8415 4.71945 13.0427C4.92067 13.0427 5.2225 13.1433 5.42372 13.1433C6.63103 13.1433 7.73774 13.1433 8.94506 13.1433C11.5609 13.1433 14.1768 13.1433 16.7926 13.1433C16.9938 13.1433 17.1951 13.1433 17.3963 13.2439C18.1005 13.5457 18.2012 14.25 17.9999 14.8537C17.7987 15.3567 17.3963 15.5579 16.9938 15.5579C14.378 15.5579 11.7621 15.5579 9.14628 15.5579C8.94506 15.5579 8.64323 15.5579 8.44201 15.6585C7.63713 15.6585 7.43591 16.061 7.43591 16.6646C7.43591 17.1677 7.83835 17.5701 8.3414 17.6707C8.64323 17.6707 8.84445 17.7713 9.14628 17.7713C10.5548 17.7713 11.9633 17.7713 13.3719 17.7713C13.5731 17.7713 13.6737 17.7713 13.8749 17.872C14.6798 18.1738 14.6798 19.3811 14.2774 19.7835C13.9755 19.9848 13.7743 20.0854 13.3719 20.0854C10.3536 20.0854 7.3353 20.0854 4.31701 20.0854C4.11579 20.0854 3.81396 20.0854 3.61274 20.186C3.00908 20.2866 2.80786 20.689 2.80786 21.2927C2.80786 21.7957 3.2103 22.1982 3.71335 22.2988C3.91457 22.2988 4.2164 22.3994 4.41762 22.3994C5.12189 22.3994 5.72554 22.3994 6.42981 22.3994C6.83225 22.3994 7.13408 22.6006 7.3353 23.003C7.43591 23.2043 7.43591 23.4055 7.43591 23.6067C7.53652 24.311 6.83225 24.814 6.3292 24.814C6.02737 24.814 5.72554 24.814 5.52432 24.814C5.32311 24.814 5.12189 24.814 4.82006 24.9146C4.2164 25.0152 4.01518 25.4177 4.01518 26.0213C4.01518 26.5244 4.31701 26.9268 4.92067 27.0274C5.12189 27.0274 5.42371 27.128 5.62493 27.128C6.42981 27.128 7.23469 27.128 8.14018 27.128C8.24079 27.128 8.44201 27.128 8.54262 27.128C8.54262 27.2287 8.64323 27.3293 8.64323 27.4299C8.84445 28.0335 9.24689 28.5366 9.74993 28.8384C10.4542 29.3415 11.2591 29.5427 12.1646 29.3415C13.2713 29.1402 14.1768 28.436 14.6798 27.4299C14.7804 27.3293 14.7804 27.2287 14.881 27.128C15.3841 27.0274 23.7347 27.0274 24.0365 27.128C24.0365 27.2287 24.1371 27.3293 24.1371 27.4299C24.7408 28.8384 26.0487 29.5427 27.5579 29.3415C28.564 29.1402 29.3688 28.6372 29.9725 27.7317C30.0731 27.5305 30.1737 27.3293 30.3749 27.128C30.5762 27.128 30.6768 27.128 30.7774 27.128C31.381 27.128 31.8841 27.128 32.4877 27.128C33.3932 27.128 33.7957 26.7256 33.8963 25.8201C33.8963 25.5183 33.9969 25.3171 33.9969 25.0152C34.0975 24.4116 34.0975 23.8079 34.1981 23.2043C34.2987 22.7012 34.2987 22.1982 34.3993 21.6951C34.4999 21.0915 34.4999 20.4878 34.6005 19.9848C34.7012 19.3811 34.7012 18.7774 34.8018 18.2744C34.4999 18.0732 34.4999 17.7713 34.3993 17.4695ZM11.3597 27.3293C10.9573 27.3293 10.756 27.128 10.6554 26.8262C10.5548 26.5244 10.5548 26.3232 10.6554 26.0213C10.756 25.4177 11.2591 25.0152 11.8627 24.9146C12.3658 24.9146 12.567 25.1159 12.7682 25.5183C12.7682 25.6189 12.7682 25.7195 12.7682 25.8201C12.6676 26.5244 12.064 27.3293 11.3597 27.3293ZM26.753 27.3293C26.3505 27.3293 26.1493 27.128 26.0487 26.8262C25.9481 26.5244 25.9481 26.2226 26.0487 26.0213C26.1493 25.4177 26.6524 25.0152 27.256 25.0152C27.7591 25.0152 28.0609 25.2165 28.1615 25.6189C28.1615 25.7195 28.1615 25.8201 28.1615 25.8201C28.0609 26.5244 27.4573 27.3293 26.753 27.3293ZM32.1859 18.2744C32.1859 18.4756 32.0853 18.6768 32.0853 18.9787C31.9847 18.9787 31.7835 18.9787 31.6829 18.9787C30.0731 18.9787 28.3627 18.9787 26.753 18.9787C26.1493 18.9787 25.5457 18.375 25.5457 17.7713C25.5457 17.4695 25.5457 17.0671 25.6463 16.7652C25.7469 16.1616 25.7469 15.5579 25.8475 14.8537C25.8475 14.5518 25.8475 14.3506 25.9481 14.0488C26.0487 13.3445 26.4512 12.9421 27.1554 12.9421C27.9603 12.9421 28.7652 12.9421 29.6707 12.9421C29.7713 12.9421 29.8719 12.9421 29.9725 12.9421C30.1737 13.3445 30.2743 13.747 30.4755 14.0488C30.7774 14.6524 30.9786 15.2561 31.2804 15.8598C31.4816 16.3628 31.7835 16.9665 31.9847 17.4695C32.1859 17.9726 32.1859 18.1738 32.1859 18.2744Z" fill="white"/>
<path d="M4.01524 17.7713C4.51829 17.6707 4.92073 17.2683 4.92073 16.7652C4.92073 16.1616 4.6189 15.7592 4.11585 15.6585C3.81402 15.4573 3.5122 15.4573 3.21037 15.4573C2.90854 15.4573 2.60671 15.5579 2.30488 15.5579C1.80183 15.6585 1.5 16.061 1.5 16.6646C1.5 17.1677 1.90244 17.5701 2.40549 17.6707C2.90854 17.872 3.5122 17.872 4.01524 17.7713Z" fill="#011120"/>
</g>
<defs>
<clipPath id="clip0_1301_4035">
<rect width="33" height="23.6433" fill="white" transform="translate(1.5 6)"/>
</clipPath>
</defs>
</svg>
