<svg width="103" height="137" viewBox="0 0 103 137" fill="none" xmlns="http://www.w3.org/2000/svg">
<g clip-path="url(#clip0_2505_33219)">
<path d="M11.9675 109.799H5.98373C2.67273 109.799 0 115.901 0 123.4C0 130.898 2.67273 137 5.98373 137H11.9675C15.2785 137 17.9512 130.898 17.9512 123.4C17.9512 115.901 15.2785 109.799 11.9675 109.799Z" fill="#011120"/>
<path d="M68.6136 129.302H3.98926L16.1961 23.2521C17.7518 10.0108 28.1635 0 40.4103 0C41.5272 0 42.4048 0.877438 42.4048 1.99418C42.4048 3.11092 41.5272 3.98836 40.4103 3.98836C30.1581 3.98836 21.4618 12.4836 20.1852 23.7307L8.45711 125.314H65.0632L76.8312 23.2521C78.387 10.0108 88.7987 0 101.045 0C102.162 0 103.04 0.877438 103.04 1.99418C103.04 3.11092 102.162 3.98836 101.045 3.98836C90.7933 3.98836 82.0969 12.4836 80.8204 23.7307L68.6535 129.302H68.6136Z" fill="#011120"/>
<path d="M76.9108 41.2398H16.475C15.3581 41.2398 14.4805 40.3624 14.4805 39.2456C14.4805 38.1289 15.3581 37.2515 16.475 37.2515H76.9108C78.0277 37.2515 78.9053 38.1289 78.9053 39.2456C78.9053 40.3624 78.0277 41.2398 76.9108 41.2398Z" fill="#011120"/>
<path d="M72.2434 81.0435H11.8476C10.7306 81.0435 9.85303 80.1661 9.85303 79.0494C9.85303 77.9326 10.7306 77.0552 11.8476 77.0552H72.2434C73.3604 77.0552 74.238 77.9326 74.238 79.0494C74.238 80.1661 73.3604 81.0435 72.2434 81.0435Z" fill="#011120"/>
<path d="M74.3978 41.1601L28.0837 37.2515L11.3691 33.6221H57.6433L74.3978 41.1601Z" fill="#F1F3F8"/>
<path d="M50.0638 123.4H3.78955L11.3689 33.6221H57.6432L50.0638 123.4Z" fill="#F1F3F8"/>
<path d="M37.0592 51.0113L28.6421 51.2506L30.2776 33.6221H38.6948L37.0592 51.0113Z" fill="#00B2FF"/>
<path d="M66.8184 127.309L50.064 123.4L57.6434 33.6221L74.3978 41.1601L66.8184 127.309Z" fill="#E1E4EE"/>
<path d="M68.5734 127.308L3.78949 128.704L2.83209 124.517C2.27361 122.084 4.10862 119.771 6.62179 119.771H47.1516C49.7047 119.771 52.2178 120.289 54.5315 121.286L68.5335 127.308H68.5734Z" fill="#011120"/>
<path d="M71.5656 109.799H65.5819C62.2709 109.799 59.5981 115.901 59.5981 123.4C59.5981 130.898 62.2709 137 65.5819 137H71.5656C74.8766 137 77.5493 130.898 77.5493 123.4C77.5493 115.901 74.8766 109.799 71.5656 109.799Z" fill="#011120"/>
</g>
<defs>
<clipPath id="clip0_2505_33219">
<rect width="103" height="137" fill="white"/>
</clipPath>
</defs>
</svg>
