<svg width="186" height="122" viewBox="0 0 186 122" fill="none" xmlns="http://www.w3.org/2000/svg">
<g clip-path="url(#clip0_101_96)">
<path d="M43.6237 66.7638V107.11H35.9536V81.1732L25.4072 107.11H18.6959L7.6701 81.1732V107.11H0V66.7638H9.10825L22.0515 96.5433L34.9948 66.7638H43.6237Z" fill="#011120"/>
<path d="M51.7732 82.1339C53.2114 79.7323 54.6495 77.811 57.0464 76.3701C59.4433 74.9291 61.8402 74.4488 64.2371 74.4488C66.634 74.4488 68.5516 74.9291 70.4691 75.8898C72.3866 76.8504 73.8248 78.2913 74.7835 79.7323V75.4095H82.933V107.11H74.7835V102.307C73.8248 103.748 72.3866 105.189 70.4691 106.15C68.5516 107.11 66.634 107.591 64.2371 107.591C61.3608 107.591 58.9639 107.11 57.0464 105.669C54.6495 104.228 53.2114 102.307 51.7732 99.9055C50.3351 97.5039 49.8557 94.6221 49.8557 91.2598C49.8557 87.4173 50.3351 85.0158 51.7732 82.1339ZM73.3454 85.9764C72.3866 84.5354 71.4278 83.5748 70.4691 82.6142C69.0309 81.6536 67.5928 81.6535 66.1547 81.6535C64.7165 81.6535 63.2784 82.1339 61.8402 82.6142C60.4021 83.5748 59.4433 84.5354 58.9639 85.9764C58.4846 87.4173 58.0052 88.8583 58.0052 90.7795C58.0052 92.7008 58.4846 94.622 58.9639 95.5827C59.4433 96.5433 60.8815 97.9843 61.8402 98.9449C63.2784 99.9055 64.7165 99.9055 66.1547 99.9055C67.5928 99.9055 69.0309 99.4252 70.4691 98.9449C71.9072 97.9843 72.866 97.0236 73.3454 95.5827C74.3041 94.1417 74.3041 92.7008 74.3041 90.7795C74.3041 88.8583 74.3041 87.4173 73.3454 85.9764Z" fill="#011120"/>
<path d="M100.191 81.6535V97.0236C100.191 97.9843 100.67 98.9449 101.149 99.4252C101.629 99.9055 102.588 100.386 103.546 100.386H107.381V107.11H102.108C95.3969 107.11 92.0412 103.748 92.0412 97.0236V81.6535H88.2062V74.9291H92.0412V67.2441H100.191V74.9291H107.381V81.6535H100.191Z" fill="#011120"/>
<path d="M121.284 112.394C121.284 115.756 120.325 118.638 118.887 120.079C116.969 121.52 114.572 122.48 111.217 122.48H107.861V115.276H110.258C111.696 115.276 112.175 114.795 112.655 114.315C113.134 113.835 113.613 112.874 113.613 111.913V74.4488H121.763V112.394H121.284ZM113.613 69.6457C112.655 68.685 112.175 67.7244 112.175 66.2835C112.175 64.8425 112.655 63.8819 113.613 62.9213C114.572 61.9606 115.531 61.4803 117.448 61.4803C118.887 61.4803 119.845 61.9606 120.804 62.9213C121.763 63.8819 122.242 64.8425 122.242 66.2835C122.242 67.7244 121.763 68.685 120.804 69.6457C119.845 70.6063 118.887 71.0866 117.448 71.0866C115.531 71.0866 114.572 70.6063 113.613 69.6457Z" fill="#011120"/>
<path d="M128.954 82.1339C130.392 79.7323 131.83 77.811 134.227 76.3701C136.624 74.9291 139.021 74.4488 141.418 74.4488C143.814 74.4488 145.732 74.9291 147.649 75.8898C149.567 76.8504 151.005 78.2913 151.964 79.7323V75.4095H160.113V107.11H151.964V102.307C151.005 103.748 149.567 105.189 147.649 106.15C145.732 107.11 143.814 107.591 141.418 107.591C138.541 107.591 136.144 107.11 134.227 105.669C131.83 104.228 130.392 102.307 128.954 99.9055C127.515 97.5039 127.036 94.6221 127.036 91.2598C127.036 87.4173 127.515 85.0158 128.954 82.1339ZM151.005 85.9764C150.046 84.5354 149.088 83.5748 148.129 82.6142C146.691 82.1339 145.253 81.6535 143.814 81.6535C142.376 81.6535 140.938 82.1339 139.5 82.6142C138.062 83.5748 137.103 84.5354 136.624 85.9764C136.144 87.4173 135.665 88.8583 135.665 90.7795C135.665 92.7008 136.144 94.622 136.624 95.5827C137.103 96.5433 138.541 97.9843 139.5 98.9449C140.938 99.9055 142.376 99.9055 143.814 99.9055C145.253 99.9055 146.691 99.4252 148.129 98.9449C149.567 97.9843 150.526 97.0236 151.005 95.5827C151.964 94.1417 151.964 92.7008 151.964 90.7795C151.964 88.8583 151.485 87.4173 151.005 85.9764Z" fill="#011120"/>
<path d="M180.247 75.8898C181.686 74.9291 183.603 74.4488 186 74.4488V83.0945H184.082C181.686 83.0945 179.768 83.5748 178.33 85.0158C176.892 85.9764 176.412 88.378 176.412 91.2598V107.11H168.263V75.4095H176.412V80.2126C176.892 78.2913 178.33 76.8504 180.247 75.8898Z" fill="#011120"/>
<path d="M113.134 18.252H98.7526V0L41.2268 12.9685V52.3543H55.6083V24.4961L84.3711 17.7717V24.9764V32.1811V51.874H98.7526V32.6614H113.134C120.804 32.6614 127.515 38.9055 127.515 47.0709V52.3543H141.897V47.0709C141.897 31.2205 128.954 18.252 113.134 18.252Z" fill="#00B2FF"/>
</g>
<defs>
<clipPath id="clip0_101_96">
<rect width="186" height="122" fill="white"/>
</clipPath>
</defs>
</svg>
