<svg width="164" height="138" viewBox="0 0 164 138" fill="none" xmlns="http://www.w3.org/2000/svg">
<g clip-path="url(#clip0_4270_32811)">
<path d="M114.455 93.4329L99.8159 101.969C98.7016 102.622 97.6182 103.331 96.5778 104.096C95.2111 105.097 93.9183 106.197 92.7055 107.385L91.5851 108.479C90.9203 109.132 90.2185 109.741 89.4797 110.307C88.6733 110.929 87.8237 111.501 86.9434 112.01L71.7808 120.852V115.399L114.461 90.5107V93.4267L114.455 93.4329Z" fill="#0C2F50"/>
<path d="M85.737 113.646C85.4046 112.141 84.6966 110.978 83.7609 110.232L84.7458 110.195L81.0214 109.281C80.141 109.287 79.2115 109.555 78.2942 110.108C75.1484 112.004 73.3631 116.549 74.2373 120.255C74.816 122.711 76.6874 124.588 78.5897 124.967C79.3161 125.11 81.0029 125.39 81.1999 125.384L81.3046 124.594L81.44 123.792C84.6227 122.033 86.5804 117.5 85.737 113.646Z" fill="#011120"/>
<path d="M88.3905 114.466C89.2278 118.352 87.2147 122.934 83.9642 124.694C80.7138 126.453 77.5742 124.812 76.7123 121.113C75.8504 117.413 77.6665 112.812 80.8677 110.897C84.1428 108.945 87.5471 110.537 88.3905 114.466Z" fill="#0C2F50"/>
<path d="M81.7353 123.824C81.2366 123.805 80.7564 123.687 80.307 123.463C79.2174 122.922 78.4417 121.853 78.1154 120.448C77.4567 117.606 78.8665 114.124 81.2982 112.694C82.5232 111.967 83.8284 111.861 84.9611 112.402C86.1 112.943 86.9003 114.05 87.2204 115.523C87.8606 118.458 86.3401 121.94 83.8776 123.283C83.1696 123.668 82.4371 123.855 81.7414 123.83L81.7353 123.824ZM83.5575 112.44C82.9111 112.44 82.2339 112.632 81.5752 113.018C79.242 114.392 77.8877 117.724 78.5156 120.454C78.8111 121.728 79.4883 122.686 80.4363 123.152C81.3844 123.618 82.5048 123.55 83.6006 122.953C85.9584 121.66 87.4112 118.321 86.7956 115.511C86.5063 114.18 85.8045 113.192 84.8195 112.726C84.4255 112.539 83.9946 112.446 83.5575 112.44Z" fill="#2A547B"/>
<path d="M87.0111 115.517C87.639 118.396 86.1554 121.797 83.7422 123.121C81.329 124.445 78.9588 123.227 78.3186 120.454C77.6784 117.681 79.0512 114.261 81.4398 112.856C83.8284 111.451 86.3832 112.613 87.0111 115.511V115.517Z" fill="#BFC6DA"/>
<path d="M84.3701 117.015C84.6287 118.172 84.0377 119.558 83.0588 120.105C82.08 120.652 81.095 120.161 80.8365 119.024C80.5779 117.886 81.1504 116.499 82.1231 115.94C83.0958 115.38 84.1116 115.859 84.3701 117.022V117.015Z" fill="#E1E4EE"/>
<path d="M75.8192 123.463L69.4106 119.726L70.5926 112.614L80.3624 107.944L85.6998 109.045L82.0615 110.332C78.0046 111.768 75.0743 116.046 75.8069 120.329L75.8192 123.469V123.463Z" fill="#0C2F50"/>
<path d="M118.143 97.3932L132.154 89.2236V81.054L118.143 89.2236V97.3932Z" fill="#BFC6DA"/>
<path d="M111.137 85.1389L118.143 89.2237L132.154 81.0541L125.149 76.9692L111.137 85.1389Z" fill="#C1CBEA"/>
<path d="M118.143 97.3934L111.137 93.3086V85.1389L118.143 89.2237V97.3934Z" fill="#E1E4EE"/>
<path d="M120.556 89.2673C120.556 89.976 120.125 90.8465 119.596 91.2071C119.479 91.2879 119.62 91.549 119.516 91.5677C119.392 91.5863 119.029 91.3625 118.937 91.3066C118.752 91.2009 118.635 90.946 118.635 90.5791C118.635 89.8704 119.066 88.9999 119.596 88.6393C119.823 88.4839 120.033 88.4466 120.199 88.515C120.254 88.5398 120.593 88.689 120.642 88.7388C120.765 88.8693 120.556 88.975 120.556 89.2735V89.2673Z" fill="#011120"/>
<path d="M120.727 90.4526C121.069 89.6781 121.02 88.9028 120.616 88.7208C120.213 88.5388 119.608 89.0191 119.265 89.7935C118.923 90.568 118.973 91.3433 119.376 91.5253C119.78 91.7073 120.385 91.227 120.727 90.4526Z" fill="#0C2F50"/>
<path d="M24.7295 92.749V95.093L68.746 120.758V118.408L24.7295 92.749Z" fill="#0C2F50"/>
<path d="M72.2305 118.719V116.375L68.7461 118.408V120.758L72.2305 118.719Z" fill="#0C2F50"/>
<path d="M24.7295 92.749L68.746 118.408L72.2304 116.375L72.6182 114.982L68.746 116.966L26.1208 92.2827L24.7295 92.749Z" fill="#011120"/>
<path d="M72.6183 114.982L72.7907 120.242L72.2305 120.566V116.375L72.6183 114.982Z" fill="#011120"/>
<path d="M145.082 78.9898C144.75 77.4852 144.042 76.3226 143.106 75.5765L144.091 75.5392L140.367 74.6252C139.486 74.6315 138.557 74.8988 137.639 75.4522C134.494 77.3485 132.708 81.8934 133.582 85.5989C134.161 88.0548 136.033 89.9324 137.935 90.3117C138.661 90.4547 140.348 90.7345 140.545 90.7283L140.65 89.9387L140.785 89.1366C143.968 87.3771 145.926 82.8446 145.082 78.9898Z" fill="#011120"/>
<path d="M147.735 79.8105C148.572 83.6964 146.559 88.2786 143.309 90.0381C140.059 91.7976 136.919 90.1562 136.057 86.4569C135.195 82.7575 137.011 78.1567 140.212 76.2417C143.488 74.2895 146.892 75.8811 147.735 79.8105Z" fill="#0C2F50"/>
<path d="M141.087 89.1739C140.588 89.1553 140.108 89.0371 139.659 88.8133C138.569 88.2724 137.793 87.203 137.467 85.7979C136.808 82.9565 138.218 79.4748 140.65 78.0448C141.875 77.3174 143.18 77.2117 144.313 77.7526C145.452 78.2935 146.252 79.4002 146.572 80.8737C147.212 83.8083 145.692 87.2901 143.229 88.633C142.521 89.0185 141.789 89.205 141.093 89.1801L141.087 89.1739ZM142.909 77.7899C142.263 77.7899 141.585 77.9826 140.927 78.3681C138.594 79.7422 137.239 83.0747 137.867 85.8041C138.163 87.0787 138.84 88.0361 139.788 88.5024C140.736 88.9687 141.856 88.9004 142.952 88.3035C145.31 87.0103 146.763 83.6715 146.147 80.8613C145.858 79.5308 145.156 78.5422 144.171 78.0759C143.777 77.8894 143.346 77.7961 142.909 77.7899Z" fill="#2A547B"/>
<path d="M146.356 80.8613C146.984 83.7399 145.501 87.1408 143.087 88.4651C140.674 89.7894 138.304 88.5708 137.664 85.7979C137.024 83.0249 138.396 79.6053 140.785 78.2002C143.174 76.7951 145.728 77.9577 146.356 80.855V80.8613Z" fill="#BFC6DA"/>
<path d="M143.722 82.3598C143.98 83.5162 143.389 84.9027 142.41 85.4498C141.432 85.9969 140.447 85.5058 140.188 84.368C139.929 83.2302 140.502 81.8437 141.475 81.2842C142.447 80.7246 143.463 81.2033 143.722 82.366V82.3598Z" fill="#E1E4EE"/>
<path d="M161.193 46.6285L160.349 46.1373C160.312 46.1187 160.3 46.0689 160.319 46.0316C160.337 45.9943 160.386 45.9819 160.423 46.0005L161.039 46.3549V45.0058C161.039 44.9622 161.076 44.9312 161.113 44.9312C161.15 44.9312 161.187 44.9685 161.187 45.0058V46.6285H161.193Z" fill="#0C2F50"/>
<path d="M160.731 40.3304C160.786 40.3304 160.842 40.3428 160.897 40.3739L162.159 41.1137C162.221 41.151 162.264 41.2008 162.294 41.263C162.319 41.3065 162.325 41.3562 162.325 41.4122V45.1488C162.325 45.2794 162.258 45.3789 162.165 45.441C162.11 45.4721 162.054 45.4908 161.987 45.4908C161.931 45.4908 161.876 45.4783 161.82 45.4473L160.558 44.7074C160.509 44.6763 160.466 44.6328 160.435 44.583C160.405 44.5333 160.386 44.4711 160.386 44.409V40.6723C160.386 40.548 160.448 40.4423 160.54 40.3863C160.595 40.349 160.657 40.3304 160.725 40.3304M160.725 40.262C160.645 40.262 160.571 40.2868 160.503 40.3304C160.386 40.405 160.318 40.5355 160.318 40.6785V44.4152C160.318 44.4898 160.337 44.5582 160.374 44.6266C160.411 44.6887 160.46 44.7385 160.522 44.7758L161.784 45.5157C161.845 45.553 161.919 45.5716 161.987 45.5716C162.061 45.5716 162.134 45.553 162.202 45.5094C162.325 45.4348 162.399 45.3043 162.399 45.1613V41.4246C162.399 41.3624 162.387 41.3003 162.356 41.2443C162.319 41.1697 162.264 41.1075 162.19 41.064L160.928 40.3241C160.866 40.2868 160.792 40.2682 160.725 40.2682V40.262Z" fill="#0C2F50"/>
<path d="M161.827 45.4412L160.565 44.7013C160.516 44.6702 160.473 44.6267 160.442 44.5769C160.411 44.5272 160.393 44.465 160.393 44.4028V40.6662C160.393 40.5419 160.454 40.4362 160.546 40.3802C160.645 40.3118 160.78 40.2994 160.897 40.374L162.159 41.1139C162.221 41.1512 162.264 41.2009 162.295 41.2631C162.319 41.3066 162.326 41.3563 162.326 41.4123V45.1489C162.326 45.2795 162.258 45.379 162.166 45.4412C162.067 45.5033 161.938 45.5158 161.821 45.4412H161.827Z" fill="#DBF4FF"/>
<path d="M160.152 45.5715L160.331 45.6088L160.546 46.3238L160.3 46.3549L160.152 45.5715Z" fill="#0C2F50"/>
<path d="M90.2061 5.14624L132.887 30.0344V73.581L90.2061 47.3747V5.14624Z" fill="#F61D51"/>
<path d="M156.219 37.9054C153.375 33.7833 149.632 30.2581 145.175 27.6654L141.068 25.2717L132.893 30.0405V79.8044L133.182 79.6365C134.106 77.2988 135.682 75.2408 137.701 74.0346C139.776 72.7974 141.887 72.7103 143.605 73.5559L162.412 62.5884V57.7948C162.412 50.5578 160.189 43.6379 156.225 37.893L156.219 37.9054Z" fill="#F61D51"/>
<path d="M159.383 46.1374C158.441 43.209 157.08 40.436 155.344 37.9242C152.79 34.2186 149.428 31.0602 145.433 28.7287L145.082 28.5235C143.014 27.3174 140.471 27.3174 138.403 28.5235L137.707 28.9277V52.1123L144.559 48.0958C144.947 47.872 145.371 47.8596 145.741 48.0026C146.227 48.1953 146.603 48.6741 146.603 49.2834V51.2418C146.603 51.9195 147.071 52.4356 147.643 52.5786C147.963 52.6594 148.32 52.6221 148.647 52.4294L159.389 46.1374H159.383Z" fill="#DBF4FF"/>
<path d="M90.2061 5.14613L132.887 30.0343L141.062 25.2656L97.9751 0.619873L90.2061 5.14613Z" fill="#FE4B76"/>
<path d="M147.957 52.6904C147.846 52.6904 147.729 52.6779 147.619 52.6468C146.972 52.4852 146.523 51.907 146.523 51.2355V49.2708C146.523 48.7361 146.203 48.2636 145.71 48.0646C145.347 47.9154 144.941 47.9527 144.596 48.1517L137.744 52.1681L137.664 52.0313L144.516 48.0149C144.898 47.7911 145.353 47.7538 145.759 47.9216C146.313 48.1455 146.671 48.6739 146.671 49.2708V51.2355C146.671 51.8324 147.071 52.3484 147.649 52.4976C147.969 52.5784 148.308 52.5287 148.597 52.3608L159.34 46.0688L159.414 46.2056L148.671 52.4976C148.45 52.6282 148.203 52.6966 147.951 52.6966L147.957 52.6904Z" fill="#0C2F50"/>
<path d="M138.778 54.0956L138.938 54.1578L142.232 52.019L142.349 51.1299L142.189 51.074L138.778 53.1319V54.0956Z" fill="#011120"/>
<path d="M138.938 54.1577L142.349 52.1682V51.1299L138.938 53.1878V54.1577Z" fill="#0C2F50"/>
<path d="M145.895 68.924L145.852 68.8929C143.568 67.1396 140.613 66.978 137.738 68.4453L137.627 68.5012V28.8841L138.199 28.5546C140.385 27.28 143.094 27.28 145.279 28.5546L145.464 28.6665C149.434 30.9856 152.783 34.0818 155.406 37.8868C159.05 43.1654 160.977 49.3579 160.977 55.7929V60.1389L160.94 60.1637L145.901 68.9302L145.895 68.924ZM141.622 67.2951C143.167 67.2951 144.639 67.78 145.907 68.7375L160.817 60.0394V55.7805C160.817 49.3766 158.903 43.2151 155.277 37.9615C152.666 34.1813 149.342 31.0912 145.39 28.7908L145.205 28.6789C143.069 27.4354 140.416 27.4354 138.28 28.6789L137.787 28.9649V68.2463C139.074 67.6059 140.379 67.2888 141.628 67.2888L141.622 67.2951Z" fill="#0C2F50"/>
<path d="M132.887 79.8043L132.154 74.0097V73.1393L132.887 73.587C132.887 73.587 134.377 71.0876 137.504 69.9436C140.631 68.7996 144.657 70.298 144.657 70.298L161.531 60.518C162.073 60.2072 162.406 59.6227 162.406 58.9948V58.5471H162.757C163.009 58.5471 163.237 58.6279 163.428 58.7585C163.735 58.9761 163.932 59.3305 163.932 59.7346V60.7046C163.932 61.6372 163.686 62.5262 163.237 63.3034C162.787 64.0806 162.141 64.7334 161.341 65.1935L143.783 75.2035C143.783 75.2035 141.456 73.9476 138.557 74.619C135.657 75.2905 134.204 79.0396 134.204 79.0396L132.893 79.8043H132.887Z" fill="#0C2F50"/>
<path d="M132.154 87.6073L131.385 80.6749L132.154 80.2272V74.0036L132.887 74.4078C132.887 74.4078 134.377 71.9084 137.504 70.7644C140.631 69.6204 144.657 71.1188 144.657 71.1188L161.531 61.3326C162.276 60.8974 162.738 60.0954 162.744 59.2311V58.8208L162.399 58.6218V58.541H162.75C163.003 58.541 163.231 58.6343 163.421 58.7711C163.729 58.9887 163.926 59.3431 163.926 59.7472L163.994 64.7895C163.994 65.7221 163.748 66.6112 163.298 67.3883C162.849 68.1655 162.202 68.8183 161.402 69.2784L146.498 77.1123C146.498 77.1123 144.928 74.2523 139.154 75.5766C136.254 76.2419 134.801 79.9972 134.801 79.9972L134.531 86.4322L132.16 87.6073H132.154Z" fill="#011120"/>
<path d="M113.341 10.4869C113.156 10.2569 112.873 10.1077 112.553 10.1077C112.233 10.1077 111.956 10.2507 111.771 10.4807C111.63 10.6548 111.543 10.8848 111.543 11.1273V12.147C111.543 12.234 111.999 12.3024 112.553 12.3024C113.107 12.3024 113.563 12.234 113.563 12.147V11.1273C113.563 10.8848 113.476 10.661 113.335 10.4869H113.341Z" fill="#FFB931"/>
<path d="M121.658 15.2618C121.473 15.0318 121.19 14.8826 120.87 14.8826C120.55 14.8826 120.273 15.0256 120.088 15.2556C119.947 15.4297 119.86 15.6597 119.86 15.9022V16.9219C119.86 17.0089 120.316 17.0773 120.87 17.0773C121.424 17.0773 121.88 17.0089 121.88 16.9219V15.9022C121.88 15.6597 121.793 15.4359 121.652 15.2618H121.658Z" fill="#FFB931"/>
<path d="M117.503 12.8744C117.318 12.6443 117.035 12.4951 116.715 12.4951C116.395 12.4951 116.118 12.6381 115.933 12.8682C115.791 13.0422 115.705 13.2723 115.705 13.5148V14.5344C115.705 14.6215 116.161 14.6899 116.715 14.6899C117.269 14.6899 117.724 14.6215 117.724 14.5344V13.5148C117.724 13.2723 117.638 13.0485 117.497 12.8744H117.503Z" fill="#FFB931"/>
<path d="M25.4619 92.6682L68.1364 117.556L132.154 80.2272L89.4798 55.3452L25.4619 92.6682Z" fill="#2A547B"/>
<path d="M132.154 80.2272V30.457L68.1362 67.7862V117.556L132.154 80.2272Z" fill="#FFB931"/>
<path d="M25.4619 92.6681V42.898L89.4798 5.56885V55.3452L25.4619 92.6681Z" fill="#457198"/>
<path d="M25.4619 42.898L68.1364 67.7862L132.154 30.457L89.4798 5.56885L25.4619 42.898Z" fill="#FFC24B"/>
<path d="M26.6931 45.0554L66.9113 68.5073V115.405L26.6931 91.9531V45.0554ZM25.4619 42.9042V92.6743L68.1425 117.562V67.7861L25.4619 42.8979V42.9042Z" fill="#FFDA93"/>
<path d="M46.7993 80.2272L66.9053 91.9532V68.5012L46.7993 80.2272Z" fill="#0C2F50"/>
<path d="M46.7989 80.2271L26.6929 45.0554L66.9049 68.5012L46.7989 80.2271Z" fill="#0C2F50"/>
<path d="M26.6931 45.0555V91.9532L0 96.3799V46.6098L26.6931 45.0555ZM26.6931 44.4462L0 45.901V96.3799L26.6931 91.9532V44.4399V44.4462Z" fill="#FFDA93"/>
<path d="M26.6931 45.0554V91.9531L0 96.3799V46.6098L26.6931 45.0554Z" fill="#FFC24B"/>
<path d="M67.5209 115.405L73.6709 130.936H74.2865V81.166L67.5209 68.5012H66.9053L67.5209 115.405Z" fill="#FFDA93"/>
<path d="M66.9053 68.5012V115.405L73.6709 130.936V81.166L66.9053 68.5012Z" fill="#FFC24B"/>
<path d="M117.177 92.7864L98.2956 104.233L98.0186 103.959V100.397L117.177 89.2239L117.454 89.5037L117.177 92.7864Z" fill="#F61D51"/>
<path d="M117.453 93.0662L98.2954 104.233V100.676L117.453 89.5037V93.0662Z" fill="#FE4B76"/>
<path d="M117.177 97.1074L98.2956 108.56L98.0186 108.28V104.724L117.177 93.551L117.454 93.8308L117.177 97.1074Z" fill="#F61D51"/>
<path d="M117.453 97.3872L98.2954 108.56V105.003L117.453 93.8308V97.3872Z" fill="#FE4B76"/>
<path d="M52.7642 110.767V109.791C52.7642 109.723 52.4933 109.611 52.5364 109.573C52.6041 109.517 53.0104 109.548 53.0966 109.598L56.741 111.725C56.7841 111.749 56.8211 111.793 56.8395 111.843C56.8457 111.868 56.8519 111.892 56.8519 111.923V112.9C56.8519 112.98 56.8149 113.043 56.7595 113.08C56.6918 113.13 56.3286 113.167 56.2486 113.123L52.875 110.966C52.875 110.966 52.8257 110.929 52.8073 110.904C52.7765 110.867 52.7642 110.817 52.7642 110.773V110.767Z" fill="#FE4B76"/>
<path d="M52.3579 110.767V109.791C52.3579 109.723 52.3887 109.66 52.4379 109.623C52.5057 109.567 52.6042 109.548 52.6903 109.598L56.3348 111.725C56.3779 111.749 56.4148 111.793 56.4333 111.843C56.4394 111.868 56.4456 111.892 56.4456 111.923V112.9C56.4456 112.98 56.4087 113.043 56.3533 113.08C56.2855 113.13 56.1932 113.136 56.1132 113.092L52.4687 110.966C52.4687 110.966 52.4195 110.929 52.401 110.904C52.3702 110.867 52.3579 110.817 52.3579 110.773V110.767Z" fill="#F61D51"/>
<path d="M34.2715 99.9611V98.985C34.2715 98.9166 34.0006 98.8047 34.0437 98.7674C34.1114 98.7114 34.5177 98.7425 34.6039 98.7923L38.2484 100.919C38.2915 100.943 38.3284 100.987 38.3469 101.037C38.353 101.062 38.3592 101.086 38.3592 101.118V102.094C38.3592 102.175 38.3222 102.237 38.2668 102.274C38.1991 102.324 37.8359 102.361 37.7559 102.318L34.3823 100.16C34.3823 100.16 34.333 100.123 34.3146 100.098C34.2838 100.061 34.2715 100.011 34.2715 99.9673V99.9611Z" fill="#FE4B76"/>
<path d="M33.8711 99.9611V98.985C33.8711 98.9166 33.9019 98.8545 33.9511 98.8171C34.0188 98.7612 34.1173 98.7425 34.2035 98.7923L37.848 100.919C37.8911 100.944 37.928 100.987 37.9465 101.037C37.9526 101.062 37.9588 101.086 37.9588 101.118V102.094C37.9588 102.175 37.9218 102.237 37.8664 102.274C37.7987 102.324 37.7064 102.33 37.6263 102.286L33.9819 100.16C33.9819 100.16 33.9327 100.123 33.9142 100.098C33.8834 100.061 33.8711 100.011 33.8711 99.9674V99.9611Z" fill="#F61D51"/>
<path d="M40.9139 125.993L35.0225 122.561V115.697L40.9139 119.129V125.993Z" fill="#FFC24B"/>
<path d="M40.9141 125.993L46.7993 122.561V115.697L40.9141 119.129V125.993Z" fill="#FFB931"/>
<path d="M35.0225 115.697L40.9139 119.129L46.7992 115.697L40.9139 112.265L35.0225 115.697Z" fill="#FFDA93"/>
<path d="M40.6678 125.515L39.8921 125.061V124.159L40.6678 124.607V125.515Z" fill="#011120"/>
<path d="M37.7373 117.289L38.4514 117.705L44.3429 114.273L43.6287 113.857L37.7373 117.289Z" fill="#011120"/>
<path d="M37.7373 118.837L38.4514 119.254V117.706L37.7373 117.289V118.837Z" fill="#011120"/>
<path d="M40.9139 119.129L35.0225 115.697V108.827L40.9139 112.265V119.129Z" fill="#FFC24B"/>
<path d="M40.9141 119.129L46.7993 115.697V108.827L40.9141 112.265V119.129Z" fill="#FFB931"/>
<path d="M35.0225 108.827L40.9139 112.265L46.7992 108.827L40.9139 105.395L35.0225 108.827Z" fill="#FFDA93"/>
<path d="M40.6678 118.645L39.8921 118.197V117.295L40.6678 117.743V118.645Z" fill="#011120"/>
<path d="M37.7373 110.425L38.4514 110.842L44.3429 107.41L43.6287 106.993L37.7373 110.425Z" fill="#011120"/>
<path d="M37.7373 111.967L38.4514 112.384V110.842L37.7373 110.425V111.967Z" fill="#011120"/>
<path d="M47.1932 129.686L41.3018 126.254V119.39L47.1932 122.822V129.686Z" fill="#FFC24B"/>
<path d="M47.1934 129.686L53.0786 126.254V119.39L47.1934 122.822V129.686Z" fill="#FFB931"/>
<path d="M41.3018 119.39L47.1932 122.822L53.0785 119.39L47.1932 115.958L41.3018 119.39Z" fill="#FFDA93"/>
<path d="M46.9471 129.208L46.1714 128.754V127.852L46.9471 128.306V129.208Z" fill="#011120"/>
<path d="M44.0229 120.988L44.7371 121.405L50.6223 117.967L49.9082 117.55L44.0229 120.988Z" fill="#011120"/>
<path d="M44.0229 122.53L44.7371 122.947V121.405L44.0229 120.988V122.53Z" fill="#011120"/>
<path d="M47.1932 122.823L41.3018 119.391V112.527L47.1932 115.959V122.823Z" fill="#FFC24B"/>
<path d="M47.1934 122.823L53.0786 119.391V112.527L47.1934 115.959V122.823Z" fill="#FFB931"/>
<path d="M41.3018 112.527L47.1932 115.959L53.0785 112.527L47.1932 109.088L41.3018 112.527Z" fill="#FFDA93"/>
<path d="M46.9471 122.338L46.1714 121.89V120.989L46.9471 121.436V122.338Z" fill="#011120"/>
<path d="M44.0229 114.118L44.7371 114.535L50.6223 111.103L49.9082 110.686L44.0229 114.118Z" fill="#011120"/>
<path d="M44.0229 115.666L44.7371 116.083V114.535L44.0229 114.118V115.666Z" fill="#011120"/>
<path d="M32.3628 129.45L39.2638 125.428V120.062L32.3628 124.085V129.45Z" fill="#FFC24B"/>
<path d="M32.363 129.45L25.4619 125.428V120.062L32.363 124.085V129.45Z" fill="#FFB931"/>
<path d="M39.264 120.062L32.363 124.085L25.4619 120.062L32.363 116.039L39.264 120.062Z" fill="#FFDA93"/>
<path d="M32.646 128.884L33.5571 128.356V127.299L32.646 127.828V128.884Z" fill="#011120"/>
<path d="M36.0811 121.933L35.2438 122.418L28.3428 118.396L29.18 117.905L36.0811 121.933Z" fill="#011120"/>
<path d="M36.0814 123.743L35.2441 124.228V122.418L36.0814 121.933V123.743Z" fill="#011120"/>
<path d="M32.3628 124.085L39.2638 120.062V114.696L32.3628 118.719V124.085Z" fill="#FFC24B"/>
<path d="M32.363 124.085L25.4619 120.062V114.696L32.363 118.719V124.085Z" fill="#FFB931"/>
<path d="M39.264 114.696L32.363 118.719L25.4619 114.696L32.363 110.667L39.264 114.696Z" fill="#FFDA93"/>
<path d="M32.646 123.519L33.5571 122.99V121.933L32.646 122.462V123.519Z" fill="#011120"/>
<path d="M36.0811 116.568L35.2438 117.053L28.3428 113.03L29.18 112.539L36.0811 116.568Z" fill="#011120"/>
<path d="M36.0814 118.377L35.2441 118.862V117.053L36.0814 116.568V118.377Z" fill="#011120"/>
<path d="M32.3628 118.719L39.2638 114.696V109.331L32.3628 113.353V118.719Z" fill="#FFC24B"/>
<path d="M32.363 118.719L25.4619 114.696V109.331L32.363 113.353V118.719Z" fill="#FFB931"/>
<path d="M39.264 109.331L32.363 113.354L25.4619 109.331L32.363 105.302L39.264 109.331Z" fill="#FFDA93"/>
<path d="M32.646 118.153L33.5571 117.625V116.568L32.646 117.096V118.153Z" fill="#011120"/>
<path d="M36.0811 111.196L35.2438 111.687L28.3428 107.665L29.18 107.173L36.0811 111.196Z" fill="#011120"/>
<path d="M36.0814 113.012L35.2441 113.496V111.687L36.0814 111.196V113.012Z" fill="#011120"/>
<path d="M17.5513 121.1L24.4585 117.071V111.706L17.5513 115.735V121.1Z" fill="#FFC24B"/>
<path d="M17.5514 121.1L10.6504 117.071V111.706L17.5514 115.735V121.1Z" fill="#FFB931"/>
<path d="M24.4586 111.706L17.5514 115.735L10.6504 111.706L17.5514 107.683L24.4586 111.706Z" fill="#FFDA93"/>
<path d="M17.8408 120.535L18.7458 120.006V118.943L17.8408 119.478V120.535Z" fill="#011120"/>
<path d="M21.2695 113.577L20.4323 114.068L13.5312 110.039L14.3685 109.554L21.2695 113.577Z" fill="#011120"/>
<path d="M21.2699 115.386L20.4326 115.878V114.068L21.2699 113.577V115.386Z" fill="#011120"/>
<path d="M17.5513 115.735L24.4585 111.706V106.34L17.5513 110.363V115.735Z" fill="#FFC24B"/>
<path d="M17.5514 115.735L10.6504 111.706V106.34L17.5514 110.363V115.735Z" fill="#FFB931"/>
<path d="M24.4586 106.34L17.5514 110.363L10.6504 106.34L17.5514 102.317L24.4586 106.34Z" fill="#FFDA93"/>
<path d="M17.8408 115.169L18.7458 114.634V113.577L17.8408 114.106V115.169Z" fill="#011120"/>
<path d="M21.2695 108.211L20.4323 108.703L13.5312 104.674L14.3685 104.189L21.2695 108.211Z" fill="#011120"/>
<path d="M21.2699 110.021L20.4326 110.512V108.703L21.2699 108.211V110.021Z" fill="#011120"/>
<path d="M17.5513 110.363L24.4585 106.34V100.975L17.5513 104.997V110.363Z" fill="#FFC24B"/>
<path d="M17.5514 110.363L10.6504 106.34V100.975L17.5514 104.997V110.363Z" fill="#FFB931"/>
<path d="M24.4586 100.975L17.5514 104.997L10.6504 100.975L17.5514 96.9519L24.4586 100.975Z" fill="#FFDA93"/>
<path d="M17.8408 109.797L18.7458 109.269V108.212L17.8408 108.74V109.797Z" fill="#011120"/>
<path d="M21.2695 102.846L20.4323 103.331L13.5312 99.3082L14.3685 98.8232L21.2695 102.846Z" fill="#011120"/>
<path d="M21.2699 104.655L20.4326 105.146V103.331L21.2699 102.846V104.655Z" fill="#011120"/>
<path d="M11.2964 124.737L5.41113 121.299V114.435L11.2964 117.867V124.737Z" fill="#FFC24B"/>
<path d="M11.2964 124.737L17.1817 121.299V114.435L11.2964 117.867V124.737Z" fill="#FFB931"/>
<path d="M5.41113 114.435L11.2964 117.867L17.1817 114.435L11.2964 111.003L5.41113 114.435Z" fill="#FFDA93"/>
<path d="M11.0503 124.252L10.2808 123.798V122.897L11.0503 123.351V124.252Z" fill="#011120"/>
<path d="M8.12598 116.033L8.84009 116.45L14.7254 113.018L14.0113 112.601L8.12598 116.033Z" fill="#011120"/>
<path d="M8.12598 117.575L8.84009 117.991V116.45L8.12598 116.033V117.575Z" fill="#011120"/>
<path d="M11.2964 117.867L5.41113 114.435V107.571L11.2964 111.003V117.867Z" fill="#FFC24B"/>
<path d="M11.2964 117.867L17.1817 114.435V107.571L11.2964 111.003V117.867Z" fill="#FFB931"/>
<path d="M5.41113 107.571L11.2964 111.003L17.1817 107.571L11.2964 104.139L5.41113 107.571Z" fill="#FFDA93"/>
<path d="M11.0503 117.388L10.2808 116.934V116.033L11.0503 116.481V117.388Z" fill="#011120"/>
<path d="M8.12598 109.163L8.84009 109.579L14.7254 106.147L14.0113 105.731L8.12598 109.163Z" fill="#011120"/>
<path d="M8.12598 110.711L8.84009 111.128V109.579L8.12598 109.163V110.711Z" fill="#011120"/>
<path d="M39.8979 133.983L46.799 129.96V124.594L39.8979 128.617V133.983Z" fill="#FFC24B"/>
<path d="M39.8979 133.983L32.9907 129.96V124.594L39.8979 128.617V133.983Z" fill="#FFB931"/>
<path d="M46.799 124.595L39.8979 128.617L32.9907 124.595L39.8979 120.566L46.799 124.595Z" fill="#FFDA93"/>
<path d="M40.1812 133.417L41.0923 132.889V131.832L40.1812 132.36V133.417Z" fill="#011120"/>
<path d="M43.616 126.466L42.7788 126.951L35.8716 122.928L36.7088 122.437L43.616 126.466Z" fill="#011120"/>
<path d="M43.616 128.275L42.7788 128.76V126.951L43.616 126.466V128.275Z" fill="#011120"/>
<path d="M39.8979 128.617L46.799 124.594V119.229L39.8979 123.251V128.617Z" fill="#FFC24B"/>
<path d="M39.8979 128.617L32.9907 124.594V119.229L39.8979 123.251V128.617Z" fill="#FFB931"/>
<path d="M46.799 119.229L39.8979 123.251L32.9907 119.229L39.8979 115.2L46.799 119.229Z" fill="#FFDA93"/>
<path d="M40.1812 128.051L41.0923 127.523V126.466L40.1812 126.994V128.051Z" fill="#011120"/>
<path d="M43.616 121.094L42.7788 121.585L35.8716 117.562L36.7088 117.071L43.616 121.094Z" fill="#011120"/>
<path d="M43.616 122.909L42.7788 123.394V121.585L43.616 121.094V122.909Z" fill="#011120"/>
<path d="M39.8979 123.252L46.799 119.229V113.857L39.8979 117.886V123.252Z" fill="#FFC24B"/>
<path d="M39.8979 123.252L32.9907 119.229V113.857L39.8979 117.886V123.252Z" fill="#FFB931"/>
<path d="M46.799 113.857L39.8979 117.886L32.9907 113.857L39.8979 109.834L46.799 113.857Z" fill="#FFDA93"/>
<path d="M40.1812 122.686L41.0923 122.157V121.1L40.1812 121.629V122.686Z" fill="#011120"/>
<path d="M43.616 115.728L42.7788 116.22L35.8716 112.197L36.7088 111.706L43.616 115.728Z" fill="#011120"/>
<path d="M43.616 117.538L42.7788 118.029V116.22L43.616 115.729V117.538Z" fill="#011120"/>
<path d="M33.6434 137.62L27.752 134.188V127.324L33.6434 130.756V137.62Z" fill="#FFC24B"/>
<path d="M33.6436 137.62L39.5288 134.188V127.324L33.6436 130.756V137.62Z" fill="#FFB931"/>
<path d="M27.752 127.324L33.6434 130.756L39.5287 127.324L33.6434 123.886L27.752 127.324Z" fill="#FFDA93"/>
<path d="M33.3973 137.135L32.6216 136.687V135.786L33.3973 136.234V137.135Z" fill="#011120"/>
<path d="M30.4668 128.916L31.1809 129.332L37.0724 125.9L36.3582 125.484L30.4668 128.916Z" fill="#011120"/>
<path d="M30.4668 130.464L31.1809 130.88V129.332L30.4668 128.916V130.464Z" fill="#011120"/>
<path d="M33.6434 130.756L27.752 127.324V120.454L33.6434 123.886V130.756Z" fill="#FFC24B"/>
<path d="M33.6436 130.756L39.5288 127.324V120.454L33.6436 123.886V130.756Z" fill="#FFB931"/>
<path d="M27.752 120.454L33.6434 123.886L39.5287 120.454L33.6434 117.022L27.752 120.454Z" fill="#FFDA93"/>
<path d="M33.3973 130.271L32.6216 129.817V128.916L33.3973 129.369V130.271Z" fill="#011120"/>
<path d="M30.4668 122.052L31.1809 122.468L37.0724 119.036L36.3582 118.62L30.4668 122.052Z" fill="#011120"/>
<path d="M30.4668 123.593L31.1809 124.01V122.468L30.4668 122.052V123.593Z" fill="#011120"/>
</g>
<defs>
<clipPath id="clip0_4270_32811">
<rect width="164" height="137" fill="white" transform="translate(0 0.619873)"/>
</clipPath>
</defs>
</svg>
