<svg width="136" height="94" viewBox="0 0 136 94" fill="none" xmlns="http://www.w3.org/2000/svg">
<g clip-path="url(#clip0_3823_24549)">
<path d="M89.0188 90.7904C75.2286 94.3039 60.7707 94.3039 46.9805 90.7904C41.0228 89.2773 36.8369 83.9173 36.8369 77.7623V66.2729H99.1367V77.7623C99.1367 83.9173 94.9509 89.2773 88.9931 90.7904H89.0188Z" fill="#011120"/>
<path d="M123.739 81.2244H12.2619C5.50805 81.2244 0.885638 75.5054 1.93852 68.6323L10.6697 10.8521C11.4401 5.82546 16.5505 1.85034 22.0974 1.85034H113.904C119.476 1.85034 124.586 5.82546 125.331 10.8521L134.088 68.6323C135.115 75.5054 130.519 81.2244 123.765 81.2244H123.739Z" fill="#2A547B"/>
<path d="M123.739 82.5068H12.2617C8.71788 82.5068 5.55923 81.0962 3.37643 78.5573C1.09091 75.8901 0.0893838 72.2227 0.680025 68.4528L9.41124 10.6726C10.2587 5.03049 15.8313 0.59375 22.1229 0.59375H113.903C120.169 0.59375 125.742 5.03049 126.615 10.6726L135.372 68.4528C135.937 72.2227 134.961 75.8901 132.675 78.5573C130.467 81.1219 127.308 82.5068 123.79 82.5068H123.739ZM22.1229 3.15834C17.1666 3.15834 12.6212 6.69747 11.9536 11.0573L3.19667 68.8375C2.73443 71.8894 3.47915 74.7617 5.32811 76.8903C7.023 78.865 9.48828 79.9678 12.2617 79.9678H123.739C126.512 79.9678 128.978 78.8907 130.672 76.8903C132.496 74.7617 133.266 71.915 132.804 68.8375L124.047 11.0573C123.379 6.69747 118.834 3.15834 113.878 3.15834H22.1229Z" fill="#2A547B"/>
<path d="M123.739 76.8646H12.2619C5.50805 76.8646 0.885638 71.4533 1.93852 64.9649L10.6697 10.3648C11.4401 5.62028 16.5505 1.87598 22.123 1.87598H113.904C119.476 1.87598 124.586 5.62028 125.331 10.3648L134.088 64.9649C135.115 71.4533 130.519 76.8646 123.765 76.8646H123.739Z" fill="#00B2FF"/>
<path d="M123.738 78.1469H12.2614C8.58915 78.1469 5.35347 76.7364 3.17066 74.1462C1.01354 71.6072 0.114736 68.2733 0.679697 64.7854L9.41091 10.1597C10.2584 4.79968 15.8566 0.59375 22.1225 0.59375H113.903C120.169 0.59375 125.742 4.79968 126.615 10.1597L135.372 64.7598C135.936 68.2476 135.038 71.5816 132.881 74.1205C130.672 76.7108 127.436 78.1213 123.79 78.1213L123.738 78.1469ZM22.1225 3.15834C17.1663 3.15834 12.6209 6.49231 11.9532 10.57L3.19634 65.1701C2.75978 67.9142 3.42746 70.5045 5.12234 72.4792C6.84291 74.4796 9.38523 75.5824 12.2614 75.5824H123.738C126.64 75.5824 129.183 74.4796 130.878 72.4792C132.547 70.5045 133.24 67.9142 132.804 65.1701L124.047 10.57C123.405 6.49231 118.834 3.15834 113.877 3.15834H22.1225Z" fill="#0C2F50"/>
<path d="M88.5572 67.5551C87.8639 67.5551 87.2989 67.0166 87.2732 66.3241L84.4228 8.97989C84.3971 8.26181 84.9364 7.67195 85.6297 7.64631C86.3488 7.59502 86.9394 8.15923 86.9651 8.85167L89.8156 66.1959C89.8412 66.914 89.302 67.5038 88.6086 67.5295H88.5572V67.5551Z" fill="white"/>
<path d="M125.536 64.965H99.6248C98.9058 64.965 98.3408 64.4008 98.3408 63.6827C98.3408 62.9646 98.9058 62.4004 99.6248 62.4004H125.536C126.255 62.4004 126.82 62.9646 126.82 63.6827C126.82 64.4008 126.255 64.965 125.536 64.965Z" fill="white"/>
<path d="M75.178 37.5751H17.6033C16.8843 37.5751 16.3193 37.0109 16.3193 36.2928C16.3193 35.5747 16.8843 35.0105 17.6033 35.0105H75.178C75.897 35.0105 76.462 35.5747 76.462 36.2928C76.462 37.0109 75.897 37.5751 75.178 37.5751Z" fill="white"/>
<path d="M74.9723 26.7782H19.0154C18.2964 26.7782 17.7314 26.214 17.7314 25.4959C17.7314 24.7778 18.2964 24.2136 19.0154 24.2136H74.9723C75.6913 24.2136 76.2563 24.7778 76.2563 25.4959C76.2563 26.214 75.6913 26.7782 74.9723 26.7782Z" fill="white"/>
<path d="M74.7931 16.5455H20.3514C19.6323 16.5455 19.0674 15.9813 19.0674 15.2633C19.0674 14.5452 19.6323 13.981 20.3514 13.981H74.7931C75.5121 13.981 76.0771 14.5452 76.0771 15.2633C76.0771 15.9813 75.5121 16.5455 74.7931 16.5455Z" fill="white"/>
</g>
<defs>
<clipPath id="clip0_3823_24549">
<rect width="135" height="92.8125" fill="white" transform="translate(0.5 0.59375)"/>
</clipPath>
</defs>
</svg>
