<svg width="113" height="109" viewBox="0 0 113 109" fill="none" xmlns="http://www.w3.org/2000/svg">
<g clip-path="url(#clip0_2505_33231)">
<path d="M113 26.3234L56.4874 0L0 26.3234L56.4874 52.6468L113 26.3234Z" fill="#F1F3F8"/>
<path d="M56.4874 109L0 82.6765V26.3232L56.4874 52.6466V109Z" fill="#F1F3F8"/>
<path d="M10.4887 43.3678L1.79443 39.3084V30.6348L10.4887 34.6942V43.3678Z" fill="#E1E4EE"/>
<path d="M33.3871 58.8999L23.1006 54.1092V37.0142L33.3871 41.8048V58.8999Z" fill="#00B2FF"/>
<path d="M89.0402 15.1787L78.7031 10.3628L23.0498 37.014L33.3869 41.8298L89.0402 15.1787Z" fill="#00B2FF"/>
<path d="M113 82.6765L56.4873 109V52.6466L113 26.3232V82.6765Z" fill="#E1E4EE"/>
<path d="M67.2287 102.066L59.0146 105.899V97.7041L67.2287 93.8716V102.066Z" fill="#BFC6DA"/>
</g>
<defs>
<clipPath id="clip0_2505_33231">
<rect width="113" height="109" fill="white"/>
</clipPath>
</defs>
</svg>
